<svg xmlns="http://www.w3.org/2000/svg" viewBox="0 0 622.55 168.03"><defs><style>.cls-1{fill:#0d635f;}.cls-2,.cls-3{fill:none;stroke:#0d635f;stroke-linecap:round;stroke-width:4.28px;}.cls-2{stroke-linejoin:round;}.cls-3{stroke-miterlimit:10;}</style></defs><g id="Layer_2" data-name="Layer 2"><path class="cls-1" d="M4.86,105.29V52.89H18.08v52.4Zm2.76,0V95.38H45l-.28,9.91Zm28.81,0V69.5c0-2.38-.53-4.1-1.6-5.14a6.26,6.26,0,0,0-4.54-1.56H13.22V52.89H33.86A18.44,18.44,0,0,1,42,54.63a12.78,12.78,0,0,1,5.65,5.51q2.05,3.77,2.06,10v35.15Z"/><path class="cls-1" d="M59.93,86V63.63l-1.1-10.74H72l1.1,10.74V77.94l-.09,5.79Z"/><path class="cls-1" d="M81.68,105.29V95.38h13.4V68.86c0-2.39-.45-4-1.33-4.87A6.3,6.3,0,0,0,90,62.43l-6.43-.91,1.66-9.73,11.47,1.47a11.94,11.94,0,0,1,8.62,4.81,17.42,17.42,0,0,1,2.94,10.42v36.8Z"/><path class="cls-1" d="M118.66,105.29V63.63l-1.1-10.74h13.22l1.1,10.74v41.66Z"/><path class="cls-1" d="M139.49,105.29V95.38h14.69a10.21,10.21,0,0,0,6-1.65,9.06,9.06,0,0,0,3.35-4.59,20.34,20.34,0,0,0,1-6.61V75.65a19.91,19.91,0,0,0-1-6.56,9.32,9.32,0,0,0-3.35-4.59,10,10,0,0,0-6-1.7H139.49V52.89h18.27a19.84,19.84,0,0,1,11.15,2.94,18,18,0,0,1,6.7,8.21,31.28,31.28,0,0,1,2.24,12.34V81.8a31.5,31.5,0,0,1-2.24,12.43,17.81,17.81,0,0,1-6.7,8.17,20.07,20.07,0,0,1-11.15,2.89Z"/><path class="cls-1" d="M184.09,106.85l-1.1-9a15.79,15.79,0,0,0,5.33-1.42,4.85,4.85,0,0,0,2.34-2.89,15.83,15.83,0,0,0,.5-5V52.89H219a18.16,18.16,0,0,1,8.12,1.74,12.88,12.88,0,0,1,5.6,5.51q2.07,3.77,2.06,10v35.15H221.54V69.5c0-2.38-.55-4.1-1.65-5.14a6.45,6.45,0,0,0-4.59-1.56H204.47v24q0,7.07-2.16,11.19a13.44,13.44,0,0,1-6.65,6.15A36.64,36.64,0,0,1,184.09,106.85Z"/><path class="cls-1" d="M243.84,105.29,250.17,70l-7.34-17.07H256.6l6.14,17.71-5.69,34.69Zm20.1.09,1.19-9.91q6.8,1.47,10.55-.13A9.48,9.48,0,0,0,281,89.42a31.44,31.44,0,0,0,1.42-10.74,30.1,30.1,0,0,0-1.19-9.36,10.27,10.27,0,0,0-3.44-5.23,9.29,9.29,0,0,0-5.64-1.66,9.58,9.58,0,0,0-4.5,1.06,8.92,8.92,0,0,0-3.31,2.94,10.71,10.71,0,0,0-1.65,4.63l-3-5.69q1.85-7,6-10.14a14.94,14.94,0,0,1,9.23-3.17,21.49,21.49,0,0,1,8.58,1.61,15.88,15.88,0,0,1,6.29,4.91,23.1,23.1,0,0,1,3.9,8.35A46.7,46.7,0,0,1,295,78.68q.09,10.09-3.54,16.88a19.65,19.65,0,0,1-10.6,9.46Q273.85,107.68,263.94,105.38Z"/><path class="cls-1" d="M343.5,105.29V69.5c0-2.38-.53-4.1-1.6-5.14a6.26,6.26,0,0,0-4.54-1.56h-17.9V52.89h21.47a18.44,18.44,0,0,1,8.17,1.74,12.78,12.78,0,0,1,5.65,5.51q2.06,3.77,2.06,10v35.15Z"/><path class="cls-1" d="M366.54,105.29V95.38h18.54a12.44,12.44,0,0,0,4.77-.87,9,9,0,0,0,3.53-2.57,12.1,12.1,0,0,0,2.2-4.08,17.41,17.41,0,0,0,.79-5.42V75.65a18.19,18.19,0,0,0-1.11-6.56,9.91,9.91,0,0,0-3.39-4.59,9.48,9.48,0,0,0-5.78-1.7h-6.61l-1.65,7.8q-.65,3.41.55,5.14c.79,1.16,2.48,2,5,2.57l-2.11,8.26q-6.69-.18-10.23-2.48a10.49,10.49,0,0,1-4.59-6.1,20.43,20.43,0,0,1-.32-8.58l3.67-16.52h19.37a19.71,19.71,0,0,1,11,2.94,19,19,0,0,1,7,8.16,29,29,0,0,1,2.43,12.3V81.8a30.37,30.37,0,0,1-1.51,9.91,20.41,20.41,0,0,1-4.36,7.43,18.67,18.67,0,0,1-6.75,4.59,23.41,23.41,0,0,1-8.76,1.56Z"/><path class="cls-1" d="M422.79,106.21l-5-43.41,12.57-5.87,4,37.53a34.26,34.26,0,0,0,6.84-1.24A13.49,13.49,0,0,0,446,90.75a11.5,11.5,0,0,0,3-3.86,17.26,17.26,0,0,0,1.52-5.27,38.76,38.76,0,0,0,.23-6.89V72a12,12,0,0,0-.88-4.86A7.32,7.32,0,0,0,447.44,64a6.35,6.35,0,0,0-3.81-1.15H417.75l-1.29-9.91h28.18q9.08,0,14,5.14t5.19,14l.09,3q.27,8.53-2.52,14.36a23,23,0,0,1-8.26,9.41A40.86,40.86,0,0,1,440,104.15,87.31,87.31,0,0,1,422.79,106.21Z"/><path class="cls-2" d="M615.5,128.48c-18.36,0-96.67.43-101.45,0H514a9.22,9.22,0,0,0-4.15.06,10.34,10.34,0,0,0-6.39,5.33q.41-63.55.41-127.08V2.62l111.81-.48a4.72,4.72,0,0,1,4.74,4.66V128.48Z"/><path class="cls-2" d="M522.32,148.87H510a8.75,8.75,0,0,1-5.2-2.35c-3.77-3.74-2.87-11,.56-14.86a9.64,9.64,0,0,1,6.21-3.37,8,8,0,0,1,2.46.19q-.36-63-.73-125.92"/><path class="cls-2" d="M616.8,129.45a37.5,37.5,0,0,0,0,6.46h0c0,.07.43,7.8-.65,10.7q-.07.18-.15.33a3.84,3.84,0,0,1-.33.56,4.07,4.07,0,0,1-2.31,1.24,33.6,33.6,0,0,1-3.93.25c-3.71.09-6.46,0-7.07,0-3-.15-14.7-.28-48-.29"/><line class="cls-2" x1="519.27" y1="138.8" x2="616.91" y2="138.8"/><polyline class="cls-2" points="528.6 138.8 528.6 165.88 538.16 158.42"/><polyline class="cls-2" points="548.11 138.8 548.11 165.88 538.55 158.42"/><path class="cls-3" d="M579,41.29c1.37-.28,2,.8,6.55,4.54,4.25,3.48,5.32,3.84,5.37,5.2.09,2.39-3.06,4.83-5.91,5.5a7.55,7.55,0,0,1-3,.1c-.09.14-.17.29-.28.43L548.1,98.21a3.68,3.68,0,0,1-5.15.61l-.48-.39a3.68,3.68,0,0,1-.42-5.17l33.64-41.15c.06-.08.14-.14.2-.21a8,8,0,0,1-.76-3.68C575.21,45.44,576.71,41.75,579,41.29Z"/><line class="cls-3" x1="598.83" y1="42.68" x2="590.52" y2="52.84"/><line class="cls-3" x1="585.74" y1="31.98" x2="577.44" y2="42.14"/><line class="cls-3" x1="592.14" y1="37.5" x2="586.02" y2="44.99"/><path class="cls-3" d="M571.72,69.31c3.4,3.78,6.06,6.91,7.86,9.08,5.72,6.87,5.11,6.59,7.27,8.88,1.56,1.66,2.82,3.59,4.33,5.3a4.62,4.62,0,0,1,1.41,2.54,4.18,4.18,0,0,1-1.87,3.81,4.38,4.38,0,0,1-3.12.61c-1.75-.35-2.73-1.76-3.86-3.26-1.61-2.16-3.44-4.14-5.11-6.26l-1.57-1.94c-1.08-1.31-1.88-2.25-2-2.43-1-1.14-3.17-3.88-8.15-10.39"/><path class="cls-3" d="M566,62.94c-1.39-1.66-2.56-3.11-3.47-4.24-3.36-4.24-6.53-8.63-6.53-8.63a14,14,0,0,0,.52-2,14.61,14.61,0,0,0-.28-6.49c-1.82-6.15-8.22-8.54-8.78-8.74a11.28,11.28,0,0,0-6.61-.55A8.31,8.31,0,0,0,537.23,34a9.11,9.11,0,0,0-2.91,5.58,12.23,12.23,0,0,0,.22,5.41,13.23,13.23,0,0,0,10,10.13s.41.08,4.86.32h0l1,1.29c1,1.35,2.6,3.2,3,3.71,1.46,1.73,2.87,3.51,4.31,5.27l3.38,4.14"/></g></svg>