<svg xmlns="http://www.w3.org/2000/svg" viewBox="0 0 443.16 112.51"><defs><style>.cls-1,.cls-4{fill:#0d635f;}.cls-2,.cls-3{fill:none;}.cls-2,.cls-3,.cls-4{stroke:#0d635f;stroke-width:4.02px;}.cls-2{stroke-miterlimit:10;}.cls-3,.cls-4{stroke-linecap:round;stroke-linejoin:round;}</style></defs><g id="Layer_2" data-name="Layer 2"><path class="cls-1" d="M187.94,91.13l-1.1-9a15.56,15.56,0,0,0,5.33-1.42,4.83,4.83,0,0,0,2.34-2.89,15.83,15.83,0,0,0,.5-5V37.16h27.81a18.16,18.16,0,0,1,8.12,1.75,12.86,12.86,0,0,1,5.6,5.5q2.07,3.77,2.06,10V89.57H225.39V53.77q0-3.57-1.65-5.14a6.49,6.49,0,0,0-4.59-1.55H208.32v24q0,7.06-2.16,11.2a13.47,13.47,0,0,1-6.65,6.14A36.62,36.62,0,0,1,187.94,91.13Z"/><path class="cls-1" d="M249.07,89.57V47.9L248,37.16h13.22l1.1,10.74V89.57Z"/><path class="cls-1" d="M270.81,89.57V79.66h13.4V53.13q0-3.57-1.33-4.86a6.15,6.15,0,0,0-3.71-1.56l-6.43-.92,1.65-9.73,11.47,1.47a12,12,0,0,1,8.63,4.82,17.37,17.37,0,0,1,2.94,10.41V89.57Z"/><path class="cls-1" d="M307.8,89.57V47.9l-1.1-10.74h13.21L321,47.9V89.57Z"/><path class="cls-1" d="M330.19,89.57l6.33-35.34-7.34-17.07H343l6.15,17.72-5.69,34.69Zm20.1.09,1.19-9.91q6.79,1.47,10.56-.14a9.46,9.46,0,0,0,5.27-5.92A31.39,31.39,0,0,0,368.74,63a30.16,30.16,0,0,0-1.2-9.36,10.21,10.21,0,0,0-3.44-5.23,9.28,9.28,0,0,0-5.64-1.65,9.57,9.57,0,0,0-4.5,1,9,9,0,0,0-3.3,2.94A10.59,10.59,0,0,0,349,55.33l-3-5.69c1.22-4.64,3.22-8,6-10.14a14.89,14.89,0,0,1,9.22-3.16,21.49,21.49,0,0,1,8.58,1.6,15.88,15.88,0,0,1,6.29,4.91A23.18,23.18,0,0,1,380,51.2,46.76,46.76,0,0,1,381.31,63q.09,10.1-3.53,16.89a19.65,19.65,0,0,1-10.61,9.45Q360.19,91.95,350.29,89.66Z"/><path class="cls-1" d="M387.64,91.13l-1.1-9a15.49,15.49,0,0,0,5.32-1.42,4.83,4.83,0,0,0,2.34-2.89,15.51,15.51,0,0,0,.51-5V37.16h27.8a18.2,18.2,0,0,1,8.13,1.75,12.78,12.78,0,0,1,5.59,5.5q2.07,3.77,2.07,10V89.57H425.08V53.77q0-3.57-1.65-5.14a6.46,6.46,0,0,0-4.59-1.55H408v24q0,7.06-2.15,11.2a13.45,13.45,0,0,1-6.66,6.14A36.49,36.49,0,0,1,387.64,91.13Z"/><rect class="cls-2" x="2.01" y="11.07" width="143.45" height="92.15" rx="8.17"/><polyline class="cls-3" points="83.41 10.07 86.18 2.01 103.07 2.01 120.58 2.01 122.42 10.07"/><polyline class="cls-3" points="18.91 10.07 20.29 4.7 28.74 4.7 37.49 4.7 38.41 10.07"/><circle class="cls-3" cx="87.48" cy="57.15" r="34.94"/><circle class="cls-4" cx="87.48" cy="57.15" r="26.11"/><line class="cls-3" x1="3.24" y1="35.34" x2="59.75" y2="35.34"/><line class="cls-3" x1="116.28" y1="35.34" x2="145.46" y2="35.34"/></g></svg>