<svg xmlns="http://www.w3.org/2000/svg" viewBox="0 0 606.9 136.03"><defs><style>.cls-1{fill:#0d635f;}.cls-2{fill:none;stroke:#0d635f;stroke-linecap:round;stroke-linejoin:round;stroke-width:3.83px;}</style></defs><g id="Layer_2" data-name="Layer 2"><path class="cls-1" d="M204.94,108.4V76.64a26.21,26.21,0,0,1,.69-6.33,12.75,12.75,0,0,1,1.88-4.4H184V56h43v9.92H219.9a19.07,19.07,0,0,0-1.38,5.27,45.9,45.9,0,0,0-.36,5.46V108.4Z"/><path class="cls-1" d="M236.14,108.4V66.73L235,56h13.22l1.1,10.74V108.4Z"/><path class="cls-1" d="M258.53,108.4l6.34-35.34L257.52,56h13.77l6.15,17.72-5.69,34.69Zm20.1.09,1.2-9.91q6.78,1.47,10.55-.14a9.45,9.45,0,0,0,5.28-5.92,31.37,31.37,0,0,0,1.42-10.74,30.49,30.49,0,0,0-1.19-9.36,10.33,10.33,0,0,0-3.45-5.23,9.28,9.28,0,0,0-5.64-1.65,9.51,9.51,0,0,0-4.5,1.06,9,9,0,0,0-3.3,2.93,10.5,10.5,0,0,0-1.65,4.64l-3-5.69q1.83-7,6-10.14a14.86,14.86,0,0,1,9.22-3.17,21.6,21.6,0,0,1,8.58,1.6,15.9,15.9,0,0,1,6.29,4.91,23.15,23.15,0,0,1,3.9,8.36,46.16,46.16,0,0,1,1.33,11.74q.09,10.09-3.53,16.89a19.63,19.63,0,0,1-10.6,9.45Q288.55,110.79,278.63,108.49Z"/><path class="cls-1" d="M318.83,89.13V66.73L317.73,56h13.21L332,66.73V81.05L332,86.83Z"/><path class="cls-1" d="M339.85,65.91V42.6h11.92V65.91ZM350,108.4l16.43-42.49H339.85V56h39.92V66.92L363.25,108.4Z"/><path class="cls-1" d="M406.66,89.13V66.73L405.55,56h13.22l1.1,10.74V81.05l-.09,5.78Z"/><path class="cls-1" d="M451.44,108.4V72.61q0-3.58-1.61-5.14a6.24,6.24,0,0,0-4.54-1.56h-17.9V56h21.48A18.47,18.47,0,0,1,457,57.74a12.76,12.76,0,0,1,5.64,5.51q2.07,3.75,2.07,10V108.4Z"/><path class="cls-1" d="M473.83,108.4l6.33-35.34L472.82,56h13.77l6.15,17.72-5.69,34.69Zm20.1.09,1.19-9.91q6.79,1.47,10.56-.14A9.44,9.44,0,0,0,511,92.52a31.35,31.35,0,0,0,1.43-10.74,30.16,30.16,0,0,0-1.2-9.36,10.25,10.25,0,0,0-3.44-5.23,9.28,9.28,0,0,0-5.64-1.65,9.46,9.46,0,0,0-4.5,1.06,8.87,8.87,0,0,0-3.3,2.93,10.63,10.63,0,0,0-1.66,4.64l-3-5.69q1.83-7,6-10.14a14.86,14.86,0,0,1,9.22-3.17,21.67,21.67,0,0,1,8.58,1.6,16,16,0,0,1,6.29,4.91,23.15,23.15,0,0,1,3.9,8.36A46.16,46.16,0,0,1,525,81.78q.09,10.09-3.53,16.89a19.66,19.66,0,0,1-10.6,9.45Q503.85,110.79,493.93,108.49Z"/><path class="cls-1" d="M534.13,108.4V66.73L533,56h13.22l1.1,10.74V108.4Z"/><path class="cls-1" d="M588.92,108.4V73.06c0-4.77-2.06-7.15-6.15-7.15H557.25V56h29.1a17.94,17.94,0,0,1,8.26,1.84,12.89,12.89,0,0,1,5.59,5.74,22,22,0,0,1,2,10.14V108.4Zm-31.67,0V62h13.22V108.4Z"/><path class="cls-2" d="M150.61,103.36l-1.51-12.6,3.06-6-8.42-10.3L137,77l-5.65-4-1.26-6.56-9-.13v0l-7.67.13-1.51,6L105.24,77l-6.73-2.51-8.43,10.3,3.07,6-1.52,12.6-5.2,4.69,5.37,13.18,6.39-1.11,11.86,6.56,1.51,7.44,18.53-.51,1.64-6.93,12.33-6.56,6.38,1.11,5.37-13.18Z"/><circle class="cls-2" cx="121.12" cy="100.21" r="11.45"/><line class="cls-2" x1="80.79" y1="121.29" x2="14.03" y2="121.29"/><line class="cls-2" x1="75.9" y1="103.57" x2="14.03" y2="103.57"/><line class="cls-2" x1="14.03" y1="121.29" x2="14.03" y2="67.08"/><path class="cls-2" d="M13.24,66.31A23.43,23.43,0,0,1,5.4,58.07,28.26,28.26,0,0,1,3.78,34.39,23.18,23.18,0,0,1,29.33,20"/><path class="cls-2" d="M32,32.54C33.8,15.77,47.35,2.88,63.34,2c14.34-.82,28,8.15,33.3,22.2C98,23.16,106.3,17,116.79,20c11.09,3.24,15.29,13.37,16.09,15.58,3.71,10.19-.5,19.07-1.31,20.69"/><line class="cls-2" x1="40.21" y1="43.53" x2="40.21" y2="64.14"/><line class="cls-2" x1="66.38" y1="43.15" x2="66.38" y2="63.76"/><line class="cls-2" x1="92.55" y1="43.91" x2="92.55" y2="64.53"/></g></svg>