<svg xmlns="http://www.w3.org/2000/svg" viewBox="0 0 683.4 131.76"><defs><style>.cls-1{fill:#0d635f;}.cls-2{fill:none;stroke:#0d635f;stroke-linecap:round;stroke-linejoin:round;stroke-width:4.01px;}</style></defs><g id="Layer_2" data-name="Layer 2"><path class="cls-1" d="M4.41,108.82v-25l1.83-6.15H17.71v31.2Zm30.65,0V73q0-3.59-1.61-5.14a6.24,6.24,0,0,0-4.54-1.56H5V56.42H32.49a18.47,18.47,0,0,1,8.17,1.74,12.76,12.76,0,0,1,5.64,5.51q2.07,3.77,2.07,10v35.15Z"/><path class="cls-1" d="M55.25,108.82V98.91H69.93a10.19,10.19,0,0,0,6-1.65,9,9,0,0,0,3.35-4.59,20.34,20.34,0,0,0,1-6.61V79.18a20,20,0,0,0-1-6.57A9.28,9.28,0,0,0,75.94,68a9.92,9.92,0,0,0-6-1.7H55.25V56.42H73.51a19.89,19.89,0,0,1,11.15,2.93,18,18,0,0,1,6.7,8.22,31.28,31.28,0,0,1,2.25,12.34v5.42a31.53,31.53,0,0,1-2.25,12.43,17.74,17.74,0,0,1-6.7,8.17,20,20,0,0,1-11.15,2.89Z"/><path class="cls-1" d="M123.71,108.82V73q0-3.59-1.61-5.14a6.24,6.24,0,0,0-4.54-1.56H99.67V56.42h21.47a18.47,18.47,0,0,1,8.17,1.74A12.71,12.71,0,0,1,135,63.67q2.07,3.77,2.07,10v35.15Z"/><path class="cls-1" d="M166,108.82V77.07a26.24,26.24,0,0,1,.69-6.34,12.57,12.57,0,0,1,1.88-4.4h-23.5V56.42h43v9.91H181a18.38,18.38,0,0,0-1.38,5.28,43.77,43.77,0,0,0-.37,5.46v31.75Z"/><path class="cls-1" d="M196,108.82v-25l1.83-6.15h11.47v31.2Zm30.65,0V73q0-3.59-1.61-5.14a6.24,6.24,0,0,0-4.54-1.56H196.58V56.42h27.53a18.47,18.47,0,0,1,8.17,1.74,12.76,12.76,0,0,1,5.64,5.51q2.07,3.77,2.07,10v35.15Z"/><path class="cls-1" d="M268.16,89.55V67.15l-1.1-10.73h13.21l1.11,10.73V81.47l-.1,5.78Z"/><path class="cls-1" d="M289.91,108.82V98.91h13.4V72.39c0-2.39-.45-4-1.33-4.87A6.24,6.24,0,0,0,298.26,66L291.84,65l1.65-9.72L305,56.78a12,12,0,0,1,8.63,4.82A17.49,17.49,0,0,1,316.52,72v36.8Z"/><path class="cls-1" d="M326.89,108.82V67.15l-1.1-10.73H339l1.1,10.73v41.67Z"/><path class="cls-1" d="M354.88,109.74l-6.15-53.32H362L366.54,98a26.42,26.42,0,0,0,8.35-2,14.62,14.62,0,0,0,5.41-4,14.8,14.8,0,0,0,2.9-5.73A27,27,0,0,0,384,78.9V76.06a12.34,12.34,0,0,0-.92-4.78,8.85,8.85,0,0,0-2.94-3.71,9.27,9.27,0,0,0-5.14-1.7l-4.5-.28,1-10.18,5.6.27a25.24,25.24,0,0,1,9.78,2.39,17.5,17.5,0,0,1,7.06,6.19,19.52,19.52,0,0,1,2.89,10.42l.1,2.57a31.25,31.25,0,0,1-2.53,14.36,24.3,24.3,0,0,1-8.35,9.87,40.71,40.71,0,0,1-13.44,5.83A91.57,91.57,0,0,1,354.88,109.74Z"/><path class="cls-1" d="M425.92,108.82V73q0-3.59-1.61-5.14a6.26,6.26,0,0,0-4.54-1.56h-17.9V56.42h21.48a18.43,18.43,0,0,1,8.16,1.74,12.73,12.73,0,0,1,5.65,5.51q2.05,3.77,2.06,10v35.15Z"/><path class="cls-1" d="M454.09,109.74l-5-43.41,12.58-5.88,4,37.54a35,35,0,0,0,6.84-1.24,13.39,13.39,0,0,0,4.82-2.48,11.72,11.72,0,0,0,3-3.85,17.24,17.24,0,0,0,1.51-5.28,37.73,37.73,0,0,0,.23-6.88V75.51a12.29,12.29,0,0,0-.87-4.87,7.37,7.37,0,0,0-2.48-3.16,6.35,6.35,0,0,0-3.81-1.15H449l-1.28-9.91h28.17q9.09,0,14,5.14t5.18,14l.09,3q.29,8.53-2.52,14.37a22.94,22.94,0,0,1-8.26,9.4,40.41,40.41,0,0,1-13.17,5.37A87.27,87.27,0,0,1,454.09,109.74Z"/><path class="cls-2" d="M622.88,125.25H531.44a4.43,4.43,0,0,1-4.41-4.42v-67a4.43,4.43,0,0,1,4.41-4.41h91.44a4.08,4.08,0,0,1,3.59,1.28,3.92,3.92,0,0,1,.82,3.13c.51,12.07-.15,13.39-.53,12.64l-58,.28v6.76l58.58.57c.14,29.53.12,44.1,0,46.8h0a7,7,0,0,1-1.1,3.33C625.74,124.69,624.85,125.27,622.88,125.25Z"/><circle class="cls-2" cx="551.17" cy="26.92" r="13.18"/><circle class="cls-2" cx="599.31" cy="21.05" r="19.05"/><path class="cls-2" d="M681.39,129.72l-42.24-21V60.05l42.24-19.72Z"/></g></svg>