<svg xmlns="http://www.w3.org/2000/svg" viewBox="0 0 87.86 106.94"><defs><style>.cls-1{fill:none;stroke-linecap:round;stroke-linejoin:round;stroke-width:3px;}.cls-1,.cls-2{stroke:#fff;}.cls-2{fill:#fff;stroke-miterlimit:10;stroke-width:2.75px;}</style></defs><g id="Layer_2" data-name="Layer 2"><path class="cls-1" d="M84.42,42.23,3.5,42a49,49,0,0,0-2,12.15c-.14,4-.41,18.5,9.88,31.5A43.27,43.27,0,0,0,25.81,97.79H21.34a1.15,1.15,0,0,0-1.16,1.15v5.35a1.15,1.15,0,0,0,1.16,1.15H66.27a1.14,1.14,0,0,0,1.15-1.15V98.94a1.14,1.14,0,0,0-1.15-1.15H61.91c.52-.25.93-.47,1.2-.61a43,43,0,0,0,18-19,49.62,49.62,0,0,0,5.2-22.6A50.14,50.14,0,0,0,84.42,42.23Z"/><line class="cls-1" x1="25.81" y1="97.79" x2="62.58" y2="97.79"/><path class="cls-1" d="M23.42,1.5C22,3.22,20.21,6,20.59,9.19c.55,4.57,5,6.22,5.85,10.84.34,1.92.14,4.91-3,9"/><path class="cls-1" d="M44.07,1.5C42.64,3.22,40.85,6,41.23,9.19c.55,4.57,5,6.22,5.85,10.84.35,1.92.14,4.91-3,9"/><path class="cls-1" d="M64.71,1.5C63.29,3.22,61.5,6,61.88,9.19c.54,4.57,5,6.22,5.85,10.84.34,1.92.14,4.91-3,9"/><ellipse class="cls-2" cx="43.92" cy="42.31" rx="40.5" ry="5.3"/></g></svg>