<svg xmlns="http://www.w3.org/2000/svg" viewBox="0 0 104.31 94.29"><defs><style>.cls-1,.cls-2{fill:none;stroke:#fff;stroke-linecap:round;stroke-linejoin:round;}.cls-1{stroke-width:3px;}.cls-2{stroke-width:3.8px;}</style></defs><g id="Layer_2" data-name="Layer 2"><path class="cls-1" d="M14.78,6.48a9.93,9.93,0,0,0,3.27,3.25C23.56,13,28.27,6.93,36.63,7.44c7.4.45,7.21,4.86,14.28,5,7.48.13,7.74-4.82,15.31-5,8-.17,12.22,5.9,17.72,3.06a10.15,10.15,0,0,0,3.79-3.64"/><path class="cls-1" d="M50.91,12.41a9.78,9.78,0,0,1,1-6.51A9.8,9.8,0,0,1,57.1,1.5"/><path class="cls-1" d="M101.75,53.63c-4.15,20.22-25,39.26-49.69,39.16C25,92.69,4.34,69.53,1.86,50,1.52,47.29.21,37,6.18,27.16c1.78-2.92,6-9.87,14.36-11.87a20.9,20.9,0,0,1,11.29.57,11,11,0,0,0-5.75,2.87c-2.32,2.29-2.84,5.08-3.25,7.47,0,0-.45,2.59.38,11.49a26,26,0,0,1,4.4-11.49,17.45,17.45,0,0,1,6.7-6.32,16.36,16.36,0,0,1,11.11-.95A20.26,20.26,0,0,1,48.48,26a39.43,39.43,0,0,1,.58,6.32q.22,3.69.57,7.66a50.26,50.26,0,0,0,5-14.36,49.31,49.31,0,0,0,.77-6.9,20.1,20.1,0,0,1,13.4,2.49,20.84,20.84,0,0,1,7.42,8.31,32.5,32.5,0,0,1,2.73,6.82,27.18,27.18,0,0,0,.38-9.76c-.46-3.24-1.1-7.69-4.59-10.15a8.69,8.69,0,0,0-2.3-1.15C75.64,15,86,14.51,94,21.46,106.19,32,102.38,50.54,101.75,53.63Z"/><path class="cls-2" d="M88.69,57.62a22.47,22.47,0,0,1-4.09,8.52,22.22,22.22,0,0,1-6,5.37"/><ellipse class="cls-2" cx="72.77" cy="75.25" rx="0.54" ry="0.55"/></g></svg>