<svg xmlns="http://www.w3.org/2000/svg" viewBox="0 0 117.03 87.27"><defs><style>.cls-1{fill:none;stroke:#fff;stroke-linecap:round;stroke-linejoin:round;stroke-width:3px;}</style></defs><g id="Layer_2" data-name="Layer 2"><path class="cls-1" d="M65,11.79a27.11,27.11,0,0,0-6.16-5.52C57.67,5.53,45.65-2,32.36,3.51,21.85,7.89,17.86,17.4,17.11,19.29"/><path class="cls-1" d="M65,11.79a27.19,27.19,0,0,1,6.17-5.52c1-.65,13.11-8.26,26.44-2.76C109.36,8.38,113.12,19.77,114,22.33c5,15-3.32,27.87-4.7,30-2.73,4.23-5.71,6.9-11.2,11.19A283.92,283.92,0,0,1,65,85.77,315.23,315.23,0,0,1,37,67.44c-10.44-7.66-14.38-11.57-17.45-17a41.92,41.92,0,0,1-5.13-18.33"/><path class="cls-1" d="M1.5,25.84H23.92L34.31,11,44.69,51.54Q49,41,53.25,30.4l31.35.05"/></g></svg>