<svg xmlns="http://www.w3.org/2000/svg" viewBox="0 0 85.77 117.76"><defs><style>.cls-1,.cls-2{fill:none;stroke:#fff;stroke-linecap:round;stroke-width:3px;}.cls-1{stroke-linejoin:round;}.cls-2{stroke-miterlimit:10;}</style></defs><g id="Layer_2" data-name="Layer 2"><path class="cls-1" d="M80.83,90.05c-12.87,0-67.76.3-71.1,0h0a6.49,6.49,0,0,0-2.91,0,7.3,7.3,0,0,0-4.49,3.74q.29-44.53.29-89.07V1.84L80.94,1.5a3.31,3.31,0,0,1,3.33,3.26V90.05Z"/><path class="cls-1" d="M15.52,104.34H6.86a6.13,6.13,0,0,1-3.65-1.64c-2.64-2.62-2-7.73.4-10.42A6.73,6.73,0,0,1,8,89.92a5.8,5.8,0,0,1,1.73.13Q9.42,45.94,9.17,1.8"/><path class="cls-1" d="M81.74,90.72a26.23,26.23,0,0,0,0,4.53h0s.3,5.47-.46,7.5a1.22,1.22,0,0,1-.1.23,2.18,2.18,0,0,1-1.85,1.27,26.42,26.42,0,0,1-2.76.17c-2.59.06-4.52,0-5,0-2.09-.11-10.3-.2-33.64-.2"/><line class="cls-1" x1="13.39" y1="97.28" x2="81.81" y2="97.28"/><polyline class="cls-1" points="19.93 97.28 19.93 116.26 26.62 111.03"/><polyline class="cls-1" points="33.59 97.28 33.59 116.26 26.9 111.03"/><path class="cls-2" d="M55.26,28.94c1-.2,1.38.56,4.59,3.18,3,2.44,3.73,2.69,3.77,3.64.06,1.68-2.15,3.39-4.14,3.86a5.49,5.49,0,0,1-2.12.07,2.61,2.61,0,0,1-.2.3L33.59,68.83a2.58,2.58,0,0,1-3.61.42L29.65,69a2.57,2.57,0,0,1-.3-3.62L52.92,36.52l.15-.15a5.62,5.62,0,0,1-.54-2.58C52.59,31.85,53.64,29.26,55.26,28.94Z"/><line class="cls-2" x1="69.14" y1="29.91" x2="63.32" y2="37.03"/><line class="cls-2" x1="59.97" y1="22.41" x2="54.15" y2="29.53"/><line class="cls-2" x1="64.46" y1="26.28" x2="60.17" y2="31.53"/><path class="cls-2" d="M50.14,48.58c2.39,2.65,4.25,4.84,5.51,6.36,4,4.81,3.58,4.62,5.1,6.23,1.09,1.16,2,2.51,3,3.71a3.22,3.22,0,0,1,1,1.78,2.94,2.94,0,0,1-1.31,2.67,3.08,3.08,0,0,1-2.19.42c-1.23-.24-1.91-1.23-2.7-2.28C57.44,66,56.16,64.57,55,63.09l-1.1-1.37L52.46,60c-.69-.8-2.22-2.72-5.72-7.28"/><path class="cls-2" d="M46.1,44.11c-1-1.16-1.8-2.17-2.43-3-2.35-3-4.58-6-4.58-6a9.19,9.19,0,0,0,.37-1.39,10.45,10.45,0,0,0-.2-4.55C38,24.84,33.5,23.17,33.1,23a7.85,7.85,0,0,0-4.62-.39A5.91,5.91,0,0,0,26,23.84a6.47,6.47,0,0,0-2,3.91,8.62,8.62,0,0,0,.16,3.8,9.26,9.26,0,0,0,7,7.1s.28.05,3.4.22h0l.7.9c.72.95,1.82,2.25,2.12,2.61,1,1.21,2,2.46,3,3.69L42.75,49"/></g></svg>