<svg xmlns="http://www.w3.org/2000/svg" viewBox="0 0 78.6 93.57"><defs><style>.cls-1{fill:none;stroke-width:3px;}.cls-1,.cls-2{stroke:#fff;stroke-linecap:round;stroke-linejoin:round;}.cls-2{fill:#fff;stroke-width:2px;}</style></defs><g id="Layer_2" data-name="Layer 2"><path class="cls-1" d="M77.07,18.68A113.77,113.77,0,0,1,58.4,12.3,112.88,112.88,0,0,1,39.3,1.5,115.29,115.29,0,0,1,21,11.9,115.21,115.21,0,0,1,1.53,18.68c0,1.26-.05,3.1,0,5.31.25,10.9,2.05,23.6,5.06,31.85C13.11,73.73,31.05,86.71,39.3,92.07,47.55,86.71,65.49,73.73,72,55.84c3-8.25,4.82-21,5.06-31.85C77.12,21.78,77.1,19.94,77.07,18.68Z"/><polygon class="cls-2" points="26.34 48.09 34.44 57 52.26 39.54 48.76 36.57 34.75 50.94 28.93 44.21 26.34 48.09"/><circle class="cls-1" cx="39.3" cy="46.79" r="21.45"/></g></svg>