<svg xmlns="http://www.w3.org/2000/svg" xmlns:xlink="http://www.w3.org/1999/xlink" viewBox="0 0 1242 2208"><defs><style>.cls-1{fill:#e8e8e8;}.cls-2{fill:#0d635f;}.cls-10,.cls-3,.cls-4,.cls-5,.cls-7,.cls-8{fill:none;}.cls-3,.cls-4,.cls-5,.cls-7,.cls-8,.cls-9{stroke:#fff;}.cls-10,.cls-3,.cls-7{stroke-miterlimit:10;}.cls-10,.cls-3{stroke-width:3px;}.cls-4,.cls-5,.cls-8,.cls-9{stroke-linecap:round;stroke-linejoin:round;}.cls-4{stroke-width:10px;}.cls-5{stroke-width:5px;}.cls-6{fill:#fff;}.cls-7{stroke-width:2.58px;}.cls-8{stroke-width:11.38px;}.cls-9{fill:#2e3192;stroke-width:5.99px;}.cls-10{stroke:#999;}</style></defs><g id="Layer_1" data-name="Layer 1"><rect class="cls-1" width="1242" height="2208"/></g><g id="Layer_2" data-name="Layer 2"><rect class="cls-2" x="0.15" width="1241.7" height="176.92"/><path d="M453.49,362.47V320l-.78-7.6h9.36l.78,7.6v42.51Z"/><path d="M468.31,350.58l-.78-6.37a11.25,11.25,0,0,0,3.77-1,3.42,3.42,0,0,0,1.65-2.05,10.84,10.84,0,0,0,.36-3.51V312.36H493a12.89,12.89,0,0,1,5.75,1.23,9.08,9.08,0,0,1,4,3.9,14.69,14.69,0,0,1,1.47,7.09v24.89h-9.36V324.12a4.84,4.84,0,0,0-1.17-3.64,4.58,4.58,0,0,0-3.25-1.1h-7.67v17a17.26,17.26,0,0,1-1.53,7.93,9.53,9.53,0,0,1-4.71,4.35A26.31,26.31,0,0,1,468.31,350.58Z"/><path d="M511.6,335.82V320l-.78-7.6h9.36L521,320V330.1l-.07,4.1Z"/><path d="M528.43,349.47V320l-.78-7.6H537l.78,7.6v29.51Z"/><path d="M543.31,319.38V302.87h8.45v16.51Zm7.22,30.09,11.63-30.09H543.31v-7h28.28v7.73l-11.7,29.38Z"/><path d="M588.68,319.38V302.87h8.45v16.51Zm7.22,30.09,11.63-30.09H588.68v-7H617v7.73l-11.7,29.38Z"/><path d="M623.59,350.64l-3.45-7.34a26.59,26.59,0,0,0,7.9-3.9,15.3,15.3,0,0,0,4.65-5.59l3.12,4.87a32,32,0,0,1-2.8,5.17,16.53,16.53,0,0,1-3.83,4A20.14,20.14,0,0,1,623.59,350.64ZM635,349.47l-2.54-14.75V323.6a6,6,0,0,0-.71-3.38,3.29,3.29,0,0,0-2.41-1.17l-4.09-.58,1.17-6.89,7.67,1a8.15,8.15,0,0,1,5.85,2.92q1.88,2.47,1.88,7v12.35l2.08,14.56Z"/><path d="M650.56,335.82V320l-.78-7.6h9.36l.78,7.6V330.1l-.06,4.1Z"/><path d="M666.42,349.47l4.49-25-5.2-12.09h9.75l4.35,12.54-4,24.57Zm14.24.07.84-7q4.82,1,7.48-.1a6.71,6.71,0,0,0,3.73-4.19,22.2,22.2,0,0,0,1-7.61,21.57,21.57,0,0,0-.84-6.63,7.32,7.32,0,0,0-2.44-3.7,6.58,6.58,0,0,0-4-1.17,6.84,6.84,0,0,0-3.18.74,6.34,6.34,0,0,0-2.34,2.08,7.45,7.45,0,0,0-1.17,3.29l-2.15-4c.87-3.3,2.29-5.69,4.26-7.19a10.59,10.59,0,0,1,6.53-2.24,15.19,15.19,0,0,1,6.08,1.14,11.23,11.23,0,0,1,4.45,3.48,16.2,16.2,0,0,1,2.76,5.91,32.78,32.78,0,0,1,1,8.32,24.6,24.6,0,0,1-2.51,12,13.92,13.92,0,0,1-7.5,6.7Q687.67,351.16,680.66,349.54Z"/><path d="M722.13,362.47V320l-.78-7.6h9.36l.78,7.6v42.51Z"/><path d="M744.36,326.53a4.92,4.92,0,0,1-4.29-2.12,10.13,10.13,0,0,1-1.5-5.94,14.23,14.23,0,0,1,2.21-7.9,16.21,16.21,0,0,1,6.7-5.62l2,3.9a11.4,11.4,0,0,0-4.29,3.41,8.08,8.08,0,0,0-1.43,4.84l.32,5.4L741,318.34a7.44,7.44,0,0,1,1.56-1,4.14,4.14,0,0,1,1.76-.39,5,5,0,0,1,3.34,1.2,4.13,4.13,0,0,1,1.4,3.29,5.06,5.06,0,0,1-1.33,3.7A4.57,4.57,0,0,1,744.36,326.53Zm14.75,0a5,5,0,0,1-4.29-2.12,10.13,10.13,0,0,1-1.49-5.94,14.15,14.15,0,0,1,2.21-7.9,16.18,16.18,0,0,1,6.69-5.62l2,3.9a11.4,11.4,0,0,0-4.29,3.41,8,8,0,0,0-1.43,4.84l.32,5.4-3.06-4.16a7.26,7.26,0,0,1,1.57-1,4.1,4.1,0,0,1,1.75-.39,5,5,0,0,1,3.35,1.2,4.13,4.13,0,0,1,1.4,3.29,5.06,5.06,0,0,1-1.34,3.7A4.56,4.56,0,0,1,759.11,326.53Z"/><path d="M775.81,350.12l-3.57-30.74,8.9-4.16L784,341.8a24.11,24.11,0,0,0,4.85-.88,9.55,9.55,0,0,0,3.41-1.75,8.24,8.24,0,0,0,2.14-2.73,12.36,12.36,0,0,0,1.08-3.74,27,27,0,0,0,.16-4.87v-1.95a8.72,8.72,0,0,0-.62-3.45,5.27,5.27,0,0,0-1.75-2.24,4.54,4.54,0,0,0-2.7-.81H772.24l-.91-7h19.95q6.44,0,9.92,3.64t3.67,9.88l.06,2.14a21.74,21.74,0,0,1-1.78,10.17,16.26,16.26,0,0,1-5.85,6.67,28.87,28.87,0,0,1-9.33,3.8A62.22,62.22,0,0,1,775.81,350.12Z"/><path d="M826.9,349.47V324.12a5,5,0,0,0-1.13-3.64,4.46,4.46,0,0,0-3.22-1.1H809.88v-7h15.2a13.1,13.1,0,0,1,5.79,1.23,9.12,9.12,0,0,1,4,3.9,14.81,14.81,0,0,1,1.46,7.09v24.89Z"/><path d="M862.26,328.8a5.14,5.14,0,0,1-3.86-1.66,6,6,0,0,1,0-8.15,5.48,5.48,0,0,1,7.8,0,6.22,6.22,0,0,1,0,8.15A5.1,5.1,0,0,1,862.26,328.8Zm0,21.45a5.14,5.14,0,0,1-3.86-1.66,6,6,0,0,1,0-8.15,5.48,5.48,0,0,1,7.8,0,6.22,6.22,0,0,1,0,8.15A5.1,5.1,0,0,1,862.26,350.25Z"/><path d="M873.77,319.38V302.87h8.45v16.51ZM881,349.47l11.64-30.09H873.77v-7H902v7.73l-11.7,29.38Z"/><path d="M913.48,326.53a5,5,0,0,1-4.29-2.12,10.13,10.13,0,0,1-1.49-5.94,14.15,14.15,0,0,1,2.21-7.9A16.18,16.18,0,0,1,916.6,305l2,3.9a11.4,11.4,0,0,0-4.29,3.41,8,8,0,0,0-1.43,4.84l.32,5.4-3.05-4.16a7,7,0,0,1,1.56-1,4.13,4.13,0,0,1,1.75-.39,5,5,0,0,1,3.35,1.2,4.13,4.13,0,0,1,1.4,3.29,5.06,5.06,0,0,1-1.34,3.7A4.54,4.54,0,0,1,913.48,326.53Zm14.76,0a4.92,4.92,0,0,1-4.29-2.12,10.13,10.13,0,0,1-1.5-5.94,14.23,14.23,0,0,1,2.21-7.9,16.21,16.21,0,0,1,6.7-5.62l2,3.9a11.48,11.48,0,0,0-4.29,3.41,8.08,8.08,0,0,0-1.43,4.84l.33,5.4-3.06-4.16a7.44,7.44,0,0,1,1.56-1,4.14,4.14,0,0,1,1.76-.39,5,5,0,0,1,3.34,1.2,4.1,4.1,0,0,1,1.4,3.29,5.06,5.06,0,0,1-1.33,3.7A4.57,4.57,0,0,1,928.24,326.53Z"/><path d="M941.82,335.82V320l-.78-7.6h9.36l.78,7.6V330.1l-.06,4.1Z"/><path d="M961.65,350.12l-4.36-37.76h9.43l3.18,29.44a18.87,18.87,0,0,0,5.92-1.4,10.26,10.26,0,0,0,3.83-2.79,10.46,10.46,0,0,0,2.05-4.06,19.22,19.22,0,0,0,.55-5.27v-2a8.74,8.74,0,0,0-.65-3.38,6.32,6.32,0,0,0-2.08-2.64,6.63,6.63,0,0,0-3.64-1.2l-3.18-.19.71-7.22,4,.2a17.76,17.76,0,0,1,6.92,1.69,12.3,12.3,0,0,1,5,4.38,13.88,13.88,0,0,1,2.05,7.38l.07,1.82a22.13,22.13,0,0,1-1.79,10.17,17.25,17.25,0,0,1-5.92,7,28.7,28.7,0,0,1-9.52,4.13A64.69,64.69,0,0,1,961.65,350.12Z"/><path d="M1023.2,349.47V327a18.28,18.28,0,0,1,.49-4.48,9,9,0,0,1,1.33-3.12h-16.64v-7h30.49v7h-5.07a13.05,13.05,0,0,0-1,3.73,32.62,32.62,0,0,0-.26,3.87v22.49Z"/><path d="M1050.7,326.53a4.92,4.92,0,0,1-4.29-2.12,10.13,10.13,0,0,1-1.5-5.94,14.23,14.23,0,0,1,2.21-7.9,16.21,16.21,0,0,1,6.7-5.62l2,3.9a11.4,11.4,0,0,0-4.29,3.41,8.08,8.08,0,0,0-1.43,4.84l.32,5.4-3-4.16a7.44,7.44,0,0,1,1.56-1,4.14,4.14,0,0,1,1.76-.39,5,5,0,0,1,3.34,1.2,4.13,4.13,0,0,1,1.4,3.29,5.06,5.06,0,0,1-1.33,3.7A4.57,4.57,0,0,1,1050.7,326.53Zm14.75,0a5,5,0,0,1-4.29-2.12,10.13,10.13,0,0,1-1.49-5.94,14.15,14.15,0,0,1,2.21-7.9,16.18,16.18,0,0,1,6.69-5.62l2,3.9a11.56,11.56,0,0,0-4.29,3.41,8.08,8.08,0,0,0-1.42,4.84l.32,5.4-3.06-4.16a7.26,7.26,0,0,1,1.57-1,4.1,4.1,0,0,1,1.75-.39,5,5,0,0,1,3.35,1.2,4.13,4.13,0,0,1,1.4,3.29,5.06,5.06,0,0,1-1.34,3.7A4.56,4.56,0,0,1,1065.45,326.53Z"/><path d="M1078.06,349.47l4.48-25-5.2-12.09h9.75l4.36,12.54-4,24.57Zm14.23.07.85-7q4.81,1,7.47-.1a6.7,6.7,0,0,0,3.74-4.19,22.2,22.2,0,0,0,1-7.61,21.24,21.24,0,0,0-.85-6.63,7.25,7.25,0,0,0-2.43-3.7,6.6,6.6,0,0,0-4-1.17,6.91,6.91,0,0,0-3.19.74,6.5,6.5,0,0,0-2.34,2.08,7.7,7.7,0,0,0-1.17,3.29l-2.14-4c.87-3.3,2.28-5.69,4.26-7.19a10.59,10.59,0,0,1,6.53-2.24,15.19,15.19,0,0,1,6.08,1.14,11.23,11.23,0,0,1,4.45,3.48,16.37,16.37,0,0,1,2.76,5.91,32.81,32.81,0,0,1,.94,8.32,24.61,24.61,0,0,1-2.5,12,13.9,13.9,0,0,1-7.51,6.7Q1099.32,351.16,1092.29,349.54Z"/><path d="M1135.65,349.47V324.12a4.92,4.92,0,0,0-1.14-3.64,4.46,4.46,0,0,0-3.22-1.1h-12.67v-7h15.21a13.13,13.13,0,0,1,5.79,1.23,9.1,9.1,0,0,1,4,3.9,14.69,14.69,0,0,1,1.47,7.09v24.89Z"/><path d="M788.43,406.8a5.14,5.14,0,0,1-3.87-1.66,6,6,0,0,1,0-8.15,5.19,5.19,0,0,1,3.87-1.63,5.14,5.14,0,0,1,3.93,1.63,6.19,6.19,0,0,1,0,8.15A5.09,5.09,0,0,1,788.43,406.8Zm0,21.45a5.14,5.14,0,0,1-3.87-1.66,6,6,0,0,1,0-8.15,5.19,5.19,0,0,1,3.87-1.63,5.14,5.14,0,0,1,3.93,1.63,6.19,6.19,0,0,1,0,8.15A5.09,5.09,0,0,1,788.43,428.25Z"/><path d="M801.88,413.82V398l-.78-7.6h9.36l.78,7.6V408.1l-.06,4.1Z"/><path d="M815.6,428.58l-.78-6.37a11.25,11.25,0,0,0,3.77-1,3.42,3.42,0,0,0,1.65-2.05,10.84,10.84,0,0,0,.36-3.51V390.36h19.7a12.89,12.89,0,0,1,5.75,1.23,9.08,9.08,0,0,1,4,3.9,14.69,14.69,0,0,1,1.47,7.09v24.89h-9.36V402.12a4.84,4.84,0,0,0-1.17-3.64,4.58,4.58,0,0,0-3.25-1.1H830v17a17.26,17.26,0,0,1-1.53,7.93,9.53,9.53,0,0,1-4.71,4.35A26.31,26.31,0,0,1,815.6,428.58Z"/><path d="M856.81,427.47v-7h10.4a7.19,7.19,0,0,0,4.25-1.17,6.39,6.39,0,0,0,2.38-3.25,14.51,14.51,0,0,0,.71-4.68v-4.87a14.2,14.2,0,0,0-.71-4.65,6.56,6.56,0,0,0-2.38-3.25,7.06,7.06,0,0,0-4.25-1.2h-10.4v-7h12.93a14,14,0,0,1,7.9,2.08,12.71,12.71,0,0,1,4.74,5.81A22.25,22.25,0,0,1,884,407v3.83a22.39,22.39,0,0,1-1.6,8.81,12.53,12.53,0,0,1-4.74,5.78,14.19,14.19,0,0,1-7.9,2.05Z"/><path d="M905.29,427.47V402.12a5,5,0,0,0-1.13-3.64,4.46,4.46,0,0,0-3.22-1.1H888.26v-7h15.21a13.1,13.1,0,0,1,5.79,1.23,9.12,9.12,0,0,1,4,3.9,14.81,14.81,0,0,1,1.46,7.09v24.89Z"/><path d="M935.26,427.47V405a18.28,18.28,0,0,1,.49-4.48,9,9,0,0,1,1.33-3.12H920.44v-7h30.48v7h-5.07a13.39,13.39,0,0,0-1,3.73,32.62,32.62,0,0,0-.26,3.87v22.49Z"/><path d="M956.51,427.47V409.73l1.3-4.36h8.13v22.1Zm21.71,0V402.12a5,5,0,0,0-1.13-3.64,4.47,4.47,0,0,0-3.22-1.1h-17v-7h19.5a13.1,13.1,0,0,1,5.79,1.23,9.12,9.12,0,0,1,4,3.9,14.81,14.81,0,0,1,1.46,7.09v24.89Z"/><path d="M1029.57,427.47v-25q0-5.07-4.35-5.07h-18.07v-7h20.6a12.6,12.6,0,0,1,5.85,1.3,9.07,9.07,0,0,1,4,4.06,15.67,15.67,0,0,1,1.43,7.18v24.57Zm-22.42,0V394.58h9.36v32.89Z"/><path d="M1046.28,427.47V398l-.78-7.6h9.36l.78,7.6v29.51Z"/><path d="M1061.1,427.47v-7h26l2.66,7Zm21.64,0-20.93-37.11h9.43l20.93,37.11Zm.59-14.56-5.33-8,5.91-14.56h9.23Z"/><path d="M1099.45,413.82V398l-.78-7.6H1108l.78,7.6V408.1l-.07,4.1Z"/><path d="M1115.76,427.47v-7h13.13a8.63,8.63,0,0,0,3.38-.62,6.25,6.25,0,0,0,2.5-1.82,8.61,8.61,0,0,0,1.56-2.89,12.2,12.2,0,0,0,.56-3.83v-4.81a13.17,13.17,0,0,0-.78-4.65,7.13,7.13,0,0,0-2.41-3.25,6.7,6.7,0,0,0-4.09-1.2h-4.68l-1.17,5.52a4.76,4.76,0,0,0,.39,3.64c.56.83,1.75,1.43,3.57,1.82l-1.49,5.85c-3.17-.09-5.58-.67-7.25-1.75a7.43,7.43,0,0,1-3.25-4.33,14.31,14.31,0,0,1-.23-6.07l2.6-11.7h13.72a13.94,13.94,0,0,1,7.76,2.08,13.4,13.4,0,0,1,4.94,5.78,20.48,20.48,0,0,1,1.73,8.71v3.9a21.38,21.38,0,0,1-1.08,7,14.28,14.28,0,0,1-3.09,5.27,13.2,13.2,0,0,1-4.77,3.25,16.72,16.72,0,0,1-6.21,1.1Z"/><path d="M989.21,484.8a5.14,5.14,0,0,1-3.87-1.66,6,6,0,0,1,0-8.15,5.19,5.19,0,0,1,3.87-1.63,5.14,5.14,0,0,1,3.93,1.63,6.19,6.19,0,0,1,0,8.15A5.09,5.09,0,0,1,989.21,484.8Zm0,21.45a5.14,5.14,0,0,1-3.87-1.66,6,6,0,0,1,0-8.15,5.19,5.19,0,0,1,3.87-1.63,5.14,5.14,0,0,1,3.93,1.63,6.19,6.19,0,0,1,0,8.15A5.09,5.09,0,0,1,989.21,506.25Z"/><path d="M1024.63,505.47v-25q0-5.07-4.35-5.07h-18.07v-7h20.6a12.6,12.6,0,0,1,5.85,1.3,9.13,9.13,0,0,1,4,4.06,15.67,15.67,0,0,1,1.43,7.18v24.57Zm-22.42,0V472.58h9.36v32.89Z"/><path d="M1041.34,505.47V476l-.78-7.6h9.36l.78,7.6v29.51Z"/><path d="M1056.16,506.58l-.78-6.37a11.25,11.25,0,0,0,3.77-1,3.42,3.42,0,0,0,1.65-2.05,11.13,11.13,0,0,0,.36-3.51V468.36h19.7a12.89,12.89,0,0,1,5.75,1.23,9.08,9.08,0,0,1,4,3.9,14.69,14.69,0,0,1,1.47,7.09v24.89h-9.36V480.12a4.84,4.84,0,0,0-1.17-3.64,4.58,4.58,0,0,0-3.25-1.1h-7.67v17a17.26,17.26,0,0,1-1.53,7.93,9.53,9.53,0,0,1-4.71,4.35A26.31,26.31,0,0,1,1056.16,506.58Z"/><path d="M1099.45,491.82V476l-.78-7.6H1108l.78,7.6V486.1l-.07,4.1Z"/><path d="M1115.76,505.47v-7h13.13a8.63,8.63,0,0,0,3.38-.62,6.25,6.25,0,0,0,2.5-1.82,8.61,8.61,0,0,0,1.56-2.89,12.2,12.2,0,0,0,.56-3.83v-4.81a13.17,13.17,0,0,0-.78-4.65,7.13,7.13,0,0,0-2.41-3.25,6.7,6.7,0,0,0-4.09-1.2h-4.68l-1.17,5.52a4.76,4.76,0,0,0,.39,3.64c.56.83,1.75,1.43,3.57,1.82l-1.49,5.85c-3.17-.09-5.58-.67-7.25-1.75a7.43,7.43,0,0,1-3.25-4.33,14.31,14.31,0,0,1-.23-6.07l2.6-11.7h13.72a13.94,13.94,0,0,1,7.76,2.08,13.4,13.4,0,0,1,4.94,5.78,20.48,20.48,0,0,1,1.73,8.71v3.9a21.38,21.38,0,0,1-1.08,7,14.28,14.28,0,0,1-3.09,5.27,13.2,13.2,0,0,1-4.77,3.25,16.72,16.72,0,0,1-6.21,1.1Z"/><path d="M702.24,560.53a5,5,0,0,1-4.29-2.12,10.13,10.13,0,0,1-1.5-5.94,14.23,14.23,0,0,1,2.21-7.9,16.27,16.27,0,0,1,6.7-5.62l2,3.9a11.56,11.56,0,0,0-4.29,3.41,8.08,8.08,0,0,0-1.43,4.84l.33,5.4-3.06-4.16a7.44,7.44,0,0,1,1.56-1,4.18,4.18,0,0,1,1.76-.39,5,5,0,0,1,3.35,1.2,4.13,4.13,0,0,1,1.39,3.29,5.06,5.06,0,0,1-1.33,3.7A4.57,4.57,0,0,1,702.24,560.53Z"/><path d="M730.71,583.47V558.12a4.92,4.92,0,0,0-1.14-3.64,4.46,4.46,0,0,0-3.22-1.1H713.68v-7h15.21a13.09,13.09,0,0,1,5.78,1.23,9.07,9.07,0,0,1,4,3.9,14.69,14.69,0,0,1,1.46,7.09v24.89Z"/><path d="M747.54,583.47V554l-.78-7.6h9.36l.78,7.6v29.51Z"/><path d="M767.37,584.12,763,546.36h9.43l3.18,29.44a18.87,18.87,0,0,0,5.92-1.4,9.9,9.9,0,0,0,5.88-6.85,19.22,19.22,0,0,0,.55-5.27v-2a8.74,8.74,0,0,0-.65-3.38,6.32,6.32,0,0,0-2.08-2.64,6.61,6.61,0,0,0-3.64-1.2l-3.18-.19.71-7.22,4,.2a17.76,17.76,0,0,1,6.92,1.69,12.3,12.3,0,0,1,5,4.38,13.88,13.88,0,0,1,2.05,7.38l.07,1.82a22.13,22.13,0,0,1-1.79,10.17,17.17,17.17,0,0,1-5.92,7,28.7,28.7,0,0,1-9.52,4.13A64.69,64.69,0,0,1,767.37,584.12Z"/><path d="M821.32,562.8a5.14,5.14,0,0,1-3.87-1.66,6,6,0,0,1,0-8.15,5.19,5.19,0,0,1,3.87-1.63,5.14,5.14,0,0,1,3.93,1.63,6.19,6.19,0,0,1,0,8.15A5.09,5.09,0,0,1,821.32,562.8Zm0,21.45a5.14,5.14,0,0,1-3.87-1.66,6,6,0,0,1,0-8.15,5.19,5.19,0,0,1,3.87-1.63,5.14,5.14,0,0,1,3.93,1.63,6.19,6.19,0,0,1,0,8.15A5.09,5.09,0,0,1,821.32,584.25Z"/><path d="M852.39,584.25a20.08,20.08,0,0,1-7.09-1.17,12.87,12.87,0,0,1-5.23-3.57,16.15,16.15,0,0,1-3.22-6.24,33,33,0,0,1-1.1-9.1V541h8.9v24a20.7,20.7,0,0,0,.91,6.83,6.64,6.64,0,0,0,2.67,3.6,7.76,7.76,0,0,0,4.16,1.08,7.91,7.91,0,0,0,4.22-1.08,6.91,6.91,0,0,0,2.73-3.6,19.5,19.5,0,0,0,1-6.83V541h8.58v23.14a33.84,33.84,0,0,1-1.08,9.1,15.71,15.71,0,0,1-3.18,6.24,12.9,12.9,0,0,1-5.2,3.57A19.81,19.81,0,0,1,852.39,584.25Z"/><path d="M874,583.47l11.83-21.84L874.68,541h9.94l4,8.51c.48,1,1,2,1.47,3.06s1,2.29,1.65,3.64H892c.52-1.35,1-2.56,1.43-3.64s.87-2.1,1.3-3.06l3.77-8.51H908l-11.11,21,11.83,21.45h-10l-4.48-9.1c-.56-1.12-1.11-2.24-1.63-3.35s-1.06-2.3-1.62-3.6h-.26q-.78,2-1.53,3.6c-.5,1.11-1,2.23-1.46,3.35l-4.36,9.1Z"/><path d="M925,593.87l-13.78-56.55h5.85l13.78,56.55Z"/><path d="M952.16,584.25a20.08,20.08,0,0,1-7.09-1.17,12.87,12.87,0,0,1-5.23-3.57,16.15,16.15,0,0,1-3.22-6.24,33.39,33.39,0,0,1-1.1-9.1V541h8.9v24a21,21,0,0,0,.91,6.83,6.64,6.64,0,0,0,2.67,3.6,7.76,7.76,0,0,0,4.16,1.08,7.91,7.91,0,0,0,4.22-1.08,6.91,6.91,0,0,0,2.73-3.6,19.5,19.5,0,0,0,1-6.83V541h8.58v23.14a34.28,34.28,0,0,1-1.07,9.1,15.86,15.86,0,0,1-3.19,6.24,12.9,12.9,0,0,1-5.2,3.57A19.81,19.81,0,0,1,952.16,584.25Z"/><path d="M978.74,583.47V541h8.91v42.44Z"/><path d="M1025.41,583.47V558.12a4.92,4.92,0,0,0-1.14-3.64,4.53,4.53,0,0,0-3.28-1.1h-12.74v-7h15.34a13.1,13.1,0,0,1,5.79,1.23,8.88,8.88,0,0,1,4,3.9,15.07,15.07,0,0,1,1.43,7.09v24.89Zm-17.16,0v-7h30.88v7Z"/><path d="M1045,583.47V554l-.78-7.6h9.36l.78,7.6v29.51Z"/><path d="M1059.86,583.47v-7h26l2.67,7Zm21.65,0-20.93-37.11H1070l20.93,37.11Zm.58-14.56-5.33-8,5.92-14.56h9.23Z"/><path d="M1098.21,569.82V554l-.78-7.6h9.36l.78,7.6V564.1l-.06,4.1Z"/><path d="M1112.9,585.94l-1.3-7.28,15.08-2.86a12.43,12.43,0,0,0,5.1-2,8.85,8.85,0,0,0,2.93-3.71,19.35,19.35,0,0,0,1.36-5.65q.36-3.35.39-7.83c0-3,0-6.42,0-10.27h9.29q0,6.36-.23,11.6a58.93,58.93,0,0,1-1.1,9.42,21.94,21.94,0,0,1-2.89,7.35,16.71,16.71,0,0,1-5.6,5.3,28.61,28.61,0,0,1-9.16,3.25Zm9.23-8.32-7.67-31.26h9.36l7.28,31.26Z"/><path d="M843.35,640.8a5.14,5.14,0,0,1-3.87-1.66,6,6,0,0,1,0-8.15,5.19,5.19,0,0,1,3.87-1.63,5.14,5.14,0,0,1,3.93,1.63,6.19,6.19,0,0,1,0,8.15A5.09,5.09,0,0,1,843.35,640.8Zm0,21.45a5.14,5.14,0,0,1-3.87-1.66,6,6,0,0,1,0-8.15,5.19,5.19,0,0,1,3.87-1.63,5.14,5.14,0,0,1,3.93,1.63,6.19,6.19,0,0,1,0,8.15A5.09,5.09,0,0,1,843.35,662.25Z"/><path d="M856.8,674.47V632l-.78-7.6h9.36l.78,7.6v42.51Z"/><path d="M871.56,661.47v-7H882a7.24,7.24,0,0,0,4.26-1.17,6.43,6.43,0,0,0,2.37-3.25,14.51,14.51,0,0,0,.71-4.68v-4.87a14.2,14.2,0,0,0-.71-4.65,6.6,6.6,0,0,0-2.37-3.25,7.11,7.11,0,0,0-4.26-1.2h-10.4v-7h12.93a14,14,0,0,1,7.9,2.08,12.79,12.79,0,0,1,4.75,5.81,22.26,22.26,0,0,1,1.59,8.75v3.83a22.39,22.39,0,0,1-1.59,8.81,12.61,12.61,0,0,1-4.75,5.78,14.17,14.17,0,0,1-7.9,2.05Z"/><path d="M905.16,661.47V632l-.78-7.6h9.36l.78,7.6v29.51Z"/><path d="M920,662.58l-.78-6.37a11.18,11.18,0,0,0,3.77-1,3.43,3.43,0,0,0,1.66-2.05,11.13,11.13,0,0,0,.36-3.51V624.36h19.69a12.86,12.86,0,0,1,5.75,1.23,9.16,9.16,0,0,1,4,3.9,14.81,14.81,0,0,1,1.46,7.09v24.89H946.5V636.12a4.84,4.84,0,0,0-1.17-3.64,4.57,4.57,0,0,0-3.25-1.1h-7.67v17a17.26,17.26,0,0,1-1.53,7.93,9.49,9.49,0,0,1-4.71,4.35A26.17,26.17,0,0,1,920,662.58Z"/><path d="M975.43,661.47V643.73l1.3-4.36h8.12v22.1Zm21.71,0V636.12a4.92,4.92,0,0,0-1.14-3.64,4.46,4.46,0,0,0-3.22-1.1h-17v-7h19.5a13.09,13.09,0,0,1,5.78,1.23,9.12,9.12,0,0,1,4,3.9,14.81,14.81,0,0,1,1.46,7.09v24.89Z"/><path d="M1035.48,661.47v-25q0-5.07-4.35-5.07h-18.07v-7h20.61a12.53,12.53,0,0,1,5.84,1.3,9,9,0,0,1,4,4.06,15.67,15.67,0,0,1,1.43,7.18v24.57Zm-22.42,0V628.58h9.36v32.89Z"/><path d="M1051.21,661.47l4.49-25-5.2-12.09h9.75l4.35,12.54-4,24.57Zm14.24.07.84-7q4.82,1,7.48-.1a6.73,6.73,0,0,0,3.74-4.19,22.22,22.22,0,0,0,1-7.61,21.57,21.57,0,0,0-.84-6.63,7.26,7.26,0,0,0-2.44-3.7,6.56,6.56,0,0,0-4-1.17,6.84,6.84,0,0,0-3.18.74,6.5,6.5,0,0,0-2.34,2.08,7.45,7.45,0,0,0-1.17,3.29l-2.15-4c.87-3.3,2.29-5.69,4.26-7.19a10.59,10.59,0,0,1,6.53-2.24,15.16,15.16,0,0,1,6.08,1.14,11.16,11.16,0,0,1,4.45,3.48,16.21,16.21,0,0,1,2.77,5.91,33.27,33.27,0,0,1,.94,8.32,24.72,24.72,0,0,1-2.5,12,13.94,13.94,0,0,1-7.51,6.7Q1072.47,663.16,1065.45,661.54Z"/><path d="M1093.92,661.47V632l-.78-7.6h9.36l.78,7.6v29.51Z"/><path d="M1109.78,661.47l4.48-25-5.2-12.09h9.75l4.36,12.54-4,24.57Zm14.23.07.85-7c3.2.69,5.7.66,7.47-.1a6.7,6.7,0,0,0,3.74-4.19,22.2,22.2,0,0,0,1-7.61,21.24,21.24,0,0,0-.85-6.63,7.25,7.25,0,0,0-2.43-3.7,6.6,6.6,0,0,0-4-1.17,6.91,6.91,0,0,0-3.19.74,6.5,6.5,0,0,0-2.34,2.08,7.7,7.7,0,0,0-1.17,3.29l-2.14-4c.86-3.3,2.28-5.69,4.26-7.19a10.57,10.57,0,0,1,6.53-2.24,15.23,15.23,0,0,1,6.08,1.14,11.3,11.3,0,0,1,4.45,3.48,16.37,16.37,0,0,1,2.76,5.91,32.81,32.81,0,0,1,.94,8.32,24.61,24.61,0,0,1-2.5,12,13.9,13.9,0,0,1-7.51,6.7Q1131,663.16,1124,661.54Z"/><path d="M899.25,739.47v-7.21h9.1v-25h-7.67v-5.53a31.8,31.8,0,0,0,5.55-1.46,27.45,27.45,0,0,0,4.46-2.18h6.56v34.13h7.87v7.21Z"/><path d="M937.21,740.25a5.14,5.14,0,0,1-3.87-1.66,6,6,0,0,1,0-8.15,5.19,5.19,0,0,1,3.87-1.63,5.14,5.14,0,0,1,3.93,1.63,6.19,6.19,0,0,1,0,8.15A5.09,5.09,0,0,1,937.21,740.25Z"/><path d="M963.73,740.25a12.38,12.38,0,0,1-10.6-5.56q-4-5.55-4-16.08t4-15.9a13.05,13.05,0,0,1,21.12,0q4,5.38,4,15.86t-4,16.08A12.31,12.31,0,0,1,963.73,740.25Zm0-6.89a4.41,4.41,0,0,0,3.08-1.3,9.18,9.18,0,0,0,2.21-4.52,38.34,38.34,0,0,0,.81-8.93,36.81,36.81,0,0,0-.81-8.78,8.64,8.64,0,0,0-2.21-4.35,4.52,4.52,0,0,0-3.08-1.24,4.62,4.62,0,0,0-3.16,1.24,8.48,8.48,0,0,0-2.17,4.35,38.18,38.18,0,0,0-.78,8.78,39.77,39.77,0,0,0,.78,8.93,9,9,0,0,0,2.17,4.52A4.51,4.51,0,0,0,963.73,733.36Z"/><path d="M1003.18,718.8a5.14,5.14,0,0,1-3.87-1.66,6,6,0,0,1,0-8.15,5.19,5.19,0,0,1,3.87-1.63,5.14,5.14,0,0,1,3.93,1.63,6.19,6.19,0,0,1,0,8.15A5.09,5.09,0,0,1,1003.18,718.8Zm0,21.45a5.14,5.14,0,0,1-3.87-1.66,6,6,0,0,1,0-8.15,5.19,5.19,0,0,1,3.87-1.63,5.14,5.14,0,0,1,3.93,1.63,6.19,6.19,0,0,1,0,8.15A5.09,5.09,0,0,1,1003.18,740.25Z"/><path d="M1015.79,739.47V721.73l1.3-4.36h8.12v22.1Zm21.71,0V714.12a4.92,4.92,0,0,0-1.14-3.64,4.46,4.46,0,0,0-3.22-1.1h-17v-7h19.5a13,13,0,0,1,5.78,1.23,9,9,0,0,1,4,3.9,14.69,14.69,0,0,1,1.46,7.09v24.89Z"/><path d="M1057,740.12l-3.58-30.74,8.91-4.16,2.86,26.58a24,24,0,0,0,4.84-.88,9.47,9.47,0,0,0,3.41-1.75,8.27,8.27,0,0,0,2.15-2.73,12.08,12.08,0,0,0,1.07-3.74,26.12,26.12,0,0,0,.16-4.87v-2a8.73,8.73,0,0,0-.61-3.45,5.29,5.29,0,0,0-1.76-2.24,4.54,4.54,0,0,0-2.7-.81h-18.33l-.91-7h20q6.43,0,9.91,3.64t3.67,9.88l.07,2.14a21.74,21.74,0,0,1-1.79,10.17,16.18,16.18,0,0,1-5.85,6.67,28.87,28.87,0,0,1-9.33,3.8A62.21,62.21,0,0,1,1057,740.12Z"/><path d="M1108.09,739.47V714.12a4.92,4.92,0,0,0-1.14-3.64,4.46,4.46,0,0,0-3.22-1.1h-12.67v-7h15.21a13.06,13.06,0,0,1,5.78,1.23,9.07,9.07,0,0,1,4,3.9,14.69,14.69,0,0,1,1.46,7.09v24.89Z"/><path d="M1125.51,740.64l-3.45-7.34a26.59,26.59,0,0,0,7.9-3.9,15.3,15.3,0,0,0,4.65-5.59l3.12,4.87a31.22,31.22,0,0,1-2.8,5.17,16.34,16.34,0,0,1-3.83,4A20.14,20.14,0,0,1,1125.51,740.64Zm11.44-1.17-2.54-14.75V713.6a5.92,5.92,0,0,0-.71-3.38,3.29,3.29,0,0,0-2.41-1.17l-4.09-.58,1.17-6.89,7.67,1a8.15,8.15,0,0,1,5.85,2.92c1.26,1.65,1.88,4,1.88,7v12.35l2.08,14.56Z"/><line class="cls-3" x1="871.14" y1="14.49" x2="871.14" y2="161.7"/><line class="cls-4" x1="1067.9" y1="50.6" x2="1181.23" y2="50.6"/><line class="cls-4" x1="1067.9" y1="129.38" x2="1181.23" y2="129.38"/><line class="cls-4" x1="1067.9" y1="89.99" x2="1181.23" y2="89.99"/><circle class="cls-5" cx="961.24" cy="74.82" r="22.18"/><line class="cls-4" x1="974.11" y1="97.37" x2="987.13" y2="120.19"/><path class="cls-6" d="M536.55,113.17l-.9-7.35a12.84,12.84,0,0,0,4.35-1.16,3.91,3.91,0,0,0,1.91-2.37,12.42,12.42,0,0,0,.42-4V69.07h22.72a14.84,14.84,0,0,1,6.64,1.43,10.44,10.44,0,0,1,4.57,4.5A16.91,16.91,0,0,1,578,83.17V111.9h-10.8V82.65q0-2.93-1.35-4.2a5.25,5.25,0,0,0-3.75-1.28H553.2V96.82a20,20,0,0,1-1.76,9.15,11,11,0,0,1-5.44,5A30.23,30.23,0,0,1,536.55,113.17Z"/><path class="cls-6" d="M586.5,111.9V77.85l-.9-8.78h10.8l.9,8.78V111.9Z"/><path class="cls-6" d="M621.08,111.9V86a21.24,21.24,0,0,1,.56-5.18,10.38,10.38,0,0,1,1.54-3.6H604v-8.1h35.17v8.1H633.3a15.36,15.36,0,0,0-1.12,4.31,35,35,0,0,0-.3,4.47v26Z"/><path class="cls-6" d="M646.58,111.9V77.85l-.91-8.78h10.8l.91,8.78V111.9Z"/><path class="cls-6" d="M705.6,111.9H694.05L680,90.07l-6.68,21.83H663l8.32-25.73,2.33-5.77-7-11.33h10.88l6,9.75L689,87l2-6.83,3-11.1h10.28l-9,27.3Z"/><image width="5227" height="7345" transform="translate(162.92 296.81) scale(0.03)" xlink:href="../../../Users/StandAlone/Documents/%D7%9C%D7%95%D7%98%D7%9D/%D7%A1%D7%9E%D7%9C%D7%99%D7%9D/%D7%91%D7%94%D7%93%206.png"/><image width="1110" height="931" transform="translate(107.79 535.52) scale(0.24)" xlink:href="../../logo%20exports/300ppi/Artboard%2066.png"/><circle class="cls-7" cx="99.22" cy="89.63" r="40.33"/><line class="cls-8" x1="99.22" y1="84.27" x2="99.22" y2="116.07"/><circle class="cls-9" cx="99.22" cy="67.56" r="4.36"/><ellipse class="cls-2" cx="1055.49" cy="1875.04" rx="77.19" ry="77.12"/><path class="cls-6" d="M1099.73,1871.33l-51.18-29.55a4.29,4.29,0,0,0-6.43,3.72v17H1012a2.91,2.91,0,0,0-2.91,2.9v19.19a2.92,2.92,0,0,0,2.91,2.9h30.1v17a4.29,4.29,0,0,0,6.43,3.72l51.18-29.55A4.29,4.29,0,0,0,1099.73,1871.33Z"/><line class="cls-10" x1="1.86" y1="2098.83" x2="1243.86" y2="2098.83"/></g></svg>