<svg xmlns="http://www.w3.org/2000/svg" xmlns:xlink="http://www.w3.org/1999/xlink" viewBox="0 0 1242 2208"><defs><style>.cls-1{fill:#e8e8e8;}.cls-2,.cls-3,.cls-4,.cls-6,.cls-7,.cls-8,.cls-9{fill:none;}.cls-2,.cls-3,.cls-4,.cls-5{stroke:#333;stroke-width:2.58px;}.cls-2,.cls-3,.cls-5,.cls-6,.cls-8,.cls-9{stroke-linecap:round;}.cls-2,.cls-5,.cls-6,.cls-8,.cls-9{stroke-linejoin:round;}.cls-3,.cls-4,.cls-7{stroke-miterlimit:10;}.cls-5{fill:#333;}.cls-6,.cls-8,.cls-9{stroke:#0d635f;}.cls-6{stroke-width:19.58px;}.cls-7{stroke:#999;stroke-width:3px;}.cls-8{stroke-width:5px;}.cls-9{stroke-width:10px;}</style></defs><g id="Layer_1" data-name="Layer 1"><rect class="cls-1" width="1242" height="2208"/></g><g id="Layer_2" data-name="Layer 2"><path class="cls-2" d="M1184,292.66c-11.08,0-58.33.26-61.21,0h0a5.73,5.73,0,0,0-2.51,0,6.19,6.19,0,0,0-3.85,3.22q.24-38.34.25-76.67v-2.51l67.44-.29a2.83,2.83,0,0,1,2.86,2.8v73.41Z"/><path class="cls-2" d="M1127.76,305h-7.45a5.32,5.32,0,0,1-3.14-1.42c-2.28-2.25-1.73-6.65.34-9a5.8,5.8,0,0,1,3.74-2,4.6,4.6,0,0,1,1.49.12q-.23-38-.44-76"/><path class="cls-2" d="M1184.76,293.24a22.84,22.84,0,0,0,0,3.9h0s.27,4.71-.39,6.46l-.08.2a3.63,3.63,0,0,1-.21.33,2.39,2.39,0,0,1-1.39.75,20,20,0,0,1-2.37.16c-2.24,0-3.9,0-4.27,0-1.8-.09-8.86-.17-29-.17"/><line class="cls-2" x1="1125.92" y1="298.89" x2="1184.82" y2="298.89"/><polyline class="cls-2" points="1131.55 298.89 1131.55 315.23 1137.32 310.72"/><polyline class="cls-2" points="1143.32 298.89 1143.32 315.23 1137.55 310.72"/><path class="cls-3" d="M1162,240.06c.82-.16,1.18.49,4,2.74,2.56,2.1,3.21,2.32,3.24,3.14,0,1.44-1.85,2.91-3.57,3.32a4.67,4.67,0,0,1-1.81.06l-.17.25-20.3,24.83a2.22,2.22,0,0,1-3.1.37l-.29-.24a2.22,2.22,0,0,1-.26-3.12L1160,246.59c0-.05.09-.08.13-.13a4.86,4.86,0,0,1-.46-2.22C1159.67,242.57,1160.57,240.34,1162,240.06Z"/><line class="cls-3" x1="1173.92" y1="240.9" x2="1168.9" y2="247.03"/><line class="cls-3" x1="1166.02" y1="234.45" x2="1161.01" y2="240.58"/><line class="cls-3" x1="1169.88" y1="237.78" x2="1166.19" y2="242.29"/><path class="cls-3" d="M1157.56,257c2,2.28,3.66,4.17,4.74,5.47,3.46,4.15,3.08,4,4.39,5.36.94,1,1.7,2.17,2.61,3.2a2.71,2.71,0,0,1,.85,1.53,2.54,2.54,0,0,1-1.12,2.3,2.7,2.7,0,0,1-1.89.36c-1.06-.2-1.65-1.05-2.33-2-1-1.3-2.07-2.5-3.08-3.77-.4-.5-.69-.87-1-1.18l-1.23-1.46c-.59-.69-1.91-2.35-4.92-6.27"/><path class="cls-3" d="M1154.08,253.12c-.84-1-1.54-1.87-2.09-2.56-2-2.55-3.94-5.2-3.94-5.2a8.12,8.12,0,0,0,.31-1.2,8.85,8.85,0,0,0-.17-3.91c-1.1-3.71-5-5.15-5.29-5.27a6.79,6.79,0,0,0-4-.34,5,5,0,0,0-2.16,1A5.5,5.5,0,0,0,1135,239a7.58,7.58,0,0,0,.13,3.27,8,8,0,0,0,6.06,6.11s.25,0,2.93.19h0l.6.78c.63.81,1.57,1.93,1.83,2.24.89,1,1.73,2.12,2.6,3.18l2,2.5"/><rect class="cls-4" x="1105.67" y="606.7" width="92.05" height="59.14" rx="5.25"/><polyline class="cls-2" points="1157.9 606.06 1159.68 600.89 1170.52 600.89 1181.76 600.89 1182.94 606.06"/><polyline class="cls-2" points="1116.51 606.06 1117.4 602.61 1122.82 602.61 1128.43 602.61 1129.03 606.06"/><circle class="cls-2" cx="1160.52" cy="636.27" r="22.42"/><circle class="cls-5" cx="1160.52" cy="636.27" r="16.76"/><line class="cls-2" x1="1106.46" y1="622.28" x2="1142.72" y2="622.28"/><line class="cls-2" x1="1179" y1="622.28" x2="1197.72" y2="622.28"/><path class="cls-2" d="M1200.32,473.46l-1-8.51,2.07-4-5.69-6.94-4.55,1.69-3.81-2.72-.85-4.42-6.06-.09v0l-5.17.09-1,4.08-4.52,3.06-4.54-1.69-5.69,6.94,2.07,4-1,8.51-3.52,3.17,3.63,8.89,4.31-.74,8,4.42,1,5,12.51-.34,1.1-4.68,8.33-4.42,4.31.74,3.62-8.89Z"/><circle class="cls-2" cx="1180.41" cy="471.34" r="7.73"/><line class="cls-2" x1="1153.18" y1="485.56" x2="1108.12" y2="485.56"/><line class="cls-2" x1="1149.89" y1="473.6" x2="1108.12" y2="473.6"/><line class="cls-2" x1="1108.12" y1="485.56" x2="1108.12" y2="448.97"/><path class="cls-2" d="M1107.59,448.45a15.85,15.85,0,0,1-5.3-5.57,19.06,19.06,0,0,1-1.09-16,15.66,15.66,0,0,1,17.25-9.69"/><path class="cls-2" d="M1120.22,425.66c1.24-11.33,10.39-20,21.18-20.65a22.94,22.94,0,0,1,22.49,15c.88-.68,6.52-4.85,13.6-2.79,7.48,2.19,10.32,9,10.86,10.52a18.26,18.26,0,0,1-.88,14"/><line class="cls-2" x1="1125.79" y1="433.07" x2="1125.79" y2="446.99"/><line class="cls-2" x1="1143.46" y1="432.81" x2="1143.46" y2="446.73"/><line class="cls-2" x1="1161.12" y1="433.33" x2="1161.12" y2="447.24"/><path class="cls-2" d="M1163.13,855.33H1104.3a2.84,2.84,0,0,1-2.83-2.84V809.35a2.83,2.83,0,0,1,2.83-2.83h58.83a2.62,2.62,0,0,1,2.32.82,2.52,2.52,0,0,1,.52,2c.33,7.77-.1,8.62-.34,8.14l-37.33.18V822l37.69.36c.09,19,.08,28.38,0,30.11h0a4.45,4.45,0,0,1-.71,2.14A2.53,2.53,0,0,1,1163.13,855.33Z"/><circle class="cls-2" cx="1116.99" cy="792.07" r="8.48"/><circle class="cls-2" cx="1147.97" cy="788.3" r="12.25"/><path class="cls-2" d="M1200.78,858.21l-27.18-13.52v-31.3l27.18-12.69Z"/><line class="cls-6" x1="1097.98" y1="69.74" x2="1157.68" y2="124.12"/><line class="cls-6" x1="1157.68" y1="69.74" x2="1097.98" y2="124.12"/><line class="cls-7" x1="-0.04" y1="176.92" x2="1241.96" y2="176.92"/><line class="cls-7" x1="10" y1="359.03" x2="1252" y2="359.03"/><line class="cls-7" x1="10" y1="543.66" x2="1252" y2="543.66"/><line class="cls-7" x1="10" y1="728.3" x2="1252" y2="728.3"/><line class="cls-7" x1="10" y1="912.94" x2="1252" y2="912.94"/><line class="cls-7" x1="864.26" y1="17.32" x2="864.26" y2="164.52"/><circle class="cls-8" cx="963.16" cy="85.59" r="22.18"/><line class="cls-9" x1="976.03" y1="108.15" x2="989.05" y2="130.97"/><path d="M706.05,287.76v-40h10.08v40Zm2.1,0V280.2h28.49l-.21,7.56Zm22,0v-27.3a5.33,5.33,0,0,0-1.22-3.92,4.79,4.79,0,0,0-3.47-1.19h-13v-7.56h15.75a14.12,14.12,0,0,1,6.23,1.33,9.76,9.76,0,0,1,4.31,4.2,15.89,15.89,0,0,1,1.57,7.63v26.81Z"/><path d="M748.05,273.06V256l-.84-8.19h10.08l.84,8.19V266.9l-.07,4.41Z"/><path d="M764.64,287.76V280.2h10.22V260c0-1.82-.34-3.05-1-3.71a4.79,4.79,0,0,0-2.84-1.19l-4.9-.7,1.26-7.42,8.75,1.12a9.14,9.14,0,0,1,6.58,3.68,13.22,13.22,0,0,1,2.24,7.94v28.07Z"/><path d="M792.85,287.76V256l-.84-8.19h10.08l.84,8.19v31.78Z"/><path d="M808.74,287.76V280.2h11.2a7.78,7.78,0,0,0,4.59-1.26,6.83,6.83,0,0,0,2.55-3.5,15.51,15.51,0,0,0,.77-5v-5.25a15.22,15.22,0,0,0-.77-5,7,7,0,0,0-2.55-3.5,7.65,7.65,0,0,0-4.59-1.3h-11.2v-7.56h13.93a15.18,15.18,0,0,1,8.51,2.24,13.88,13.88,0,0,1,5.11,6.27,23.91,23.91,0,0,1,1.71,9.41v4.13a24.15,24.15,0,0,1-1.71,9.49,13.61,13.61,0,0,1-5.11,6.23,15.34,15.34,0,0,1-8.51,2.2Z"/><path d="M842.76,289l-.84-6.86A11.83,11.83,0,0,0,846,281a3.69,3.69,0,0,0,1.79-2.21,11.85,11.85,0,0,0,.38-3.78V247.79h21.21a13.88,13.88,0,0,1,6.19,1.33,9.79,9.79,0,0,1,4.28,4.2A15.89,15.89,0,0,1,881.4,261v26.81H871.32v-27.3a5.21,5.21,0,0,0-1.26-3.92,4.91,4.91,0,0,0-3.5-1.19H858.3v18.34a18.66,18.66,0,0,1-1.64,8.54,10.25,10.25,0,0,1-5.08,4.69A27.72,27.72,0,0,1,842.76,289Z"/><path d="M888.33,287.76l4.83-26.95-5.6-13h10.5l4.69,13.51-4.34,26.46Zm15.33.07.91-7.56c3.45.75,6.14.72,8-.1a7.22,7.22,0,0,0,4-4.52,23.82,23.82,0,0,0,1.09-8.19,23,23,0,0,0-.91-7.14,7.82,7.82,0,0,0-2.63-4,7,7,0,0,0-4.3-1.26,7.26,7.26,0,0,0-3.43.81,6.8,6.8,0,0,0-2.52,2.24,8.15,8.15,0,0,0-1.26,3.53l-2.31-4.34q1.39-5.31,4.58-7.73a11.4,11.4,0,0,1,7-2.42,16.3,16.3,0,0,1,6.54,1.23,12.12,12.12,0,0,1,4.8,3.74,17.42,17.42,0,0,1,3,6.37,35.24,35.24,0,0,1,1,9,26.45,26.45,0,0,1-2.7,12.88,15,15,0,0,1-8.08,7.21Q911.22,289.59,903.66,287.83Z"/><path d="M964.35,287.76v-27.3a5.29,5.29,0,0,0-1.23-3.92,4.76,4.76,0,0,0-3.46-1.19H946v-7.56h16.38a14.15,14.15,0,0,1,6.23,1.33,9.68,9.68,0,0,1,4.3,4.2A15.89,15.89,0,0,1,974.5,261v26.81Z"/><path d="M981.92,287.76V280.2h14.14a9.56,9.56,0,0,0,3.64-.66,6.87,6.87,0,0,0,2.69-2,9,9,0,0,0,1.68-3.12,13.15,13.15,0,0,0,.6-4.13v-5.18a14,14,0,0,0-.84-5,7.56,7.56,0,0,0-2.59-3.5,7.25,7.25,0,0,0-4.41-1.3h-5l-1.26,6a5.15,5.15,0,0,0,.42,3.92c.6.89,1.89,1.54,3.85,2l-1.61,6.3q-5.12-.14-7.81-1.89a8,8,0,0,1-3.5-4.65,15.57,15.57,0,0,1-.24-6.55l2.8-12.6h14.77a15.1,15.1,0,0,1,8.36,2.24,14.5,14.5,0,0,1,5.32,6.23,22,22,0,0,1,1.86,9.38v4.2a23.17,23.17,0,0,1-1.16,7.56,15.6,15.6,0,0,1-3.32,5.67,14.16,14.16,0,0,1-5.15,3.5,17.71,17.71,0,0,1-6.68,1.19Z"/><path d="M1024.83,288.46,1021,255.35l9.59-4.48,3.08,28.63a26.64,26.64,0,0,0,5.21-.94,10.24,10.24,0,0,0,3.68-1.89,8.93,8.93,0,0,0,2.31-2.94,13.17,13.17,0,0,0,1.15-4,29.23,29.23,0,0,0,.18-5.25v-2.1a9.25,9.25,0,0,0-.67-3.71,5.58,5.58,0,0,0-1.89-2.41,4.86,4.86,0,0,0-2.9-.88H1021l-1-7.56h21.49q6.93,0,10.67,3.92t4,10.64l.07,2.31a23.33,23.33,0,0,1-1.93,11,17.45,17.45,0,0,1-6.3,7.17,30.86,30.86,0,0,1-10,4.1A66.68,66.68,0,0,1,1024.83,288.46Z"/><path d="M753.87,474.56V450.34a20,20,0,0,1,.52-4.83,9.71,9.71,0,0,1,1.44-3.36H737.91v-7.56h32.83v7.56h-5.46a13.9,13.9,0,0,0-1,4,33.5,33.5,0,0,0-.28,4.16v24.22Z"/><path d="M777.67,474.56V442.78l-.84-8.19h10.08l.84,8.19v31.78Z"/><path d="M794.74,474.56l4.83-26.95-5.6-13h10.5l4.69,13.51-4.34,26.46Zm15.33.07.91-7.56c3.46.75,6.14.71,8-.1a7.23,7.23,0,0,0,4-4.52,23.84,23.84,0,0,0,1.08-8.19,23,23,0,0,0-.91-7.14,7.81,7.81,0,0,0-2.62-4,7.08,7.08,0,0,0-4.31-1.26,7.26,7.26,0,0,0-3.43.81,6.86,6.86,0,0,0-2.52,2.24,8.1,8.1,0,0,0-1.26,3.53l-2.31-4.34q1.41-5.33,4.59-7.73a11.37,11.37,0,0,1,7-2.42,16.32,16.32,0,0,1,6.55,1.23,11.93,11.93,0,0,1,4.79,3.74,17.52,17.52,0,0,1,3,6.37,35.21,35.21,0,0,1,1,9A26.59,26.59,0,0,1,831,467.14a15,15,0,0,1-8.09,7.21Q817.64,476.38,810.07,474.63Z"/><path d="M840.73,459.86V442.78l-.84-8.19H850l.84,8.19V453.7l-.07,4.41Z"/><path d="M856.76,442.15V424.37h9.1v17.78Zm7.77,32.41,12.53-32.41h-20.3v-7.56h30.45v8.33l-12.6,31.64Z"/><path d="M907.72,459.86V442.78l-.84-8.19H917l.84,8.19V453.7l-.07,4.41Z"/><path d="M941.88,474.56v-27.3a5.32,5.32,0,0,0-1.22-3.92,4.81,4.81,0,0,0-3.47-1.19H923.54v-7.56h16.38a14,14,0,0,1,6.23,1.33,9.76,9.76,0,0,1,4.31,4.2,15.87,15.87,0,0,1,1.57,7.63v26.81Z"/><path d="M959,474.56l4.83-26.95-5.6-13h10.5l4.69,13.51L969,474.56Zm15.33.07.91-7.56c3.45.75,6.14.71,8-.1a7.29,7.29,0,0,0,4-4.52,24.09,24.09,0,0,0,1.08-8.19,23,23,0,0,0-.91-7.14,7.88,7.88,0,0,0-2.62-4,7.1,7.1,0,0,0-4.31-1.26,7.26,7.26,0,0,0-3.43.81,6.71,6.71,0,0,0-2.52,2.24,8.1,8.1,0,0,0-1.26,3.53L971,444.11q1.39-5.33,4.58-7.73a11.4,11.4,0,0,1,7-2.42,16.35,16.35,0,0,1,6.55,1.23,12,12,0,0,1,4.79,3.74,17.52,17.52,0,0,1,3,6.37,35.67,35.67,0,0,1,1,9,26.47,26.47,0,0,1-2.7,12.88,15,15,0,0,1-8.08,7.21Q981.85,476.38,974.29,474.63Z"/><path d="M1005,474.56V442.78l-.84-8.19h10.08l.84,8.19v31.78Z"/><path d="M1046.74,474.56V447.61q0-5.46-4.69-5.46h-19.46v-7.56h22.19a13.66,13.66,0,0,1,6.3,1.4,9.79,9.79,0,0,1,4.27,4.38,16.76,16.76,0,0,1,1.54,7.73v26.46Zm-24.15,0V439.14h10.08v35.42Z"/><path d="M866.61,659.6l-.84-6.86a11.83,11.83,0,0,0,4.06-1.08,3.69,3.69,0,0,0,1.79-2.21,11.85,11.85,0,0,0,.38-3.78V618.44h21.21a13.82,13.82,0,0,1,6.2,1.33,9.82,9.82,0,0,1,4.27,4.2,15.87,15.87,0,0,1,1.57,7.63v26.81H895.17v-27.3a5.2,5.2,0,0,0-1.26-3.92,4.91,4.91,0,0,0-3.5-1.19h-8.26v18.34a18.69,18.69,0,0,1-1.64,8.54,10.3,10.3,0,0,1-5.08,4.69A28,28,0,0,1,866.61,659.6Z"/><path d="M913.23,658.41V626.63l-.84-8.19h10.08l.84,8.19v31.78Z"/><path d="M929.82,658.41v-7.56H940V630.62c0-1.82-.34-3.06-1-3.71a4.73,4.73,0,0,0-2.83-1.19l-4.9-.7,1.26-7.42,8.75,1.12a9.12,9.12,0,0,1,6.58,3.68,13.27,13.27,0,0,1,2.24,7.94v28.07Z"/><path d="M958,658.41V626.63l-.84-8.19h10.08l.84,8.19v31.78Z"/><path d="M975.11,658.41l4.83-26.95-5.6-13h10.5L989.53,632l-4.34,26.46Zm15.33.07.91-7.56c3.45.75,6.13.71,8-.1a7.24,7.24,0,0,0,4-4.52,24.06,24.06,0,0,0,1.09-8.19,23.31,23.31,0,0,0-.91-7.14,7.82,7.82,0,0,0-2.63-4,7.07,7.07,0,0,0-4.3-1.26,7.23,7.23,0,0,0-3.43.81,6.71,6.71,0,0,0-2.52,2.24,7.85,7.85,0,0,0-1.26,3.53L987.15,628q1.4-5.33,4.58-7.73a11.4,11.4,0,0,1,7-2.42,16.3,16.3,0,0,1,6.54,1.23,12,12,0,0,1,4.8,3.74,17.51,17.51,0,0,1,3,6.37,35.18,35.18,0,0,1,1,9c0,5.13-.85,9.43-2.7,12.88a15,15,0,0,1-8.08,7.21Q998,660.22,990.44,658.48Z"/><path d="M1018.93,659.6l-.84-6.86a11.83,11.83,0,0,0,4.06-1.08,3.68,3.68,0,0,0,1.78-2.21,11.82,11.82,0,0,0,.39-3.78V618.44h21.21a13.75,13.75,0,0,1,6.19,1.33A9.77,9.77,0,0,1,1056,624a15.86,15.86,0,0,1,1.58,7.63v26.81h-10.08v-27.3a5.2,5.2,0,0,0-1.26-3.92,4.91,4.91,0,0,0-3.5-1.19h-8.26v18.34a18.55,18.55,0,0,1-1.65,8.54,10.27,10.27,0,0,1-5.07,4.69A28,28,0,0,1,1018.93,659.6Z"/><path d="M683.65,844.37V825.26l1.4-4.69h8.75v23.8Zm23.38,0v-27.3a5.32,5.32,0,0,0-1.22-3.92,4.79,4.79,0,0,0-3.47-1.19H684.07V804.4h21a14,14,0,0,1,6.23,1.33,9.76,9.76,0,0,1,4.31,4.2,15.87,15.87,0,0,1,1.57,7.63v26.81Z"/><path d="M722.43,844.37v-7.56h11.2a7.78,7.78,0,0,0,4.59-1.26,6.88,6.88,0,0,0,2.55-3.5,15.24,15.24,0,0,0,.77-5v-5.25a15,15,0,0,0-.77-5,7.09,7.09,0,0,0-2.55-3.5,7.65,7.65,0,0,0-4.59-1.29h-11.2V804.4h13.93a15.18,15.18,0,0,1,8.51,2.24A13.8,13.8,0,0,1,750,812.9a24,24,0,0,1,1.71,9.42v4.13a24.1,24.1,0,0,1-1.71,9.48,13.56,13.56,0,0,1-5.11,6.23,15.34,15.34,0,0,1-8.51,2.21Z"/><path d="M774.65,844.37v-27.3a5.32,5.32,0,0,0-1.22-3.92A4.79,4.79,0,0,0,770,812H756.31V804.4h16.38a14,14,0,0,1,6.23,1.33,9.76,9.76,0,0,1,4.31,4.2,15.87,15.87,0,0,1,1.57,7.63v26.81Z"/><path d="M806.92,844.37V820.15a20,20,0,0,1,.53-4.83,9.71,9.71,0,0,1,1.43-3.36H791V804.4h32.83V812h-5.46a14.59,14.59,0,0,0-1.05,4,33.77,33.77,0,0,0-.28,4.17v24.22Z"/><path d="M829.81,844.37V825.26l1.4-4.69H840v23.8Zm23.38,0v-27.3a5.32,5.32,0,0,0-1.22-3.92A4.81,4.81,0,0,0,848.5,812H830.23V804.4h21a14,14,0,0,1,6.23,1.33,9.76,9.76,0,0,1,4.31,4.2,15.87,15.87,0,0,1,1.57,7.63v26.81Z"/><path d="M884.83,829.67V812.59L884,804.4h10.08l.84,8.19v10.92l-.07,4.41Z"/><path d="M901.42,844.37v-7.56h10.22V816.58c0-1.82-.34-3.06-1-3.71a4.73,4.73,0,0,0-2.83-1.19l-4.9-.7,1.26-7.42,8.75,1.12a9.13,9.13,0,0,1,6.58,3.67,13.32,13.32,0,0,1,2.24,7.95v28.07Z"/><path d="M929.63,844.37V812.59l-.84-8.19h10.08l.84,8.19v31.78Z"/><path d="M951,845.07l-4.69-40.67h10.15l3.43,31.71a20.21,20.21,0,0,0,6.37-1.51,11.2,11.2,0,0,0,4.13-3,11.07,11.07,0,0,0,2.2-4.37,20.44,20.44,0,0,0,.6-5.67v-2.17a9.3,9.3,0,0,0-.7-3.64,6.84,6.84,0,0,0-2.24-2.84,7,7,0,0,0-3.92-1.29l-3.43-.21.77-7.77,4.27.21a19.18,19.18,0,0,1,7.45,1.82,13.28,13.28,0,0,1,5.39,4.72,14.88,14.88,0,0,1,2.21,8l.07,2a23.73,23.73,0,0,1-1.93,11,18.48,18.48,0,0,1-6.37,7.53,30.91,30.91,0,0,1-10.25,4.44A69.16,69.16,0,0,1,951,845.07Z"/><path d="M1005.16,844.37v-27.3a5.28,5.28,0,0,0-1.23-3.92,4.76,4.76,0,0,0-3.46-1.19H986.82V804.4h16.38a14,14,0,0,1,6.23,1.33,9.73,9.73,0,0,1,4.3,4.2,15.86,15.86,0,0,1,1.58,7.63v26.81Z"/><path d="M1026.65,845.07,1022.8,812l9.59-4.48,3.08,28.63a26.59,26.59,0,0,0,5.21-1,10.24,10.24,0,0,0,3.68-1.89,8.73,8.73,0,0,0,2.31-2.94,13.1,13.1,0,0,0,1.15-4,29.23,29.23,0,0,0,.18-5.25V819a9.21,9.21,0,0,0-.67-3.71,5.61,5.61,0,0,0-1.89-2.42,4.86,4.86,0,0,0-2.9-.87H1022.8l-1-7.56h21.49q6.93,0,10.67,3.92t4,10.64l.07,2.31a23.29,23.29,0,0,1-1.93,11,17.41,17.41,0,0,1-6.3,7.18,30.85,30.85,0,0,1-10,4.09A66.65,66.65,0,0,1,1026.65,845.07Z"/><path class="cls-9" d="M104.37,271.92,135,299.34"/><path class="cls-9" d="M135,244.49l-30.61,27.43"/><path class="cls-9" d="M107.89,454.32l30.61,27.42"/><path class="cls-9" d="M138.5,426.89l-30.61,27.43"/><path class="cls-9" d="M100.85,636.72l30.61,27.42"/><path class="cls-9" d="M131.46,609.29l-30.61,27.43"/><path class="cls-9" d="M110.4,819.12,141,846.54"/><path class="cls-9" d="M141,791.69,110.4,819.12"/><image width="5227" height="7345" transform="translate(46.47 40.58) scale(0.01)" xlink:href="../../../Users/StandAlone/Documents/%D7%9C%D7%95%D7%98%D7%9D/%D7%A1%D7%9E%D7%9C%D7%99%D7%9D/%D7%91%D7%94%D7%93%206.png"/><image width="330" height="176" transform="translate(147.57 59.66) scale(0.41)" xlink:href="../../logo%20exports/100ppi/Artboard%2064.png"/><line class="cls-7" x1="0.97" y1="2098.83" x2="1242.97" y2="2098.83"/></g></svg>