<svg xmlns="http://www.w3.org/2000/svg" xmlns:xlink="http://www.w3.org/1999/xlink" viewBox="0 0 1242 2208"><defs><style>.cls-1{fill:#e8e8e8;}.cls-10,.cls-2,.cls-7,.cls-8,.cls-9{fill:none;}.cls-2{stroke:#999;}.cls-2,.cls-7{stroke-miterlimit:10;}.cls-10,.cls-2,.cls-7{stroke-width:3px;}.cls-3{opacity:0.5;}.cls-4{fill:#fff;}.cls-5,.cls-6{fill:#0d635f;}.cls-5{stroke:#0d635f;stroke-width:4.04px;}.cls-10,.cls-5,.cls-8,.cls-9{stroke-linecap:round;stroke-linejoin:round;}.cls-10,.cls-7,.cls-8,.cls-9{stroke:#fff;}.cls-8{stroke-width:10px;}.cls-9{stroke-width:5px;}</style></defs><g id="Layer_1" data-name="Layer 1"><rect class="cls-1" width="1242" height="2208"/></g><g id="Layer_2" data-name="Layer 2"><image width="1536" height="1050" transform="translate(73.34 267.1) scale(0.71 0.71)" xlink:href="../../%D7%A4%D7%95%D7%A7%D7%90%D7%A6%D7%94%20%D7%AA%D7%9E%D7%95%D7%A0%D7%94.png"/><line class="cls-2" y1="1414.3" x2="1242" y2="1414.3"/><path d="M644,1157.82l-.9-7.35a12.61,12.61,0,0,0,4.35-1.16,3.92,3.92,0,0,0,1.91-2.36,12.55,12.55,0,0,0,.41-4v-29.18h22.73a14.84,14.84,0,0,1,6.64,1.43,10.44,10.44,0,0,1,4.57,4.5,16.91,16.91,0,0,1,1.69,8.17v28.73h-10.8V1127.3q0-2.92-1.35-4.2a5.25,5.25,0,0,0-3.75-1.28h-8.85v19.65a19.93,19.93,0,0,1-1.76,9.15,11,11,0,0,1-5.44,5A30,30,0,0,1,644,1157.82Z"/><path d="M694,1140.8v-18.3l-.9-8.78h10.8l.9,8.78v11.7l-.08,4.72Z"/><path d="M712,1171.55v-35.93l1.5-5.17h9.38v41.1Zm16-14.93-.83-8.1a14.08,14.08,0,0,0,4.28-1,8.72,8.72,0,0,0,3.22-2.32,10.72,10.72,0,0,0,2.1-4.09,28.58,28.58,0,0,0,1-6.22l1-13.06h-26.1v-8.1h37.73l-.38,7-.82,11.32a42.44,42.44,0,0,1-1.46,9.53,25,25,0,0,1-3.64,7.8,16.51,16.51,0,0,1-6.34,5.29A22.9,22.9,0,0,1,728,1156.62Z"/><path d="M755.38,1121.82v-19h9.75v19Zm8.33,34.73,13.42-34.73H755.38v-8.1H788v8.93l-13.5,33.9Z"/><path d="M798.43,1157.3l-5-43.58h10.87l3.68,34a21.84,21.84,0,0,0,6.82-1.61,12,12,0,0,0,4.43-3.23,12.22,12.22,0,0,0,2.36-4.69,22.41,22.41,0,0,0,.64-6.07v-2.33a10,10,0,0,0-.75-3.89,7.23,7.23,0,0,0-2.4-3,7.57,7.57,0,0,0-4.2-1.39l-3.68-.23.83-8.32,4.57.22a20.57,20.57,0,0,1,8,2,14.26,14.26,0,0,1,5.77,5.07,15.91,15.91,0,0,1,2.37,8.51l.07,2.1a25.66,25.66,0,0,1-2.06,11.74,19.93,19.93,0,0,1-6.83,8.06,33,33,0,0,1-11,4.76A73.79,73.79,0,0,1,798.43,1157.3Z"/><path d="M839.3,1140.8v-18.3l-.9-8.78h10.81l.9,8.78v11.7l-.08,4.72Z"/><path d="M898.33,1156.55H886.78l-14.1-21.83L866,1156.55H855.73l8.32-25.73,2.33-5.77-7-11.33h10.88l6,9.75,5.4,8.18,2-6.83,3-11.1H897l-9,27.3Z"/><path d="M919,1156.55v-20.48l1.5-5h9.37v25.5Zm25.05,0V1127.3a5.69,5.69,0,0,0-1.31-4.2,5.14,5.14,0,0,0-3.72-1.28H919.48v-8.1H942a15,15,0,0,1,6.67,1.43,10.44,10.44,0,0,1,4.62,4.5,17,17,0,0,1,1.68,8.17v28.73Z"/><path d="M969.2,1130.07a5.7,5.7,0,0,1-5-2.43,11.79,11.79,0,0,1-1.72-6.87,16.39,16.39,0,0,1,2.55-9.11,18.89,18.89,0,0,1,7.72-6.49l2.33,4.5a13.39,13.39,0,0,0-5,3.94,9.32,9.32,0,0,0-1.65,5.59l.37,6.22-3.52-4.8a8.35,8.35,0,0,1,1.8-1.12,4.76,4.76,0,0,1,2-.45,5.73,5.73,0,0,1,3.87,1.39,4.73,4.73,0,0,1,1.61,3.78,5.89,5.89,0,0,1-1.54,4.28A5.26,5.26,0,0,1,969.2,1130.07Z"/><path d="M982.55,1156.55v-8.1h30l3.08,8.1Zm25,0-24.15-42.83h10.87l24.15,42.83Zm.67-16.8-6.15-9.23,6.83-16.8h10.65Z"/><path d="M1066.4,1156.55h-11.55l-14.1-21.83-6.67,21.83H1023.8l8.33-25.73,2.32-5.77-7-11.33h10.87l6,9.75,5.4,8.18,2-6.83,3-11.1h10.27l-9,27.3Z"/><path d="M1071.73,1171.55v-35.93l1.5-5.17h9.37v41.1Zm16-14.93-.82-8.1a14.08,14.08,0,0,0,4.27-1,8.75,8.75,0,0,0,3.23-2.32,10.86,10.86,0,0,0,2.1-4.09,29.25,29.25,0,0,0,1-6.22l1-13.06h-26.1v-8.1h37.72l-.37,7-.83,11.32a42.44,42.44,0,0,1-1.46,9.53,25,25,0,0,1-3.64,7.8,16.44,16.44,0,0,1-6.34,5.29A22.87,22.87,0,0,1,1087.7,1156.62Z"/><path d="M1117.33,1156.55v-34l-.9-8.78h10.8l.89,8.78v34Z"/><path d="M1136.15,1156.55v-8.1h15.15a10.23,10.23,0,0,0,3.9-.71,7.53,7.53,0,0,0,2.89-2.1,10.18,10.18,0,0,0,1.8-3.34,14.38,14.38,0,0,0,.63-4.42v-5.56a15,15,0,0,0-.9-5.36,8.19,8.19,0,0,0-2.77-3.75,7.78,7.78,0,0,0-4.73-1.39h-5.4l-1.34,6.38a5.52,5.52,0,0,0,.44,4.2q1,1.42,4.13,2.1l-1.73,6.75c-3.65-.1-6.43-.78-8.36-2a8.57,8.57,0,0,1-3.75-5,16.78,16.78,0,0,1-.26-7l3-13.5h15.82a16.27,16.27,0,0,1,9,2.4,15.62,15.62,0,0,1,5.7,6.68,23.71,23.71,0,0,1,2,10v4.5a25,25,0,0,1-1.23,8.1,16.61,16.61,0,0,1-3.57,6.07,15.18,15.18,0,0,1-5.51,3.75,19.11,19.11,0,0,1-7.16,1.28Z"/><path d="M146.47,1268.14v-23.48h3.86v23.48Zm.93,0v-3H164l-.25,3Zm14,0v-15.79c0-1.74-.37-2.95-1.11-3.64a4.34,4.34,0,0,0-3-1h-8.45v-3h9.37a8.28,8.28,0,0,1,3.69.78,5.5,5.5,0,0,1,2.5,2.5,9.74,9.74,0,0,1,.91,4.57v15.63Z"/><path d="M169.44,1269.44l-.54-3.07,8-1.51a11.69,11.69,0,0,0,3.88-1.38,6.36,6.36,0,0,0,2.31-2.44,11.68,11.68,0,0,0,1.18-3.74,38.76,38.76,0,0,0,.42-5.35q.06-3.14.06-7.29h3.87q0,4.46-.17,7.92a35.69,35.69,0,0,1-.76,6.07,12.83,12.83,0,0,1-1.85,4.45,9.82,9.82,0,0,1-3.42,3,18.41,18.41,0,0,1-5.48,1.83Zm6.81-4.16-5.38-20.62h3.87l5.25,20.62Z"/><path d="M202,1268.14v-23.48h3.86v23.48Zm.92,0v-3h16.59l-.25,3Zm14,0v-15.79c0-1.74-.37-2.95-1.12-3.64a4.32,4.32,0,0,0-3-1h-8.44v-3h9.36a8.32,8.32,0,0,1,3.7.78,5.55,5.55,0,0,1,2.5,2.5,9.87,9.87,0,0,1,.9,4.57v15.63Z"/><path d="M226.65,1259.32v-9.75l-.55-4.91H230l.55,4.91v6.35l0,2.64Z"/><path d="M236.39,1259.32v-9.75l-.55-4.91h3.87l.54,4.91v6.35l0,2.64Z"/><path d="M243.7,1268.77l-.38-2.73a6.1,6.1,0,0,0,2.6-.74,2.92,2.92,0,0,0,1.28-1.59,7.81,7.81,0,0,0,.36-2.54v-16.51h10.8a8.28,8.28,0,0,1,3.69.78,5.5,5.5,0,0,1,2.5,2.5,9.87,9.87,0,0,1,.9,4.57v15.63h-3.86v-15.79c0-1.74-.37-2.95-1.11-3.64a4.36,4.36,0,0,0-3.05-1h-6v13.07a10,10,0,0,1-.82,4.32,5.58,5.58,0,0,1-2.52,2.56A12.05,12.05,0,0,1,243.7,1268.77Z"/><path d="M281.46,1268.14v-15.79c0-1.74-.38-2.95-1.14-3.64a4.34,4.34,0,0,0-3-1h-7.6v-3h8.52a8.36,8.36,0,0,1,3.7.78,5.6,5.6,0,0,1,2.5,2.5,9.87,9.87,0,0,1,.9,4.57v15.63Z"/><path d="M291.2,1259.32v-9.75l-.55-4.91h3.87l.54,4.91v6.35l0,2.64Z"/><path d="M299.39,1268.14v-3h16.13l1.13,3Zm14.57,0-13.81-23.48h3.94l13.82,23.48Zm-2.31-9.66-2.14-3.4,4.41-10.42h3.87Z"/><path d="M323,1259.32v-9.75l-.55-4.91h3.86l.55,4.91v6.35l0,2.64Z"/><path d="M339.33,1268.77,339,1266a6.19,6.19,0,0,0,2.61-.74,3,3,0,0,0,1.28-1.59,7.83,7.83,0,0,0,.35-2.54v-16.51H354a8.36,8.36,0,0,1,3.7.78,5.53,5.53,0,0,1,2.49,2.5,9.74,9.74,0,0,1,.91,4.57v15.63h-3.87v-15.79c0-1.74-.37-2.95-1.11-3.64a4.35,4.35,0,0,0-3.05-1h-6v13.07a9.82,9.82,0,0,1-.82,4.32,5.58,5.58,0,0,1-2.52,2.56A12,12,0,0,1,339.33,1268.77Z"/><path d="M366.84,1268.14v-18.57l-.55-4.91h3.87l.54,4.91v18.57Z"/><path d="M376.59,1259.32v-9.75l-.55-4.91h3.86l.55,4.91v6.35l0,2.64Z"/><path d="M385.61,1268.14v-11.38l.55-2.82h3.32v14.2Zm14.33,0v-15.79c0-1.74-.38-2.95-1.14-3.64a4.34,4.34,0,0,0-3-1H385.7v-3h11a8.36,8.36,0,0,1,3.7.78,5.6,5.6,0,0,1,2.5,2.5,9.87,9.87,0,0,1,.9,4.57v15.63Z"/><path d="M408.08,1247.68V1238h3.53v9.66Zm4.88,20.46,8-20.46H408.08v-3H424.8v3.28l-8,20.2Z"/><path d="M438,1268.14v-23.48h3.86v23.48Zm.92,0v-3h16.59l-.25,3Zm14,0v-15.79c0-1.74-.37-2.95-1.12-3.64a4.32,4.32,0,0,0-3-1H440.3v-3h9.36a8.32,8.32,0,0,1,3.7.78,5.55,5.55,0,0,1,2.5,2.5,9.87,9.87,0,0,1,.9,4.57v15.63Z"/><path d="M462.56,1259.32v-9.75l-.55-4.91h3.86l.55,4.91v6.35l0,2.64Z"/><path d="M472.3,1259.32v-9.75l-.55-4.91h3.87l.54,4.91v6.35l0,2.64Z"/><path d="M483.89,1268.56l-3-23.9h3.7l2.47,20.58a18.21,18.21,0,0,0,5.65-1.18,10.59,10.59,0,0,0,4-2.71,10.9,10.9,0,0,0,2.38-4.3,19.66,19.66,0,0,0,.73-6l0-6.43h3.86l.05,6.26a19.93,19.93,0,0,1-2.12,9.83,13.54,13.54,0,0,1-6.58,5.85A27.43,27.43,0,0,1,483.89,1268.56Zm1.81-9.16-.93-2.64a12.47,12.47,0,0,0,3.43-2,6.25,6.25,0,0,0,1.78-2.88,15.42,15.42,0,0,0,.55-4.53l0-2.57h3.7l0,2.48a16.34,16.34,0,0,1-.86,5.42,9.17,9.17,0,0,1-2.66,3.88A17.42,17.42,0,0,1,485.7,1259.4Z"/><path d="M508.84,1268.14v-3h7.22a8.49,8.49,0,0,0,2.69-.4,5.47,5.47,0,0,0,2.12-1.25,5.82,5.82,0,0,0,1.41-2.27,10.31,10.31,0,0,0,.5-3.47V1255a11.72,11.72,0,0,0-.6-4,5.12,5.12,0,0,0-1.87-2.5,5.49,5.49,0,0,0-3.15-.86h-4.08l-1.05,4.41a5.37,5.37,0,0,0,.13,3.41c.39.78,1.34,1.33,2.85,1.63l-.71,2.57a7.72,7.72,0,0,1-4-1.24,4.52,4.52,0,0,1-1.76-2.71,9.75,9.75,0,0,1,0-4l1.64-7.14h7.68a8.74,8.74,0,0,1,4.69,1.22,7.81,7.81,0,0,1,3,3.55,13.9,13.9,0,0,1,1,5.73v2.39a14.1,14.1,0,0,1-.74,4.83,8.16,8.16,0,0,1-5.25,5.17,12.26,12.26,0,0,1-3.84.59Z"/><path d="M531.81,1268.14v-18.57l-.54-4.91h3.86l.55,4.91v18.57Z"/><path d="M555.84,1268.14v-15.29c0-3.44-1.39-5.17-4.16-5.17H541v-3H552.6a7.55,7.55,0,0,1,3.78.9,5.92,5.92,0,0,1,2.46,2.75,11.26,11.26,0,0,1,.86,4.71v15.12Zm-14.83,0v-22h3.86v22Z"/><path d="M573.9,1268.14v-18.57l-.55-4.91h3.86l.55,4.91v18.57Z"/><path d="M585.49,1268.56l-3-23.9h3.69l2.48,20.58a18.21,18.21,0,0,0,5.65-1.18,10.59,10.59,0,0,0,4-2.71,11,11,0,0,0,2.37-4.3,19.64,19.64,0,0,0,.74-6l0-6.43h3.86l0,6.26a19.82,19.82,0,0,1-2.12,9.83,13.47,13.47,0,0,1-6.57,5.85A27.43,27.43,0,0,1,585.49,1268.56Zm1.8-9.16-.92-2.64a12.25,12.25,0,0,0,3.42-2,6.26,6.26,0,0,0,1.79-2.88,15.8,15.8,0,0,0,.54-4.53l0-2.57h3.69l0,2.48a16.6,16.6,0,0,1-.86,5.42,9.28,9.28,0,0,1-2.67,3.88A17.15,17.15,0,0,1,587.29,1259.4Z"/><path d="M610.56,1259.32v-9.75l-.54-4.91h3.86l.55,4.91v6.35l0,2.64Z"/><path d="M619.63,1268.77l-1.42-3.11a15,15,0,0,0,4.93-2.71,12.32,12.32,0,0,0,3.21-4.39l1.26,2.31a15.54,15.54,0,0,1-1.91,3.53,11.25,11.25,0,0,1-2.62,2.58A14.78,14.78,0,0,1,619.63,1268.77Zm8.11-.63-1.64-9v-7.64a6.49,6.49,0,0,0-.48-2.86,2.38,2.38,0,0,0-1.91-1.13l-2.69-.42.55-2.94,3.82.59a4.71,4.71,0,0,1,3.55,1.91,8.22,8.22,0,0,1,1,4.47v8.11l1.48,8.86Z"/><path d="M646.68,1268.14v-15.79a4.8,4.8,0,0,0-1.13-3.64,4.38,4.38,0,0,0-3-1h-7.6v-3h8.53a8.28,8.28,0,0,1,3.69.78,5.5,5.5,0,0,1,2.5,2.5,9.87,9.87,0,0,1,.9,4.57v15.63Z"/><path d="M654.58,1268.77l-.38-2.73a6.1,6.1,0,0,0,2.6-.74,2.92,2.92,0,0,0,1.28-1.59,7.81,7.81,0,0,0,.36-2.54v-16.51h10.79a8.32,8.32,0,0,1,3.7.78,5.55,5.55,0,0,1,2.5,2.5,9.87,9.87,0,0,1,.9,4.57v15.63h-3.86v-15.79c0-1.74-.37-2.95-1.11-3.64a4.36,4.36,0,0,0-3.05-1h-6v13.07a10,10,0,0,1-.81,4.32,5.58,5.58,0,0,1-2.52,2.56A12.05,12.05,0,0,1,654.58,1268.77Z"/><path d="M692.67,1268.64a2.45,2.45,0,0,1-1.8-.75,2.61,2.61,0,0,1-.76-1.94,2.68,2.68,0,0,1,.76-2,2.43,2.43,0,0,1,1.8-.76,2.51,2.51,0,0,1,1.85.76,2.72,2.72,0,0,1,.76,2,2.65,2.65,0,0,1-.76,1.94A2.54,2.54,0,0,1,692.67,1268.64Z"/><path d="M700.4,1268.14v-11.38l.55-2.82h3.31v14.2Zm14.32,0v-15.79a4.8,4.8,0,0,0-1.13-3.64,4.38,4.38,0,0,0-3-1H700.48v-3h11a8.28,8.28,0,0,1,3.69.78,5.5,5.5,0,0,1,2.5,2.5,9.87,9.87,0,0,1,.9,4.57v15.63Z"/><path d="M724.3,1259.32v-9.75l-.55-4.91h3.86l.55,4.91v6.35l0,2.64Z"/><path d="M732.61,1247.68V1238h3.53v9.66Zm4.87,20.46,8-20.46H732.61v-3h16.72v3.28l-8,20.2Z"/><path d="M755.92,1268.56l-2.81-23.9H757l2.35,20.37a16.17,16.17,0,0,0,4.06-.9,9.23,9.23,0,0,0,3.21-2,8.43,8.43,0,0,0,2.06-3.23,12.63,12.63,0,0,0,.63-4.64v-1.14a6.71,6.71,0,0,0-.55-2.81,4.51,4.51,0,0,0-1.68-2,5.92,5.92,0,0,0-2.9-.89l-2.1-.12.3-3.07,2.39.17a10.36,10.36,0,0,1,4.26,1,6.92,6.92,0,0,1,2.88,2.69,9.26,9.26,0,0,1,1.14,4.49l0,1.18a14.71,14.71,0,0,1-1.1,6.55,11,11,0,0,1-3.54,4.45,17.18,17.18,0,0,1-5.53,2.63A30.48,30.48,0,0,1,755.92,1268.56Z"/><path d="M777.85,1259.32v-9.75l-.55-4.91h3.86l.55,4.91v6.35l0,2.64Z"/><path d="M807.12,1268.14H803l-9.2-13.86-4.32,13.86h-3.7l4.62-14.45,1.13-2.86-3.82-6.17h3.91l3.65,5.8L799,1256l1-3.57,2.31-7.81H806l-4.79,14.74Z"/><path d="M810.86,1268.14l3.06-16.3-3.27-7.18h4l2.94,7.35-2.86,16.13Zm8.06.08.38-3a9.15,9.15,0,0,0,5.46-.17,5.53,5.53,0,0,0,3-3.25,15.77,15.77,0,0,0,.84-6.07,13.28,13.28,0,0,0-.8-4.9,5.33,5.33,0,0,0-2-2.56,5.49,5.49,0,0,0-2.9-.77,4.92,4.92,0,0,0-4.48,2.45,7.7,7.7,0,0,0-.9,2.46l-1-1.93a7.72,7.72,0,0,1,2.73-4.64,7.14,7.14,0,0,1,4.33-1.45,9.42,9.42,0,0,1,3.46.61,6.82,6.82,0,0,1,2.75,2,9.57,9.57,0,0,1,1.85,3.51,18.78,18.78,0,0,1,.72,5.27,16.72,16.72,0,0,1-1.43,7.89,8.52,8.52,0,0,1-4.58,4.31A12.62,12.62,0,0,1,818.92,1268.22Z"/><path d="M847.48,1268.56l-2.81-23.9h3.86l2.35,20.37a16.17,16.17,0,0,0,4.06-.9,9.23,9.23,0,0,0,3.21-2,8.43,8.43,0,0,0,2.06-3.23,12.63,12.63,0,0,0,.63-4.64v-1.14a6.87,6.87,0,0,0-.55-2.81,4.51,4.51,0,0,0-1.68-2,5.92,5.92,0,0,0-2.9-.89l-2.1-.12.3-3.07,2.39.17a10.4,10.4,0,0,1,4.26,1,6.92,6.92,0,0,1,2.88,2.69,9.15,9.15,0,0,1,1.13,4.49l0,1.18a14.71,14.71,0,0,1-1.1,6.55,11,11,0,0,1-3.55,4.45,17,17,0,0,1-5.52,2.63A30.57,30.57,0,0,1,847.48,1268.56Z"/><path d="M869.4,1268.14v-18.57l-.54-4.91h3.86l.55,4.91v18.57Z"/><path d="M881,1268.56l-3-23.9h3.7l2.48,20.58a18.28,18.28,0,0,0,5.65-1.18,10.66,10.66,0,0,0,4-2.71,11,11,0,0,0,2.37-4.3,20,20,0,0,0,.74-6l-.05-6.43h3.87l0,6.26a19.82,19.82,0,0,1-2.12,9.83,13.45,13.45,0,0,1-6.58,5.85A27.38,27.38,0,0,1,881,1268.56Zm1.8-9.16-.92-2.64a12.55,12.55,0,0,0,3.42-2,6.26,6.26,0,0,0,1.79-2.88,15.8,15.8,0,0,0,.54-4.53l0-2.57h3.7l0,2.48a16.87,16.87,0,0,1-.86,5.42,9.28,9.28,0,0,1-2.67,3.88A17.29,17.29,0,0,1,882.8,1259.4Z"/><path d="M905.94,1268.14v-3h7.23a8.53,8.53,0,0,0,2.69-.4,5.55,5.55,0,0,0,2.12-1.25,5.8,5.8,0,0,0,1.4-2.27,10.29,10.29,0,0,0,.51-3.47V1255a11.71,11.71,0,0,0-.61-4,5.12,5.12,0,0,0-1.87-2.5,5.49,5.49,0,0,0-3.15-.86h-4.07l-1.06,4.41a5.44,5.44,0,0,0,.13,3.41c.39.78,1.35,1.33,2.86,1.63l-.72,2.57a7.78,7.78,0,0,1-4-1.24,4.52,4.52,0,0,1-1.76-2.71,9.93,9.93,0,0,1,0-4l1.64-7.14H915a8.68,8.68,0,0,1,4.68,1.22,7.81,7.81,0,0,1,3,3.55,13.9,13.9,0,0,1,1,5.73v2.39a14.11,14.11,0,0,1-.73,4.83,8.16,8.16,0,0,1-5.25,5.17,12.32,12.32,0,0,1-3.85.59Z"/><path d="M928.2,1268.14v-11.38l.55-2.82h3.32v14.2Zm14.33,0v-15.79c0-1.74-.38-2.95-1.14-3.64a4.35,4.35,0,0,0-3-1H928.29v-3h11a8.36,8.36,0,0,1,3.7.78,5.6,5.6,0,0,1,2.5,2.5,9.87,9.87,0,0,1,.9,4.57v15.63Z"/><path d="M952.1,1268.14v-18.57l-.55-4.91h3.87l.54,4.91v18.57Z"/><path d="M981,1268.14v-15.79c0-1.74-.38-2.95-1.14-3.64a4.34,4.34,0,0,0-3-1h-7.73v-3h8.65a8.32,8.32,0,0,1,3.7.78,5.55,5.55,0,0,1,2.5,2.5,9.87,9.87,0,0,1,.9,4.57v15.63Zm-11.89,0v-3h18.69v3Z"/><path d="M992.5,1268.14v-18.57l-.54-4.91h3.86l.55,4.91v18.57Z"/><path d="M1001.53,1268.14v-11.38l.55-2.82h3.32v14.2Zm14.33,0v-15.79c0-1.74-.38-2.95-1.14-3.64a4.34,4.34,0,0,0-3-1h-10.08v-3h11a8.36,8.36,0,0,1,3.7.78,5.6,5.6,0,0,1,2.5,2.5,9.87,9.87,0,0,1,.9,4.57v15.63Z"/><path d="M1045,1268.14h-4.16l-9.19-13.86-4.33,13.86h-3.7l4.62-14.45,1.14-2.86-3.82-6.17h3.9l3.66,5.8,3.73,5.58,1-3.57,2.31-7.81h3.74l-4.79,14.74Z"/><path d="M1048.78,1268.14v-11.38l.55-2.82h3.32v14.2Zm14.33,0v-15.79c0-1.74-.38-2.95-1.14-3.64a4.35,4.35,0,0,0-3-1h-10.08v-3h11a8.36,8.36,0,0,1,3.7.78,5.6,5.6,0,0,1,2.5,2.5,9.87,9.87,0,0,1,.9,4.57v15.63Z"/><path d="M1080.91,1268.14v-23.48h3.87v23.48Zm.93,0v-3h16.59l-.25,3Zm14,0v-15.79a4.84,4.84,0,0,0-1.12-3.64,4.34,4.34,0,0,0-3-1h-8.44v-3h9.36a8.36,8.36,0,0,1,3.7.78,5.6,5.6,0,0,1,2.5,2.5,9.87,9.87,0,0,1,.9,4.57v15.63Z"/><path d="M1119.8,1268.14v-15.29c0-3.44-1.38-5.17-4.15-5.17H1105v-3h11.59a7.55,7.55,0,0,1,3.78.9,6,6,0,0,1,2.46,2.75,11.26,11.26,0,0,1,.86,4.71v15.12Zm-14.82,0v-22h3.86v22Z"/><path d="M1128,1247.68V1238h3.52v9.66Zm4.87,20.46,8-20.46H1128v-3h16.71v3.28l-8,20.2Z"/><path d="M1149,1268.14v-11.38l.55-2.82h3.31v14.2Zm14.32,0v-15.79a4.8,4.8,0,0,0-1.13-3.64,4.35,4.35,0,0,0-3-1H1149v-3h11a8.28,8.28,0,0,1,3.69.78,5.5,5.5,0,0,1,2.5,2.5,9.74,9.74,0,0,1,.91,4.57v15.63Z"/><path d="M99.89,1319a2.45,2.45,0,0,1-1.8-.75,2.61,2.61,0,0,1-.76-1.94,2.68,2.68,0,0,1,.76-2,2.43,2.43,0,0,1,1.8-.76,2.49,2.49,0,0,1,1.85.76,2.68,2.68,0,0,1,.76,2,2.61,2.61,0,0,1-.76,1.94A2.52,2.52,0,0,1,99.89,1319Z"/><path d="M108.17,1318.54v-23.48H112v23.48Zm.92,0v-3h16.59l-.25,3Zm14,0v-15.79c0-1.74-.37-3-1.11-3.64a4.36,4.36,0,0,0-3.05-1h-8.44v-3h9.37a8.31,8.31,0,0,1,3.69.78,5.5,5.5,0,0,1,2.5,2.5,9.87,9.87,0,0,1,.9,4.57v15.63Z"/><path d="M131.35,1298.08v-9.66h3.53v9.66Zm4.87,20.46,8-20.46H131.35v-3h16.72v3.28l-8,20.2Z"/><path d="M154.83,1319l-3-23.9h3.69l2.48,20.58a18.21,18.21,0,0,0,5.65-1.18,10.66,10.66,0,0,0,4-2.71,11,11,0,0,0,2.37-4.3,20,20,0,0,0,.74-6l0-6.43h3.86l0,6.26a19.82,19.82,0,0,1-2.12,9.83A13.47,13.47,0,0,1,166,1317,27.43,27.43,0,0,1,154.83,1319Zm1.8-9.16-.92-2.64a12.25,12.25,0,0,0,3.42-2,6.26,6.26,0,0,0,1.79-2.88,15.8,15.8,0,0,0,.54-4.53l0-2.57h3.69l0,2.48a16.87,16.87,0,0,1-.86,5.42,9.28,9.28,0,0,1-2.67,3.88A17.29,17.29,0,0,1,156.63,1309.8Z"/><path d="M179.9,1318.54V1300l-.55-4.91h3.87l.55,4.91v18.57Z"/><path d="M188.85,1318.54l3.06-16.3-3.27-7.18h4l2.94,7.35-2.86,16.13Zm8.06.08.38-3a9.15,9.15,0,0,0,5.46-.17,5.5,5.5,0,0,0,3-3.25,15.77,15.77,0,0,0,.84-6.07,13.32,13.32,0,0,0-.8-4.9,5.33,5.33,0,0,0-2-2.56,5.49,5.49,0,0,0-2.9-.77,5.14,5.14,0,0,0-2.71.67,5,5,0,0,0-1.76,1.78,7.57,7.57,0,0,0-.91,2.46l-1-1.93a7.72,7.72,0,0,1,2.73-4.64,7.14,7.14,0,0,1,4.33-1.45,9.42,9.42,0,0,1,3.46.61,6.92,6.92,0,0,1,2.76,1.95,9.71,9.71,0,0,1,1.84,3.51,18.78,18.78,0,0,1,.72,5.27,16.59,16.59,0,0,1-1.43,7.89,8.52,8.52,0,0,1-4.58,4.31A12.61,12.61,0,0,1,196.91,1318.62Z"/><path d="M230.51,1318.54l-.33-3a13,13,0,0,0,2.62-.61,5.85,5.85,0,0,0,2.18-1.39,7.09,7.09,0,0,0,1.56-2.67,16.44,16.44,0,0,0,.77-4.32l.68-8.49H223v-3h19.16l-.17,2.69-.63,8a21.27,21.27,0,0,1-.95,5.42,12,12,0,0,1-2.14,4,9.29,9.29,0,0,1-3.32,2.49A11.12,11.12,0,0,1,230.51,1318.54Zm-7.52,8.4v-20.29l.55-2.85h3.32v23.14Z"/><path d="M245.67,1318.54v-3H261.8l1.14,3Zm14.58,0-13.82-23.48h3.95l13.81,23.48Zm-2.31-9.66-2.15-3.4,4.41-10.42h3.87Z"/><path d="M280.11,1318.54v-15.79a4.8,4.8,0,0,0-1.13-3.64,4.38,4.38,0,0,0-3-1h-7.72v-3h8.65a8.28,8.28,0,0,1,3.69.78,5.5,5.5,0,0,1,2.5,2.5,9.74,9.74,0,0,1,.91,4.57v15.63Zm-11.88,0v-3h18.69v3Z"/><path d="M299.26,1318.54v-11.38l.55-2.82h3.32v14.2Zm14.33,0v-15.79c0-1.74-.38-3-1.14-3.64a4.34,4.34,0,0,0-3-1H299.35v-3h11a8.36,8.36,0,0,1,3.7.78,5.6,5.6,0,0,1,2.5,2.5,9.87,9.87,0,0,1,.9,4.57v15.63Z"/><path d="M325.14,1318.54V1303a11.59,11.59,0,0,1,.31-2.84,7.11,7.11,0,0,1,.86-2.08h-4.12v-3h11v3h-3.28a5.75,5.75,0,0,0-.77,2.42,23,23,0,0,0-.15,2.5v15.54Z"/><path d="M345.5,1309.38v-2.77h9.66v2.77Z"/><path d="M366.5,1319.17l-.37-2.73a6.14,6.14,0,0,0,2.6-.74,2.92,2.92,0,0,0,1.28-1.59,7.81,7.81,0,0,0,.36-2.54v-16.51h10.79a8.36,8.36,0,0,1,3.7.78,5.55,5.55,0,0,1,2.5,2.5,9.87,9.87,0,0,1,.9,4.57v15.63H384.4v-15.79a4.84,4.84,0,0,0-1.12-3.64,4.32,4.32,0,0,0-3-1h-6v13.07a9.82,9.82,0,0,1-.82,4.32,5.48,5.48,0,0,1-2.52,2.56A11.94,11.94,0,0,1,366.5,1319.17Z"/><path d="M393.22,1318.54l3.06-16.3-3.27-7.18h4l2.94,7.35-2.86,16.13Zm8.06.08.38-3a9.15,9.15,0,0,0,5.46-.17,5.53,5.53,0,0,0,3-3.25,15.77,15.77,0,0,0,.84-6.07,13.32,13.32,0,0,0-.8-4.9,5.33,5.33,0,0,0-2-2.56,5.49,5.49,0,0,0-2.9-.77,5.11,5.11,0,0,0-2.71.67,5,5,0,0,0-1.76,1.78,7.57,7.57,0,0,0-.91,2.46l-1.05-1.93a7.72,7.72,0,0,1,2.73-4.64,7.14,7.14,0,0,1,4.33-1.45,9.42,9.42,0,0,1,3.46.61,6.82,6.82,0,0,1,2.75,1.95,9.57,9.57,0,0,1,1.85,3.51,18.78,18.78,0,0,1,.72,5.27,16.72,16.72,0,0,1-1.43,7.89,8.52,8.52,0,0,1-4.58,4.31A12.62,12.62,0,0,1,401.28,1318.62Z"/><path d="M418.33,1298.08v-9.66h3.53v9.66Zm4.87,20.46,8-20.46H418.33v-3h16.72v3.28l-8,20.2Z"/><path d="M441.81,1319l-3-23.9h3.69l2.48,20.58a18.21,18.21,0,0,0,5.65-1.18,10.59,10.59,0,0,0,4-2.71,10.76,10.76,0,0,0,2.37-4.3,19.64,19.64,0,0,0,.74-6l0-6.43h3.86l0,6.26a19.82,19.82,0,0,1-2.12,9.83,13.47,13.47,0,0,1-6.57,5.85A27.43,27.43,0,0,1,441.81,1319Zm1.81-9.16-.93-2.64a12.25,12.25,0,0,0,3.42-2,6.18,6.18,0,0,0,1.79-2.88,15.76,15.76,0,0,0,.55-4.53l0-2.57h3.69l0,2.48a16.6,16.6,0,0,1-.86,5.42,9.19,9.19,0,0,1-2.67,3.88A17.22,17.22,0,0,1,443.62,1309.8Z"/><path d="M466.88,1318.54V1300l-.54-4.91h3.86l.55,4.91v18.57Z"/><path d="M475.83,1318.54l3.07-16.3-3.28-7.18h4l2.94,7.35-2.86,16.13Zm8.06.08.38-3a9.15,9.15,0,0,0,5.46-.17,5.5,5.5,0,0,0,3-3.25,15.77,15.77,0,0,0,.84-6.07,13.55,13.55,0,0,0-.79-4.9,5.41,5.41,0,0,0-2-2.56,5.49,5.49,0,0,0-2.9-.77,5.14,5.14,0,0,0-2.71.67,5,5,0,0,0-1.76,1.78,7.33,7.33,0,0,0-.9,2.46l-1.05-1.93a7.63,7.63,0,0,1,2.73-4.64,7.09,7.09,0,0,1,4.32-1.45,9.48,9.48,0,0,1,3.47.61,6.89,6.89,0,0,1,2.75,1.95,9.56,9.56,0,0,1,1.84,3.51,18.78,18.78,0,0,1,.72,5.27,16.59,16.59,0,0,1-1.43,7.89,8.52,8.52,0,0,1-4.58,4.31A12.61,12.61,0,0,1,483.89,1318.62Z"/><path d="M510.06,1318.54v-11.38l.54-2.82h3.32v14.2Zm14.32,0v-15.79a4.8,4.8,0,0,0-1.13-3.64,4.38,4.38,0,0,0-3-1H510.14v-3h11a8.28,8.28,0,0,1,3.69.78,5.5,5.5,0,0,1,2.5,2.5,9.87,9.87,0,0,1,.9,4.57v15.63Z"/><path d="M536,1300.81a2.35,2.35,0,0,1-2-1,4.82,4.82,0,0,1-.74-2.9,8.12,8.12,0,0,1,1.18-4.41,9.17,9.17,0,0,1,3.44-3.15l1,1.72a7.86,7.86,0,0,0-2.42,2.23,5.34,5.34,0,0,0-.82,3l.47,2.86-1.77-2.19a4,4,0,0,1,.8-.57,2,2,0,0,1,.88-.18,2.41,2.41,0,0,1,1.58.56,2,2,0,0,1,.69,1.62,2.37,2.37,0,0,1-.63,1.76A2.22,2.22,0,0,1,536,1300.81Z"/><path d="M543,1318.54v-3h16.13l1.13,3Zm14.57,0-13.82-23.48h4l13.82,23.48Zm-2.31-9.66-2.14-3.4,4.41-10.42h3.86Z"/><path d="M586.2,1318.54h-4.15l-9.2-13.86-4.33,13.86h-3.7l4.62-14.45,1.14-2.86-3.82-6.17h3.9l3.66,5.8,3.74,5.58,1-3.57,2.31-7.81h3.74l-4.79,14.74Z"/><path d="M597.46,1318.54l-.34-3a12.94,12.94,0,0,0,2.63-.61,5.93,5.93,0,0,0,2.18-1.39,7.09,7.09,0,0,0,1.56-2.67,16.44,16.44,0,0,0,.77-4.32l.68-8.49h-15v-3h19.15l-.16,2.69-.63,8a21.27,21.27,0,0,1-.95,5.42,12,12,0,0,1-2.14,4,9.29,9.29,0,0,1-3.32,2.49A11.12,11.12,0,0,1,597.46,1318.54Zm-7.52,8.4v-20.29l.55-2.85h3.32v23.14Z"/><path d="M614.18,1318.54V1300l-.55-4.91h3.86L618,1300v18.57Z"/><path d="M623.79,1318.54v-3H631a8.83,8.83,0,0,0,2.69-.39,5.38,5.38,0,0,0,3.52-3.53,10.29,10.29,0,0,0,.51-3.47v-2.69a11.71,11.71,0,0,0-.61-4,5,5,0,0,0-1.87-2.49,5.42,5.42,0,0,0-3.15-.87H628l-1.06,4.41a5.44,5.44,0,0,0,.13,3.41c.39.78,1.35,1.33,2.86,1.63l-.72,2.57a7.78,7.78,0,0,1-4-1.24,4.52,4.52,0,0,1-1.76-2.71,9.93,9.93,0,0,1,0-4l1.64-7.14h7.69a8.68,8.68,0,0,1,4.68,1.22,7.81,7.81,0,0,1,3,3.55,13.9,13.9,0,0,1,1.05,5.73V1308a14.11,14.11,0,0,1-.73,4.83,8.16,8.16,0,0,1-5.25,5.17,12.32,12.32,0,0,1-3.85.59Z"/><path d="M645.34,1298.08v-9.66h3.53v9.66Zm4.87,20.46,8-20.46H645.34v-3h16.71v3.28l-8,20.2Z"/><path d="M684.69,1318.54V1303a11.57,11.57,0,0,1,.32-2.84,6.85,6.85,0,0,1,.86-2.08H674.32v-3h18.35v3h-3.15a6.75,6.75,0,0,0-.77,2.42,17.7,17.7,0,0,0-.19,2.5v15.54Z"/><path d="M697.92,1318.54V1300l-.54-4.91h3.86l.55,4.91v18.57Z"/><path d="M709.39,1319l-2.48-20.88,3.61-1.89,2.27,19.24a16.91,16.91,0,0,0,3.27-.55,11.15,11.15,0,0,0,2.82-1.17,7.59,7.59,0,0,0,2.14-1.93,8.14,8.14,0,0,0,1.32-2.88,13.15,13.15,0,0,0,.32-4v-1.09a7.6,7.6,0,0,0-.53-2.92,4.54,4.54,0,0,0-1.57-2,4.29,4.29,0,0,0-2.56-.76H706.91l-.38-3h11.8a7.53,7.53,0,0,1,5.93,2.35,9.58,9.58,0,0,1,2.22,6.26l0,1.3a13.79,13.79,0,0,1-1.13,6.49,10.31,10.31,0,0,1-3.61,4.2,17,17,0,0,1-5.53,2.35A35.25,35.25,0,0,1,709.39,1319Z"/><path d="M731.06,1318.54v-11.38l.55-2.82h3.31v14.2Zm14.32,0v-15.79a4.8,4.8,0,0,0-1.13-3.64,4.38,4.38,0,0,0-3-1H731.14v-3h11a8.28,8.28,0,0,1,3.69.78,5.5,5.5,0,0,1,2.5,2.5,9.87,9.87,0,0,1,.9,4.57v15.63Z"/><path d="M756.8,1319l-3-23.9h3.7l2.48,20.58a18.15,18.15,0,0,0,5.64-1.18,10.62,10.62,0,0,0,4-2.71,11,11,0,0,0,2.37-4.3,19.66,19.66,0,0,0,.73-6l0-6.43h3.87l0,6.26a19.82,19.82,0,0,1-2.12,9.83,13.49,13.49,0,0,1-6.58,5.85A27.43,27.43,0,0,1,756.8,1319Zm1.81-9.16-.92-2.64a12.55,12.55,0,0,0,3.42-2,6.17,6.17,0,0,0,1.78-2.88,15.42,15.42,0,0,0,.55-4.53l0-2.57h3.7l0,2.48a16.87,16.87,0,0,1-.86,5.42,9.28,9.28,0,0,1-2.67,3.88A17.29,17.29,0,0,1,758.61,1309.8Z"/><path d="M790.28,1318.54V1300l-.55-4.91h3.87l.54,4.91v18.57Z"/><path d="M810.27,1318.54v-15.79c0-1.74-.38-3-1.14-3.64a4.34,4.34,0,0,0-3-1h-7.6v-3H807a8.28,8.28,0,0,1,3.69.78,5.55,5.55,0,0,1,2.5,2.5,9.87,9.87,0,0,1,.9,4.57v15.63Z"/><path d="M818.63,1318.54v-3h5.79a6.89,6.89,0,0,0,3.59-.84,5.06,5.06,0,0,0,2.1-2.5,10.21,10.21,0,0,0,.7-4v-2.73a10.14,10.14,0,0,0-.7-4A5.17,5.17,0,0,0,828,1299a6.7,6.7,0,0,0-3.59-.87h-5.79v-3h6.67a10.09,10.09,0,0,1,5.13,1.22,7.64,7.64,0,0,1,3.17,3.59,13.92,13.92,0,0,1,1.07,5.73v2.4a13.92,13.92,0,0,1-1.07,5.75,7.63,7.63,0,0,1-3.17,3.57,10.09,10.09,0,0,1-5.13,1.22Z"/><path d="M841.89,1318.54V1303a11.57,11.57,0,0,1,.32-2.84,7.11,7.11,0,0,1,.86-2.08H839v-3h11v3h-3.28a5.75,5.75,0,0,0-.77,2.42,23,23,0,0,0-.15,2.5v15.54Z"/><path d="M875.08,1326.94v-24.19c0-1.74-.38-3-1.14-3.64a4.34,4.34,0,0,0-3-1h-8.28v-3h9.2a8.36,8.36,0,0,1,3.7.78,5.6,5.6,0,0,1,2.5,2.5,9.87,9.87,0,0,1,.9,4.57v24Z"/><path d="M904.35,1318.54h-4.16l-9.2-13.86-4.32,13.86H883l4.62-14.45,1.13-2.86-3.82-6.17h3.91l3.65,5.8,3.74,5.58,1-3.57,2.31-7.81h3.74l-4.79,14.74Z"/><path d="M917,1325.76l-.88-2.14a7,7,0,0,0,2.86-2.14,5,5,0,0,0,1-3.07l-.37-3.15,1.72,2.56a1.7,1.7,0,0,1-.8.57,3.12,3.12,0,0,1-1,.15,2.8,2.8,0,0,1-1.82-.63,2.51,2.51,0,0,1,0-3.66,2.82,2.82,0,0,1,1.85-.67,2.54,2.54,0,0,1,2.24,1.12,5.3,5.3,0,0,1,.78,3.08,8.06,8.06,0,0,1-1.49,4.81A9.26,9.26,0,0,1,917,1325.76Z"/><path d="M926.48,1298.08v-9.66H930v9.66Zm4.87,20.46,8-20.46H926.48v-3H943.2v3.28l-8,20.2Z"/><path d="M946.47,1319.84l-.54-3.07,8-1.51a11.69,11.69,0,0,0,3.88-1.38,6.36,6.36,0,0,0,2.31-2.44,11.68,11.68,0,0,0,1.18-3.74,38.76,38.76,0,0,0,.42-5.35q.06-3.13.06-7.29h3.86q0,4.45-.16,7.92a35.69,35.69,0,0,1-.76,6.07,12.83,12.83,0,0,1-1.85,4.45,9.72,9.72,0,0,1-3.42,3,18.41,18.41,0,0,1-5.48,1.83Zm6.81-4.16-5.38-20.62h3.87l5.25,20.62Z"/><path d="M970,1318.54l3.06-16.3-3.28-7.18h4l3,7.35-2.86,16.13Zm8.06.08.38-3a9.16,9.16,0,0,0,5.46-.17,5.53,5.53,0,0,0,3-3.25,16,16,0,0,0,.84-6.07,13.53,13.53,0,0,0-.8-4.9,5.33,5.33,0,0,0-2-2.56,5.49,5.49,0,0,0-2.9-.77,4.92,4.92,0,0,0-4.48,2.45,7.79,7.79,0,0,0-.9,2.46l-1-1.93a7.67,7.67,0,0,1,2.73-4.64,7.14,7.14,0,0,1,4.33-1.45,9.42,9.42,0,0,1,3.46.61,6.82,6.82,0,0,1,2.75,1.95,9.57,9.57,0,0,1,1.85,3.51,18.78,18.78,0,0,1,.72,5.27A16.72,16.72,0,0,1,990,1314a8.55,8.55,0,0,1-4.58,4.31A12.62,12.62,0,0,1,978.1,1318.62Z"/><path d="M998.43,1319l-3-23.9h3.7l2.48,20.58a18.28,18.28,0,0,0,5.65-1.18,10.66,10.66,0,0,0,4-2.71,11,11,0,0,0,2.37-4.3,20,20,0,0,0,.74-6l0-6.43h3.87l0,6.26a19.82,19.82,0,0,1-2.12,9.83,13.47,13.47,0,0,1-6.57,5.85A27.43,27.43,0,0,1,998.43,1319Zm1.8-9.16-.92-2.64a12.55,12.55,0,0,0,3.42-2,6.26,6.26,0,0,0,1.79-2.88,15.8,15.8,0,0,0,.54-4.53l0-2.57h3.7l0,2.48a16.87,16.87,0,0,1-.86,5.42,9.28,9.28,0,0,1-2.67,3.88A17.29,17.29,0,0,1,1000.23,1309.8Z"/><path d="M1030.05,1319.17l-.38-2.73a6.19,6.19,0,0,0,2.61-.74,3,3,0,0,0,1.28-1.59,7.81,7.81,0,0,0,.36-2.54v-16.51h10.79a8.36,8.36,0,0,1,3.7.78,5.6,5.6,0,0,1,2.5,2.5,9.87,9.87,0,0,1,.9,4.57v15.63H1048v-15.79a4.84,4.84,0,0,0-1.12-3.64,4.34,4.34,0,0,0-3-1h-6v13.07a9.82,9.82,0,0,1-.82,4.32,5.48,5.48,0,0,1-2.52,2.56A12,12,0,0,1,1030.05,1319.17Z"/><path d="M1057.56,1318.54V1300l-.54-4.91h3.86l.55,4.91v18.57Z"/><path d="M1067.18,1318.54v-3h7.22a8.78,8.78,0,0,0,2.69-.39,5.62,5.62,0,0,0,2.12-1.26,5.86,5.86,0,0,0,1.41-2.27,10.31,10.31,0,0,0,.5-3.47v-2.69a11.72,11.72,0,0,0-.6-4,5,5,0,0,0-1.87-2.49,5.42,5.42,0,0,0-3.15-.87h-4.08l-1.05,4.41a5.37,5.37,0,0,0,.13,3.41c.39.78,1.34,1.33,2.85,1.63l-.71,2.57a7.72,7.72,0,0,1-4-1.24,4.52,4.52,0,0,1-1.76-2.71,9.75,9.75,0,0,1,0-4l1.64-7.14h7.68a8.74,8.74,0,0,1,4.69,1.22,7.81,7.81,0,0,1,3,3.55,13.9,13.9,0,0,1,1,5.73V1308a14.1,14.1,0,0,1-.74,4.83A8.16,8.16,0,0,1,1079,1318a12.26,12.26,0,0,1-3.84.59Z"/><path d="M1091.88,1319l-2.48-20.88,3.61-1.89,2.27,19.24a16.91,16.91,0,0,0,3.27-.55,11.15,11.15,0,0,0,2.82-1.17,7.59,7.59,0,0,0,2.14-1.93,8.14,8.14,0,0,0,1.32-2.88,13.15,13.15,0,0,0,.32-4v-1.09a7.6,7.6,0,0,0-.53-2.92,4.54,4.54,0,0,0-1.57-2,4.31,4.31,0,0,0-2.56-.76H1089.4l-.38-3h11.8a7.51,7.51,0,0,1,5.92,2.35,9.58,9.58,0,0,1,2.23,6.26l0,1.3a13.79,13.79,0,0,1-1.13,6.49,10.39,10.39,0,0,1-3.61,4.2,17,17,0,0,1-5.53,2.35A35.25,35.25,0,0,1,1091.88,1319Z"/><path d="M1114.26,1318.54V1300l-.55-4.91h3.87l.54,4.91v18.57Z"/><path d="M1122.16,1319.17l-.38-2.73a6.1,6.1,0,0,0,2.6-.74,2.88,2.88,0,0,0,1.28-1.59,7.81,7.81,0,0,0,.36-2.54v-16.51h10.79a8.32,8.32,0,0,1,3.7.78,5.55,5.55,0,0,1,2.5,2.5,9.87,9.87,0,0,1,.9,4.57v15.63h-3.86v-15.79c0-1.74-.37-3-1.11-3.64a4.36,4.36,0,0,0-3-1h-6v13.07a10,10,0,0,1-.81,4.32,5.58,5.58,0,0,1-2.52,2.56A12.05,12.05,0,0,1,1122.16,1319.17Z"/><path d="M1149,1318.54v-11.38l.55-2.82h3.32v14.2Zm14.32,0v-15.79c0-1.74-.37-3-1.13-3.64a4.35,4.35,0,0,0-3-1H1149v-3h11a8.36,8.36,0,0,1,3.7.78,5.53,5.53,0,0,1,2.49,2.5,9.74,9.74,0,0,1,.91,4.57v15.63Z"/><rect class="cls-3" x="74.87" y="266.39" width="1093.79" height="748.08"/><rect class="cls-4" x="539.72" y="584.55" width="164.08" height="111.75" rx="21.96"/><polygon class="cls-5" points="593.95 672.8 593.66 608.06 649.87 640.18 593.95 672.8"/><ellipse class="cls-6" cx="1055.49" cy="1875.04" rx="77.19" ry="77.12"/><path class="cls-4" d="M1099.73,1871.33l-51.18-29.55a4.29,4.29,0,0,0-6.43,3.72v17H1012a2.91,2.91,0,0,0-2.91,2.9v19.19a2.92,2.92,0,0,0,2.91,2.9h30.1v17a4.29,4.29,0,0,0,6.43,3.72l51.18-29.55A4.29,4.29,0,0,0,1099.73,1871.33Z"/><line class="cls-2" x1="1.86" y1="2098.83" x2="1243.86" y2="2098.83"/><rect class="cls-6" x="0.91" y="-0.9" width="1241.7" height="176.92"/><line class="cls-7" x1="872.01" y1="14.31" x2="872.01" y2="161.52"/><line class="cls-8" x1="1064.53" y1="50.36" x2="1177.86" y2="50.36"/><line class="cls-8" x1="1064.53" y1="129.14" x2="1177.86" y2="129.14"/><line class="cls-8" x1="1064.53" y1="89.75" x2="1177.86" y2="89.75"/><path class="cls-4" d="M289.49,119.3V98.83l1.5-5h9.38v25.5Zm25.05,0V90.05a5.69,5.69,0,0,0-1.31-4.2,5.11,5.11,0,0,0-3.71-1.27H289.94v-8.1h22.5a15.07,15.07,0,0,1,6.68,1.42,10.42,10.42,0,0,1,4.61,4.5,17.07,17.07,0,0,1,1.69,8.18V119.3Z"/><path class="cls-4" d="M331,119.3v-8.1h12a8.31,8.31,0,0,0,4.91-1.35,7.36,7.36,0,0,0,2.74-3.75,16.55,16.55,0,0,0,.83-5.4V95.08a16.28,16.28,0,0,0-.83-5.37A7.62,7.62,0,0,0,348,86,8.17,8.17,0,0,0,343,84.58H331v-8.1H346a16.21,16.21,0,0,1,9.11,2.4,14.69,14.69,0,0,1,5.47,6.71,25.49,25.49,0,0,1,1.84,10.09v4.42a25.67,25.67,0,0,1-1.84,10.16,14.5,14.5,0,0,1-5.47,6.68A16.45,16.45,0,0,1,346,119.3Z"/><path class="cls-4" d="M387,119.3V90.05a5.69,5.69,0,0,0-1.31-4.2A5.12,5.12,0,0,0,382,84.58H367.34v-8.1h17.55a15.07,15.07,0,0,1,6.68,1.42,10.42,10.42,0,0,1,4.61,4.5,17.07,17.07,0,0,1,1.69,8.18V119.3Z"/><path class="cls-4" d="M421.56,119.3V93.35a21.13,21.13,0,0,1,.57-5.17,10.38,10.38,0,0,1,1.53-3.6h-19.2v-8.1h35.18v8.1h-5.85a15.35,15.35,0,0,0-1.13,4.31,36.66,36.66,0,0,0-.3,4.46v26Z"/><path class="cls-4" d="M446.09,119.3V98.83l1.5-5H457v25.5Zm25.05,0V90.05a5.69,5.69,0,0,0-1.31-4.2,5.13,5.13,0,0,0-3.72-1.27H446.54v-8.1H469a15,15,0,0,1,6.67,1.42,10.44,10.44,0,0,1,4.62,4.5A17.08,17.08,0,0,1,482,90.58V119.3Z"/><path class="cls-4" d="M505,103.55V85.25l-.9-8.77h10.8l.9,8.77V97l-.08,4.73Z"/><path class="cls-4" d="M522.81,119.3v-8.1h11V89.53c0-2-.36-3.28-1.08-4a5.09,5.09,0,0,0-3-1.27l-5.25-.75,1.35-8,9.37,1.2a9.78,9.78,0,0,1,7,3.93,14.26,14.26,0,0,1,2.4,8.52V119.3Z"/><path class="cls-4" d="M553,119.3v-34l-.9-8.77h10.8l.9,8.77V119.3Z"/><path class="cls-4" d="M575.91,120.05l-5-43.57h10.87l3.68,34a21.84,21.84,0,0,0,6.82-1.61,11.43,11.43,0,0,0,6.79-7.91,22.13,22.13,0,0,0,.64-6.08V92.53a10,10,0,0,0-.75-3.9,7.21,7.21,0,0,0-2.4-3,7.54,7.54,0,0,0-4.2-1.39L588.66,84l.83-8.33,4.57.23a20.57,20.57,0,0,1,8,2,14.31,14.31,0,0,1,5.77,5.06,15.94,15.94,0,0,1,2.37,8.51l.07,2.1a25.66,25.66,0,0,1-2.06,11.74,19.93,19.93,0,0,1-6.83,8.06,33,33,0,0,1-11,4.76A73.79,73.79,0,0,1,575.91,120.05Z"/><path class="cls-4" d="M634,119.3V90.05a5.69,5.69,0,0,0-1.31-4.2,5.11,5.11,0,0,0-3.71-1.27H614.31v-8.1h17.55a15.1,15.1,0,0,1,6.68,1.42,10.42,10.42,0,0,1,4.61,4.5,17.08,17.08,0,0,1,1.68,8.18V119.3Z"/><path class="cls-4" d="M657,120.05l-4.12-35.47,10.27-4.8,3.3,30.67a28.34,28.34,0,0,0,5.59-1,11,11,0,0,0,3.94-2,9.38,9.38,0,0,0,2.47-3.15,13.64,13.64,0,0,0,1.24-4.31,30.51,30.51,0,0,0,.19-5.62V92.08a10.11,10.11,0,0,0-.71-4,6.08,6.08,0,0,0-2-2.59,5.23,5.23,0,0,0-3.11-.93H652.86l-1.05-8.1h23q7.44,0,11.44,4.2t4.24,11.4l.07,2.47a25,25,0,0,1-2.06,11.74,18.7,18.7,0,0,1-6.75,7.69A33,33,0,0,1,671,118.36,71,71,0,0,1,657,120.05Z"/><circle class="cls-9" cx="953.89" cy="78.16" r="22.18"/><line class="cls-8" x1="966.76" y1="100.71" x2="979.78" y2="123.53"/><image width="1057" height="598" transform="translate(31.48 51.38) scale(0.13)" xlink:href="../../logo%20exports/white/300ppi/Artboard%2064%20copy.png"/><image width="5227" height="7345" transform="translate(187.42 34.6) scale(0.01)" xlink:href="../../../Users/StandAlone/Documents/%D7%9C%D7%95%D7%98%D7%9D/%D7%A1%D7%9E%D7%9C%D7%99%D7%9D/%D7%91%D7%94%D7%93%206.png"/><path class="cls-10" d="M791.74,133.94H723.4a3.3,3.3,0,0,1-3.3-3.3V80.53a3.3,3.3,0,0,1,3.3-3.3h68.34a3.06,3.06,0,0,1,2.69,1,3,3,0,0,1,.61,2.35c.38,9-.11,10-.4,9.44l-43.37.21v5.06l43.79.42c.11,22.07.09,33,0,35h0a5.27,5.27,0,0,1-.82,2.49A3,3,0,0,1,791.74,133.94Z"/><circle class="cls-10" cx="738.14" cy="60.45" r="9.85"/><circle class="cls-10" cx="774.12" cy="56.06" r="14.24"/><path class="cls-10" d="M835.48,137.29,803.9,121.58V85.21l31.58-14.74Z"/></g></svg>