<svg xmlns="http://www.w3.org/2000/svg" xmlns:xlink="http://www.w3.org/1999/xlink" viewBox="0 0 1242 2208"><defs><style>.cls-1{fill:#e8e8e8;}.cls-2{fill:#ccc;}.cls-10,.cls-13,.cls-14,.cls-3,.cls-4,.cls-5,.cls-7,.cls-8,.cls-9{fill:none;}.cls-10,.cls-11,.cls-3,.cls-4,.cls-5,.cls-6,.cls-9{stroke:#333;}.cls-10,.cls-11,.cls-13,.cls-14,.cls-3,.cls-4,.cls-6,.cls-8,.cls-9{stroke-linecap:round;}.cls-11,.cls-13,.cls-14,.cls-3,.cls-6,.cls-8,.cls-9{stroke-linejoin:round;}.cls-3,.cls-4,.cls-5,.cls-6{stroke-width:2.58px;}.cls-10,.cls-4,.cls-5,.cls-7{stroke-miterlimit:10;}.cls-11,.cls-12,.cls-6{fill:#333;}.cls-7{stroke:#999;stroke-width:3px;}.cls-13,.cls-14,.cls-8{stroke:#0d635f;}.cls-8{stroke-width:10px;}.cls-10,.cls-9{stroke-width:2.62px;}.cls-11{stroke-width:1.74px;}.cls-13{stroke-width:19.58px;}.cls-14{stroke-width:5px;}</style></defs><g id="Layer_1" data-name="Layer 1"><rect class="cls-1" width="1242" height="2208"/></g><g id="Layer_2" data-name="Layer 2"><rect class="cls-2" x="2.16" y="917.53" width="1242" height="471.36"/><path class="cls-3" d="M1176.13,297.25c-11.08,0-58.32.26-61.2,0h0a5.68,5.68,0,0,0-2.5,0,6.28,6.28,0,0,0-3.86,3.22q.26-38.34.25-76.66v-2.52l67.45-.29a2.84,2.84,0,0,1,2.86,2.81v73.4Z"/><path class="cls-3" d="M1119.92,309.56h-7.46a5.32,5.32,0,0,1-3.14-1.42c-2.27-2.25-1.72-6.65.34-9a5.83,5.83,0,0,1,3.75-2,5.17,5.17,0,0,1,1.48.12q-.21-38-.44-76"/><path class="cls-3" d="M1176.91,297.84a22.91,22.91,0,0,0,0,3.89h0s.26,4.7-.39,6.45l-.09.2a3.28,3.28,0,0,1-.2.34,2.48,2.48,0,0,1-1.39.75,23.7,23.7,0,0,1-2.38.15c-2.23.05-3.89,0-4.26,0-1.8-.09-8.87-.17-29-.17"/><line class="cls-3" x1="1118.08" y1="303.48" x2="1176.98" y2="303.48"/><polyline class="cls-3" points="1123.71 303.48 1123.71 319.82 1129.47 315.32"/><polyline class="cls-3" points="1135.47 303.48 1135.47 319.82 1129.71 315.32"/><path class="cls-4" d="M1154.12,244.65c.83-.16,1.19.49,4,2.75,2.57,2.09,3.21,2.31,3.24,3.13.06,1.44-1.84,2.91-3.56,3.32a4.53,4.53,0,0,1-1.82.06,1.45,1.45,0,0,1-.17.26L1135.47,279a2.22,2.22,0,0,1-3.11.37l-.28-.24a2.2,2.2,0,0,1-.26-3.11l20.29-24.83.13-.12a4.88,4.88,0,0,1-.47-2.22C1151.82,247.16,1152.73,244.93,1154.12,244.65Z"/><line class="cls-4" x1="1166.07" y1="245.49" x2="1161.06" y2="251.62"/><line class="cls-4" x1="1158.18" y1="239.04" x2="1153.17" y2="245.17"/><line class="cls-4" x1="1162.04" y1="242.37" x2="1158.35" y2="246.89"/><path class="cls-4" d="M1149.72,261.56c2,2.28,3.65,4.17,4.74,5.48,3.45,4.14,3.08,4,4.38,5.36,1,1,1.71,2.16,2.62,3.19a2.77,2.77,0,0,1,.85,1.53,2.5,2.5,0,0,1-1.13,2.3,2.63,2.63,0,0,1-1.88.37c-1.06-.21-1.65-1.06-2.33-2-1-1.3-2.07-2.5-3.08-3.77l-1-1.17c-.65-.79-1.14-1.36-1.23-1.47-.59-.69-1.91-2.34-4.92-6.27"/><path class="cls-4" d="M1146.24,257.72c-.84-1-1.55-1.88-2.09-2.56-2-2.56-4-5.21-4-5.21a7.47,7.47,0,0,0,.32-1.19,8.9,8.9,0,0,0-.17-3.92c-1.1-3.71-5-5.15-5.3-5.27a6.84,6.84,0,0,0-4-.33,5,5,0,0,0-2.16,1,5.58,5.58,0,0,0-1.76,3.36,7.53,7.53,0,0,0,.14,3.27,7.94,7.94,0,0,0,6.06,6.11s.24.05,2.93.19h0c.14.18.34.46.6.78.62.82,1.57,1.93,1.83,2.24.88,1,1.73,2.12,2.6,3.18l2,2.5"/><rect class="cls-5" x="1097.82" y="611.3" width="92.05" height="59.14" rx="5.25"/><polyline class="cls-3" points="1150.06 610.66 1151.83 605.48 1162.68 605.48 1173.91 605.48 1175.09 610.66"/><polyline class="cls-3" points="1108.66 610.66 1109.55 607.21 1114.97 607.21 1120.59 607.21 1121.18 610.66"/><circle class="cls-3" cx="1152.67" cy="640.86" r="22.42"/><circle class="cls-6" cx="1152.67" cy="640.86" r="16.76"/><line class="cls-3" x1="1098.61" y1="626.87" x2="1134.87" y2="626.87"/><line class="cls-3" x1="1171.15" y1="626.87" x2="1189.88" y2="626.87"/><path class="cls-3" d="M1192.48,478.05l-1-8.5,2.07-4-5.68-6.95-4.55,1.69-3.82-2.71-.85-4.43-6-.09v0l-5.18.09-1,4.09-4.52,3-4.55-1.69-5.68,6.95,2.06,4-1,8.5-3.51,3.17,3.62,8.9,4.32-.75,8,4.43,1,5,12.5-.34,1.11-4.68,8.32-4.43,4.31.75,3.63-8.9Z"/><circle class="cls-3" cx="1172.57" cy="475.93" r="7.73"/><line class="cls-3" x1="1145.34" y1="490.16" x2="1100.28" y2="490.16"/><line class="cls-3" x1="1142.04" y1="478.2" x2="1100.28" y2="478.2"/><line class="cls-3" x1="1100.28" y1="490.16" x2="1100.28" y2="453.56"/><path class="cls-3" d="M1099.74,453a15.62,15.62,0,0,1-5.29-5.56,19.1,19.1,0,0,1-1.1-16,15.65,15.65,0,0,1,17.25-9.69"/><path class="cls-3" d="M1112.37,430.25c1.25-11.32,10.4-20,21.19-20.65a23,23,0,0,1,22.48,15c.89-.68,6.52-4.85,13.6-2.78,7.49,2.18,10.32,9,10.87,10.51a18.19,18.19,0,0,1-.89,14"/><line class="cls-3" x1="1117.95" y1="437.66" x2="1117.95" y2="451.58"/><line class="cls-3" x1="1135.61" y1="437.4" x2="1135.61" y2="451.32"/><line class="cls-3" x1="1153.28" y1="437.92" x2="1153.28" y2="451.84"/><path class="cls-3" d="M1155.29,859.92h-58.83a2.84,2.84,0,0,1-2.84-2.83V814a2.85,2.85,0,0,1,2.84-2.84h58.83a2.64,2.64,0,0,1,2.31.82,2.56,2.56,0,0,1,.53,2c.33,7.76-.1,8.61-.35,8.13l-37.32.18v4.35l37.68.36c.1,19,.08,28.38,0,30.12h0a4.55,4.55,0,0,1-.71,2.13A2.53,2.53,0,0,1,1155.29,859.92Z"/><circle class="cls-3" cx="1109.15" cy="796.67" r="8.48"/><circle class="cls-3" cx="1140.12" cy="792.89" r="12.25"/><path class="cls-3" d="M1192.93,862.81l-27.17-13.52V818l27.17-12.69Z"/><line class="cls-7" x1="2.16" y1="178.98" x2="1244.16" y2="178.98"/><line class="cls-7" x1="2.16" y1="363.62" x2="1244.16" y2="363.62"/><line class="cls-7" x1="2.16" y1="548.26" x2="1244.16" y2="548.26"/><line class="cls-7" x1="2.16" y1="732.9" x2="1244.16" y2="732.9"/><line class="cls-7" x1="2.16" y1="917.53" x2="1244.16" y2="917.53"/><line class="cls-7" x1="2.16" y1="1095.21" x2="1244.16" y2="1095.21"/><line class="cls-7" x1="2.16" y1="1228.89" x2="1244.16" y2="1228.89"/><line class="cls-7" x1="2.16" y1="1388.89" x2="1244.16" y2="1388.89"/><path d="M698.21,292.36v-40h10.08v40Zm2.1,0V284.8H728.8l-.21,7.56Zm22,0v-27.3a5.32,5.32,0,0,0-1.22-3.92A4.76,4.76,0,0,0,717.6,260h-13v-7.56h15.75a14,14,0,0,1,6.23,1.33,9.65,9.65,0,0,1,4.31,4.2,15.87,15.87,0,0,1,1.57,7.63v26.81Z"/><path d="M740.21,277.66V260.58l-.84-8.19h10.08l.84,8.19V271.5l-.07,4.41Z"/><path d="M756.8,292.36V284.8H767V264.57c0-1.82-.34-3.06-1-3.71a4.73,4.73,0,0,0-2.83-1.19l-4.9-.7,1.26-7.42,8.75,1.12a9.15,9.15,0,0,1,6.58,3.67,13.32,13.32,0,0,1,2.24,8v28.07Z"/><path d="M785,292.36V260.58l-.84-8.19h10.08l.84,8.19v31.78Z"/><path d="M800.9,292.36V284.8h11.2a7.77,7.77,0,0,0,4.58-1.26,7,7,0,0,0,2.56-3.5,15.59,15.59,0,0,0,.77-5v-5.25a15.24,15.24,0,0,0-.77-5,7.17,7.17,0,0,0-2.56-3.5A7.64,7.64,0,0,0,812.1,260H800.9v-7.56h13.93a15.07,15.07,0,0,1,8.5,2.24,13.73,13.73,0,0,1,5.11,6.26,24,24,0,0,1,1.72,9.42v4.13a24.09,24.09,0,0,1-1.72,9.48,13.5,13.5,0,0,1-5.11,6.23,15.3,15.3,0,0,1-8.5,2.21Z"/><path d="M834.92,293.55l-.84-6.86a11.8,11.8,0,0,0,4.06-1.09,3.66,3.66,0,0,0,1.78-2.2,12.11,12.11,0,0,0,.39-3.78V252.39h21.21a13.78,13.78,0,0,1,6.19,1.33,9.67,9.67,0,0,1,4.27,4.2,15.86,15.86,0,0,1,1.58,7.63v26.81H863.48v-27.3a5.2,5.2,0,0,0-1.26-3.92,4.87,4.87,0,0,0-3.5-1.19h-8.26v18.34a18.55,18.55,0,0,1-1.65,8.54,10.32,10.32,0,0,1-5.07,4.69A28.27,28.27,0,0,1,834.92,293.55Z"/><path d="M880.49,292.36l4.83-26.95-5.6-13h10.5l4.69,13.51-4.34,26.46Zm15.33.07.91-7.56c3.45.74,6.13.71,8-.11a7.2,7.2,0,0,0,4-4.51,24.1,24.1,0,0,0,1.09-8.19,23.31,23.31,0,0,0-.91-7.14,7.89,7.89,0,0,0-2.63-4,7.07,7.07,0,0,0-4.3-1.26,7.35,7.35,0,0,0-3.43.8,6.88,6.88,0,0,0-2.52,2.24,7.94,7.94,0,0,0-1.26,3.54l-2.31-4.34q1.4-5.32,4.58-7.74a11.37,11.37,0,0,1,7-2.41,16.48,16.48,0,0,1,6.54,1.22,12.14,12.14,0,0,1,4.8,3.75,17.67,17.67,0,0,1,3,6.37,35.18,35.18,0,0,1,1,9,26.73,26.73,0,0,1-2.7,12.88,15,15,0,0,1-8.08,7.21Q903.38,294.18,895.82,292.43Z"/><path d="M956.51,292.36v-27.3a5.28,5.28,0,0,0-1.23-3.92,4.74,4.74,0,0,0-3.46-1.19H938.17v-7.56h16.38a14,14,0,0,1,6.23,1.33,9.63,9.63,0,0,1,4.3,4.2,15.86,15.86,0,0,1,1.58,7.63v26.81Z"/><path d="M974.08,292.36V284.8h14.13a9.39,9.39,0,0,0,3.65-.67,6.77,6.77,0,0,0,2.69-2,9.37,9.37,0,0,0,1.68-3.11,13.19,13.19,0,0,0,.6-4.13v-5.18a14.22,14.22,0,0,0-.84-5,7.76,7.76,0,0,0-2.59-3.5A7.25,7.25,0,0,0,989,260h-5l-1.26,5.95a5.17,5.17,0,0,0,.42,3.92c.6.89,1.89,1.54,3.85,2l-1.61,6.3q-5.11-.15-7.81-1.89a8,8,0,0,1-3.5-4.66,15.51,15.51,0,0,1-.25-6.54l2.81-12.6h14.77a15,15,0,0,1,8.36,2.24,14.51,14.51,0,0,1,5.32,6.23,22,22,0,0,1,1.86,9.38v4.2a23.17,23.17,0,0,1-1.16,7.56,15.48,15.48,0,0,1-3.33,5.67,14.13,14.13,0,0,1-5.14,3.5,17.9,17.9,0,0,1-6.68,1.19Z"/><path d="M1017,293.06,1013.13,260l9.59-4.48,3.08,28.63a26.56,26.56,0,0,0,5.22-1,10.19,10.19,0,0,0,3.67-1.89,8.73,8.73,0,0,0,2.31-2.94,13.1,13.1,0,0,0,1.16-4,28.4,28.4,0,0,0,.17-5.25V267a9.39,9.39,0,0,0-.66-3.71,5.61,5.61,0,0,0-1.89-2.42,4.91,4.91,0,0,0-2.91-.87h-19.74l-1-7.56h21.49q6.93,0,10.68,3.92t4,10.64l.07,2.31a23.42,23.42,0,0,1-1.92,10.95,17.41,17.41,0,0,1-6.3,7.18,31,31,0,0,1-10,4.09A66.55,66.55,0,0,1,1017,293.06Z"/><path d="M746,479.15V454.93a20,20,0,0,1,.53-4.83,9.71,9.71,0,0,1,1.43-3.36H730.06v-7.56h32.83v7.56h-5.46a14.57,14.57,0,0,0-1,4,33.62,33.62,0,0,0-.28,4.16v24.22Z"/><path d="M769.82,479.15V447.37l-.84-8.19h10.08l.84,8.19v31.78Z"/><path d="M786.9,479.15l4.83-26.95-5.6-13h10.5l4.69,13.51L797,479.15Zm15.33.07.91-7.56c3.45.75,6.14.72,8.05-.1a7.22,7.22,0,0,0,4-4.52,23.82,23.82,0,0,0,1.09-8.19,23,23,0,0,0-.91-7.14,7.82,7.82,0,0,0-2.63-4,7,7,0,0,0-4.3-1.26,7.26,7.26,0,0,0-3.43.81,6.8,6.8,0,0,0-2.52,2.24,8.15,8.15,0,0,0-1.26,3.53l-2.31-4.34q1.39-5.31,4.58-7.73a11.4,11.4,0,0,1,7-2.42,16.3,16.3,0,0,1,6.54,1.23,12.05,12.05,0,0,1,4.8,3.74,17.59,17.59,0,0,1,3,6.37,35.72,35.72,0,0,1,1,9,26.45,26.45,0,0,1-2.7,12.88,14.92,14.92,0,0,1-8.08,7.21Q809.78,481,802.23,479.22Z"/><path d="M832.89,464.45V447.37l-.84-8.19h10.08l.84,8.19v10.92l-.07,4.41Z"/><path d="M848.92,446.74V429H858v17.78Zm7.77,32.41,12.53-32.41h-20.3v-7.56h30.45v8.33l-12.6,31.64Z"/><path d="M899.88,464.45V447.37l-.84-8.19h10.08l.84,8.19v10.92l-.07,4.41Z"/><path d="M934,479.15v-27.3a5.29,5.29,0,0,0-1.23-3.92,4.78,4.78,0,0,0-3.46-1.19H915.7v-7.56h16.38a14.15,14.15,0,0,1,6.23,1.33,9.73,9.73,0,0,1,4.3,4.2,15.89,15.89,0,0,1,1.58,7.63v26.81Z"/><path d="M951.12,479.15,956,452.2l-5.6-13h10.5l4.69,13.51-4.34,26.46Zm15.33.07.91-7.56q5.17,1.13,8-.1a7.22,7.22,0,0,0,4-4.52,24.06,24.06,0,0,0,1.09-8.19,23.31,23.31,0,0,0-.91-7.14,7.89,7.89,0,0,0-2.63-4,7.07,7.07,0,0,0-4.3-1.26,7.23,7.23,0,0,0-3.43.81,6.8,6.8,0,0,0-2.52,2.24,7.9,7.9,0,0,0-1.26,3.53l-2.31-4.34q1.4-5.31,4.58-7.73a11.38,11.38,0,0,1,7-2.42,16.3,16.3,0,0,1,6.54,1.23,12.12,12.12,0,0,1,4.8,3.74,17.75,17.75,0,0,1,3,6.37,35.24,35.24,0,0,1,1,9,26.68,26.68,0,0,1-2.7,12.88,15,15,0,0,1-8.08,7.21Q974,481,966.45,479.22Z"/><path d="M997.11,479.15V447.37l-.84-8.19h10.08l.84,8.19v31.78Z"/><path d="M1038.89,479.15V452.2q0-5.46-4.68-5.46h-19.46v-7.56h22.18a13.63,13.63,0,0,1,6.3,1.4,9.84,9.84,0,0,1,4.27,4.38,16.76,16.76,0,0,1,1.54,7.73v26.46Zm-24.14,0V443.73h10.08v35.42Z"/><path d="M858.77,664.19l-.84-6.86a11.83,11.83,0,0,0,4.06-1.08,3.68,3.68,0,0,0,1.78-2.21,11.82,11.82,0,0,0,.39-3.78V623h21.21a13.91,13.91,0,0,1,6.19,1.33,9.77,9.77,0,0,1,4.27,4.2,15.89,15.89,0,0,1,1.58,7.63V663H887.33V635.7a5.21,5.21,0,0,0-1.26-3.92,4.91,4.91,0,0,0-3.5-1.19h-8.26v18.34a18.52,18.52,0,0,1-1.65,8.54,10.23,10.23,0,0,1-5.07,4.69A27.72,27.72,0,0,1,858.77,664.19Z"/><path d="M905.39,663V631.22l-.84-8.19h10.08l.84,8.19V663Z"/><path d="M922,663v-7.56H932.2V635.21c0-1.82-.34-3.05-1-3.71a4.76,4.76,0,0,0-2.84-1.19l-4.89-.7,1.26-7.42,8.75,1.12A9.16,9.16,0,0,1,940,627a13.29,13.29,0,0,1,2.24,7.94V663Z"/><path d="M950.18,663V631.22l-.84-8.19h10.08l.84,8.19V663Z"/><path d="M967.26,663l4.83-27-5.6-13H977l4.69,13.51L977.34,663Zm15.33.07.91-7.56q5.19,1.13,8-.1a7.21,7.21,0,0,0,4-4.52,23.84,23.84,0,0,0,1.08-8.19,23,23,0,0,0-.91-7.14,7.81,7.81,0,0,0-2.62-4,7.08,7.08,0,0,0-4.31-1.26,7.26,7.26,0,0,0-3.43.81,7,7,0,0,0-2.52,2.24,8.15,8.15,0,0,0-1.26,3.53l-2.31-4.34c.94-3.54,2.46-6.12,4.59-7.73a11.37,11.37,0,0,1,7-2.42,16.32,16.32,0,0,1,6.55,1.23,12,12,0,0,1,4.79,3.74,17.59,17.59,0,0,1,3,6.37,35.26,35.26,0,0,1,1,9,26.56,26.56,0,0,1-2.69,12.88,15,15,0,0,1-8.09,7.21Q990.16,664.83,982.59,663.07Z"/><path d="M1011.08,664.19l-.84-6.86a11.76,11.76,0,0,0,4.06-1.08,3.66,3.66,0,0,0,1.79-2.21,11.85,11.85,0,0,0,.38-3.78V623h21.21a13.93,13.93,0,0,1,6.2,1.33,9.77,9.77,0,0,1,4.27,4.2,15.89,15.89,0,0,1,1.57,7.63V663h-10.08V635.7a5.21,5.21,0,0,0-1.26-3.92,4.9,4.9,0,0,0-3.5-1.19h-8.26v18.34a18.53,18.53,0,0,1-1.64,8.54,10.25,10.25,0,0,1-5.08,4.69A27.58,27.58,0,0,1,1011.08,664.19Z"/><path d="M675.81,849V829.85l1.4-4.69H686V849Zm23.38,0v-27.3a5.29,5.29,0,0,0-1.23-3.92,4.76,4.76,0,0,0-3.46-1.19H676.23V809h21a14.15,14.15,0,0,1,6.23,1.33,9.81,9.81,0,0,1,4.31,4.2,15.89,15.89,0,0,1,1.57,7.63V849Z"/><path d="M714.59,849V841.4h11.2a7.8,7.8,0,0,0,4.59-1.26,6.89,6.89,0,0,0,2.55-3.5,15.51,15.51,0,0,0,.77-5v-5.25a15.22,15.22,0,0,0-.77-5,7.11,7.11,0,0,0-2.55-3.5,7.6,7.6,0,0,0-4.59-1.3h-11.2V809h13.93a15.12,15.12,0,0,1,8.5,2.24,13.7,13.7,0,0,1,5.11,6.27,23.73,23.73,0,0,1,1.72,9.41V831a24,24,0,0,1-1.72,9.49,13.49,13.49,0,0,1-5.11,6.23,15.28,15.28,0,0,1-8.5,2.2Z"/><path d="M766.81,849v-27.3a5.29,5.29,0,0,0-1.23-3.92,4.76,4.76,0,0,0-3.46-1.19H748.47V809h16.38a14.15,14.15,0,0,1,6.23,1.33,9.73,9.73,0,0,1,4.3,4.2,15.89,15.89,0,0,1,1.58,7.63V849Z"/><path d="M799.08,849V824.74a20,20,0,0,1,.52-4.83,9.71,9.71,0,0,1,1.44-3.36H783.12V809H816v7.56h-5.46a13.9,13.9,0,0,0-1,4,33.5,33.5,0,0,0-.28,4.16V849Z"/><path d="M822,849V829.85l1.4-4.69h8.75V849Zm23.38,0v-27.3a5.29,5.29,0,0,0-1.23-3.92,4.76,4.76,0,0,0-3.46-1.19H822.39V809h21a14.15,14.15,0,0,1,6.23,1.33,9.73,9.73,0,0,1,4.3,4.2,15.89,15.89,0,0,1,1.58,7.63V849Z"/><path d="M877,834.26V817.18l-.84-8.19h10.08l.84,8.19V828.1l-.07,4.41Z"/><path d="M893.58,849V841.4H903.8V821.17c0-1.82-.34-3-1-3.71a4.75,4.75,0,0,0-2.83-1.19l-4.9-.7,1.26-7.42,8.75,1.12a9.16,9.16,0,0,1,6.58,3.68,13.27,13.27,0,0,1,2.24,7.94V849Z"/><path d="M921.79,849V817.18L921,809H931l.84,8.19V849Z"/><path d="M943.14,849.66,938.45,809H948.6L952,840.7a20.22,20.22,0,0,0,6.37-1.5,10.63,10.63,0,0,0,6.33-7.39,20.83,20.83,0,0,0,.6-5.67V824a9.52,9.52,0,0,0-.7-3.64,6.82,6.82,0,0,0-2.24-2.83,7.16,7.16,0,0,0-3.92-1.3L955,816l.77-7.77,4.27.21a19.23,19.23,0,0,1,7.45,1.82,13.37,13.37,0,0,1,5.39,4.73,14.91,14.91,0,0,1,2.21,7.94l.07,2a23.93,23.93,0,0,1-1.93,11,18.59,18.59,0,0,1-6.37,7.52,31.12,31.12,0,0,1-10.25,4.45A69.31,69.31,0,0,1,943.14,849.66Z"/><path d="M997.31,849v-27.3a5.29,5.29,0,0,0-1.22-3.92,4.79,4.79,0,0,0-3.47-1.19H979V809h16.38a14.12,14.12,0,0,1,6.23,1.33,9.76,9.76,0,0,1,4.31,4.2,15.89,15.89,0,0,1,1.57,7.63V849Z"/><path d="M1018.8,849.66,1015,816.55l9.59-4.48,3.08,28.63a26.61,26.61,0,0,0,5.22-.94,10.51,10.51,0,0,0,3.67-1.89,8.93,8.93,0,0,0,2.31-2.94,13.25,13.25,0,0,0,1.16-4,28.4,28.4,0,0,0,.17-5.25v-2.1a9.43,9.43,0,0,0-.66-3.71,5.66,5.66,0,0,0-1.89-2.41,4.85,4.85,0,0,0-2.91-.88H1015l-1-7.56h21.49q6.93,0,10.68,3.92t3.95,10.64l.07,2.31a23.49,23.49,0,0,1-1.92,11,17.59,17.59,0,0,1-6.3,7.17,31,31,0,0,1-10,4.1A66.59,66.59,0,0,1,1018.8,849.66Z"/><path class="cls-8" d="M96.52,276.51l30.62,27.42"/><path class="cls-8" d="M127.14,249.09,96.52,276.51"/><path class="cls-8" d="M100,458.91l30.61,27.42"/><path class="cls-8" d="M130.65,431.49,100,458.91"/><path class="cls-8" d="M93,641.31l30.61,27.42"/><path class="cls-8" d="M123.62,613.89,93,641.31"/><path class="cls-8" d="M118.87,839l27.42-30.62"/><path class="cls-8" d="M91.44,808.4,118.87,839"/><path class="cls-9" d="M1163.33,1049.44c-11.22,0-59.07.27-62,0h0a5.73,5.73,0,0,0-2.54,0,6.29,6.29,0,0,0-3.9,3.25q.24-38.82.25-77.64v-2.55l68.31-.29a2.87,2.87,0,0,1,2.89,2.84v74.34Z"/><path class="cls-9" d="M1106.4,1061.9h-7.55a5.33,5.33,0,0,1-3.18-1.44c-2.3-2.28-1.75-6.73.34-9.08a5.93,5.93,0,0,1,3.8-2.06,5,5,0,0,1,1.5.12l-.45-76.93"/><path class="cls-9" d="M1164.12,1050a23.3,23.3,0,0,0,0,3.94h0s.27,4.77-.39,6.54l-.09.2a3.28,3.28,0,0,1-.2.34,2.42,2.42,0,0,1-1.41.76,20.74,20.74,0,0,1-2.41.16c-2.26,0-3.94,0-4.32,0-1.82-.09-9-.17-29.32-.18"/><line class="cls-9" x1="1104.54" y1="1055.75" x2="1164.19" y2="1055.75"/><polyline class="cls-9" points="1110.24 1055.75 1110.24 1072.3 1116.08 1067.74"/><polyline class="cls-9" points="1122.15 1055.75 1122.15 1072.3 1116.31 1067.74"/><path class="cls-10" d="M1141,996.18c.84-.17,1.2.49,4,2.77,2.6,2.13,3.25,2.35,3.28,3.18.06,1.46-1.87,3-3.61,3.36a4.63,4.63,0,0,1-1.84.06,1.45,1.45,0,0,1-.17.26L1122.15,1031a2.25,2.25,0,0,1-3.15.37l-.29-.24a2.24,2.24,0,0,1-.26-3.15l20.55-25.14.13-.13a4.86,4.86,0,0,1-.47-2.25C1138.71,998.71,1139.63,996.46,1141,996.18Z"/><line class="cls-10" x1="1153.14" y1="997.02" x2="1148.06" y2="1003.23"/><line class="cls-10" x1="1145.15" y1="990.49" x2="1140.07" y2="996.7"/><line class="cls-10" x1="1149.06" y1="993.86" x2="1145.32" y2="998.44"/><path class="cls-10" d="M1136.58,1013.3c2.08,2.31,3.7,4.22,4.8,5.54,3.5,4.2,3.12,4,4.44,5.43,1,1,1.73,2.19,2.65,3.24a2.84,2.84,0,0,1,.86,1.55,2.56,2.56,0,0,1-1.14,2.32,2.7,2.7,0,0,1-1.91.38c-1.07-.22-1.67-1.08-2.36-2-1-1.32-2.1-2.54-3.12-3.83l-1-1.18-1.24-1.49c-.6-.7-1.94-2.37-5-6.35"/><path class="cls-10" d="M1133.06,1009.4c-.86-1-1.57-1.89-2.12-2.59-2.06-2.59-4-5.27-4-5.27a7.81,7.81,0,0,0,.32-1.21,8.91,8.91,0,0,0-.17-4c-1.11-3.76-5-5.22-5.37-5.34a6.83,6.83,0,0,0-4-.34,5,5,0,0,0-2.19,1,5.57,5.57,0,0,0-1.77,3.4,7.4,7.4,0,0,0,.14,3.31,8.14,8.14,0,0,0,1.69,3.49,8.26,8.26,0,0,0,4.44,2.7s.25.05,3,.19h0l.61.79c.63.83,1.58,2,1.85,2.27.89,1.06,1.75,2.15,2.63,3.22l2.07,2.53"/><path class="cls-9" d="M1166.54,1142a98.46,98.46,0,0,1-32.93-15,100.2,100.2,0,0,1-32.92,15c0,1.1,0,2.7,0,4.63.21,9.5,1.79,20.57,4.41,27.77,5.68,15.58,21.32,26.9,28.51,31.58,7.19-4.68,22.84-16,28.52-31.58,2.62-7.2,4.19-18.27,4.41-27.77C1166.58,1144.7,1166.56,1143.1,1166.54,1142Z"/><polygon class="cls-11" points="1122.31 1167.63 1129.37 1175.4 1144.91 1160.18 1141.86 1157.6 1129.65 1170.12 1124.58 1164.26 1122.31 1167.63"/><circle class="cls-9" cx="1133.61" cy="1166.5" r="18.7"/><path class="cls-9" d="M1135.1,1276.56a23.77,23.77,0,0,0-5.37-4.81c-1-.64-11.47-7.23-23.06-2.4a25.15,25.15,0,0,0-13.29,13.75"/><path class="cls-9" d="M1135.1,1276.56a23.77,23.77,0,0,1,5.37-4.81c.88-.57,11.44-7.2,23.06-2.4,10.27,4.24,13.54,14.16,14.28,16.4,4.32,13.08-2.89,24.29-4.1,26.17-2.37,3.69-5,6-9.76,9.76a246.69,246.69,0,0,1-28.85,19.37,275.91,275.91,0,0,1-24.4-16c-9.09-6.68-12.53-10.08-15.2-14.85a36.38,36.38,0,0,1-4.47-16"/><path class="cls-9" d="M1079.77,1288.81h19.55l9-13,9.05,35.36,7.47-18.43,27.32,0"/><path class="cls-12" d="M860.64,1032.8V998.54h8.64v34.26Zm1.8,0v-6.48h24.42l-.18,6.48Zm18.84,0v-23.4a4.54,4.54,0,0,0-1-3.36,4.09,4.09,0,0,0-3-1H866.1v-6.48h13.5a12,12,0,0,1,5.34,1.14,8.32,8.32,0,0,1,3.69,3.6,13.6,13.6,0,0,1,1.35,6.54v23Z"/><path class="cls-12" d="M896.64,1020.2v-14.64l-.72-7h8.64l.72,7v9.36l-.06,3.78Z"/><path class="cls-12" d="M910.86,1032.8v-6.48h8.76V1009a4.42,4.42,0,0,0-.87-3.18,4.06,4.06,0,0,0-2.43-1l-4.2-.6,1.08-6.36,7.5,1a7.82,7.82,0,0,1,5.64,3.15,11.38,11.38,0,0,1,1.92,6.81v24.06Z"/><path class="cls-12" d="M935,1032.8v-27.24l-.72-7H943l.72,7v27.24Z"/><path class="cls-12" d="M948.66,1032.8v-6.48h9.6a6.66,6.66,0,0,0,3.93-1.08,5.91,5.91,0,0,0,2.19-3,13.24,13.24,0,0,0,.66-4.32v-4.5a13,13,0,0,0-.66-4.29,6.08,6.08,0,0,0-2.19-3,6.53,6.53,0,0,0-3.93-1.11h-9.6v-6.48H960.6a13,13,0,0,1,7.29,1.92,11.78,11.78,0,0,1,4.38,5.37,20.47,20.47,0,0,1,1.47,8.07v3.54a20.63,20.63,0,0,1-1.47,8.13,11.6,11.6,0,0,1-4.38,5.34,13.13,13.13,0,0,1-7.29,1.89Z"/><path class="cls-12" d="M977.82,1033.82l-.72-5.88a10.17,10.17,0,0,0,3.48-.93,3.14,3.14,0,0,0,1.53-1.89,10.14,10.14,0,0,0,.33-3.24V998.54h18.18a11.85,11.85,0,0,1,5.31,1.14,8.36,8.36,0,0,1,3.66,3.6,13.6,13.6,0,0,1,1.35,6.54v23h-8.64v-23.4a4.46,4.46,0,0,0-1.08-3.36,4.2,4.2,0,0,0-3-1h-7.08v15.72a15.93,15.93,0,0,1-1.41,7.32,8.8,8.8,0,0,1-4.35,4A24,24,0,0,1,977.82,1033.82Z"/><path class="cls-12" d="M1016.88,1032.8l4.14-23.1-4.8-11.16h9l4,11.58-3.72,22.68Zm13.14.06.78-6.48q4.44,1,6.9-.09a6.19,6.19,0,0,0,3.45-3.87,20.52,20.52,0,0,0,.93-7,19.8,19.8,0,0,0-.78-6.12,6.72,6.72,0,0,0-2.25-3.42,6.07,6.07,0,0,0-3.69-1.08,6.25,6.25,0,0,0-2.94.69,5.87,5.87,0,0,0-2.16,1.92,6.91,6.91,0,0,0-1.08,3l-2-3.72a11.72,11.72,0,0,1,3.93-6.63,9.75,9.75,0,0,1,6-2.07,14,14,0,0,1,5.61,1,10.34,10.34,0,0,1,4.11,3.21,15,15,0,0,1,2.55,5.46,30.3,30.3,0,0,1,.87,7.68,22.79,22.79,0,0,1-2.31,11,12.85,12.85,0,0,1-6.93,6.18Q1036.5,1034.36,1030,1032.86Z"/><path class="cls-12" d="M881.45,1175.58l-.72-5.88a10.17,10.17,0,0,0,3.48-.93,3.14,3.14,0,0,0,1.53-1.89,10.14,10.14,0,0,0,.33-3.24V1140.3h18.18a11.85,11.85,0,0,1,5.31,1.14,8.36,8.36,0,0,1,3.66,3.6,13.6,13.6,0,0,1,1.35,6.54v23h-8.64v-23.4a4.46,4.46,0,0,0-1.08-3.36,4.2,4.2,0,0,0-3-1h-7.08v15.72a15.93,15.93,0,0,1-1.41,7.32,8.8,8.8,0,0,1-4.35,4A24,24,0,0,1,881.45,1175.58Z"/><path class="cls-12" d="M921.41,1174.56v-27.24l-.72-7h8.64l.72,7v27.24Z"/><path class="cls-12" d="M957.23,1174.56v-23.1q0-4.68-4-4.68H936.53v-6.48h19a11.67,11.67,0,0,1,5.4,1.2,8.41,8.41,0,0,1,3.66,3.75,14.42,14.42,0,0,1,1.32,6.63v22.68Zm-20.7,0V1144.2h8.64v30.36Z"/><path class="cls-12" d="M972.65,1162v-14.64l-.72-7h8.64l.72,7v9.36l-.06,3.78Z"/><path class="cls-12" d="M991,1175.16l-4-34.86h8.7l2.94,27.18a17.39,17.39,0,0,0,5.46-1.29,9.13,9.13,0,0,0,5.43-6.33,17.53,17.53,0,0,0,.51-4.86v-1.86a8,8,0,0,0-.6-3.12,5.79,5.79,0,0,0-1.92-2.43,6.06,6.06,0,0,0-3.36-1.11l-2.94-.18.66-6.66,3.66.18a16.43,16.43,0,0,1,6.39,1.56,11.43,11.43,0,0,1,4.62,4,12.78,12.78,0,0,1,1.89,6.81l.06,1.68a20.46,20.46,0,0,1-1.65,9.39,15.91,15.91,0,0,1-5.46,6.45,26.58,26.58,0,0,1-8.79,3.81A59.3,59.3,0,0,1,991,1175.16Z"/><path class="cls-12" d="M1038.11,1174.56v-23.4a4.54,4.54,0,0,0-1-3.36,4.17,4.17,0,0,0-3-1h-11.76v-6.48h14.16a12,12,0,0,1,5.34,1.14,8.16,8.16,0,0,1,3.66,3.6,13.86,13.86,0,0,1,1.32,6.54v23Zm-15.84,0v-6.48h28.5v6.48Z"/><path class="cls-12" d="M906.64,1316.32v-6.48h24l2.46,6.48Zm20,0-19.32-34.26H916l19.32,34.26Zm.54-13.44-4.92-7.38,5.46-13.44h8.52Z"/><path class="cls-12" d="M947,1295.14a4.56,4.56,0,0,1-4-2,9.4,9.4,0,0,1-1.38-5.49,13.11,13.11,0,0,1,2-7.29,15,15,0,0,1,6.18-5.19l1.86,3.6a10.59,10.59,0,0,0-4,3.15,7.44,7.44,0,0,0-1.32,4.47l.3,5-2.82-3.84a6.69,6.69,0,0,1,1.44-.9,3.82,3.82,0,0,1,1.62-.36,4.58,4.58,0,0,1,3.09,1.11,3.79,3.79,0,0,1,1.29,3,4.69,4.69,0,0,1-1.23,3.42A4.21,4.21,0,0,1,947,1295.14Zm13.62,0a4.56,4.56,0,0,1-4-2,9.4,9.4,0,0,1-1.38-5.49,13.11,13.11,0,0,1,2-7.29,15,15,0,0,1,6.18-5.19l1.86,3.6a10.59,10.59,0,0,0-4,3.15,7.44,7.44,0,0,0-1.32,4.47l.3,5-2.82-3.84a6.69,6.69,0,0,1,1.44-.9,3.82,3.82,0,0,1,1.62-.36,4.58,4.58,0,0,1,3.09,1.11,3.79,3.79,0,0,1,1.29,3,4.69,4.69,0,0,1-1.23,3.42A4.21,4.21,0,0,1,960.64,1295.14Z"/><path class="cls-12" d="M972.4,1316.32v-16.38l1.2-4h7.5v20.4Zm20,0v-23.4a4.54,4.54,0,0,0-1.05-3.36,4.09,4.09,0,0,0-3-1H972.76v-6.48h18a12,12,0,0,1,5.34,1.14,8.32,8.32,0,0,1,3.69,3.6,13.6,13.6,0,0,1,1.35,6.54v23Z"/><path class="cls-12" d="M1007.56,1316.32v-27.24l-.72-7h8.64l.72,7v27.24Z"/><path class="cls-12" d="M1037.56,1316.32v-23.4a4.54,4.54,0,0,0-1-3.36,4.17,4.17,0,0,0-3-1h-11.76v-6.48h14.16a12,12,0,0,1,5.34,1.14,8.16,8.16,0,0,1,3.66,3.6,13.86,13.86,0,0,1,1.32,6.54v23Zm-15.84,0v-6.48h28.5v6.48Z"/><line class="cls-7" x1="0.97" y1="2098.83" x2="1242.97" y2="2098.83"/><line class="cls-13" x1="1097.98" y1="69.74" x2="1157.68" y2="124.12"/><line class="cls-13" x1="1157.68" y1="69.74" x2="1097.98" y2="124.12"/><line class="cls-7" x1="864.26" y1="17.32" x2="864.26" y2="164.52"/><circle class="cls-14" cx="963.16" cy="85.59" r="22.18"/><line class="cls-8" x1="976.03" y1="108.15" x2="989.05" y2="130.97"/><image width="5227" height="7345" transform="translate(46.47 40.58) scale(0.01)" xlink:href="../../../Users/StandAlone/Documents/%D7%9C%D7%95%D7%98%D7%9D/%D7%A1%D7%9E%D7%9C%D7%99%D7%9D/%D7%91%D7%94%D7%93%206.png"/><image width="330" height="176" transform="translate(147.57 59.66) scale(0.41)" xlink:href="../../logo%20exports/100ppi/Artboard%2064.png"/></g></svg>