<svg xmlns="http://www.w3.org/2000/svg" viewBox="0 0 1242 2208"><defs><style>.cls-1{fill:#e8e8e8;}.cls-2{fill:gray;}.cls-3{fill:none;stroke:#fff;stroke-linecap:round;stroke-linejoin:round;stroke-width:5px;}</style></defs><g id="Layer_1" data-name="Layer 1"><rect class="cls-1" width="1242" height="2208"/></g><g id="Layer_2" data-name="Layer 2"><path d="M191.07,94.32l-1-2.34a7.61,7.61,0,0,0,3.12-2.35,5.43,5.43,0,0,0,1.11-3.36l-.42-3.45,1.89,2.81a1.85,1.85,0,0,1-.87.62,3.4,3.4,0,0,1-1.06.16,3.06,3.06,0,0,1-2-.69,2.76,2.76,0,0,1,0-4,3.05,3.05,0,0,1,2-.74,2.8,2.8,0,0,1,2.46,1.22,5.83,5.83,0,0,1,.86,3.38,8.8,8.8,0,0,1-1.64,5.27A10.15,10.15,0,0,1,191.07,94.32Z"/><path d="M214.81,86.41V69.12c0-1.91-.42-3.23-1.24-4A4.73,4.73,0,0,0,210.25,64h-8.46V60.7h9.47a9.08,9.08,0,0,1,4.05.85,6.05,6.05,0,0,1,2.74,2.74,10.77,10.77,0,0,1,1,5V86.41Zm-13,0V83.1h20.47v3.31Z"/><path d="M227.37,86.41V66.08l-.6-5.38H231l.6,5.38V86.41Z"/><path d="M240.06,86.87,236.79,60.7h4.05l2.72,22.54A20.16,20.16,0,0,0,249.74,82a11.77,11.77,0,0,0,4.4-3,12.1,12.1,0,0,0,2.6-4.71,21.91,21.91,0,0,0,.8-6.53l0-7h4.23l0,6.85a21.72,21.72,0,0,1-2.32,10.77,14.75,14.75,0,0,1-7.2,6.41A30.12,30.12,0,0,1,240.06,86.87Zm2-10L241,74a13.55,13.55,0,0,0,3.75-2.24,6.87,6.87,0,0,0,1.95-3.15,17,17,0,0,0,.6-5l0-2.81h4l0,2.71a18.21,18.21,0,0,1-.95,5.94,10.1,10.1,0,0,1-2.92,4.25A19,19,0,0,1,242,76.84Z"/><path d="M276.72,86.41V66.08l-.6-5.38h4.24l.59,5.38V86.41Z"/><path d="M285.37,87.1l-.41-3a6.87,6.87,0,0,0,2.85-.8,3.28,3.28,0,0,0,1.4-1.75,8.58,8.58,0,0,0,.39-2.78V60.7h11.82a9.08,9.08,0,0,1,4.05.85,6.05,6.05,0,0,1,2.74,2.74,10.77,10.77,0,0,1,1,5V86.41H305V69.12c0-1.91-.41-3.23-1.22-4A4.71,4.71,0,0,0,300.41,64h-6.58V78.32a10.76,10.76,0,0,1-.89,4.73,6.15,6.15,0,0,1-2.76,2.81A13.17,13.17,0,0,1,285.37,87.1Z"/><path d="M315.5,86.41V66.08l-.6-5.38h4.23l.6,5.38V86.41Z"/><path d="M347.56,86.41H343L332.93,71.23,328.2,86.41h-4.05l5.06-15.82,1.24-3.13-4.19-6.76h4.28l4,6.34,4.1,6.12,1.1-3.91,2.53-8.55h4.1l-5.25,16.14Z"/><path d="M361.54,86.41V60.7h4.24V86.41Zm1,0V83.1h18.17l-.28,3.31Zm15.36,0V69.12c0-1.91-.41-3.23-1.22-4A4.67,4.67,0,0,0,373.37,64h-9.25V60.7h10.26a9.14,9.14,0,0,1,4.05.85,6.08,6.08,0,0,1,2.73,2.74,10.77,10.77,0,0,1,1,5V86.41Z"/><path d="M388.5,76.75V66.08l-.6-5.38h4.23l.6,5.38v7l0,2.89Z"/><path d="M397.61,64V53.43h3.86V64Zm5.33,22.4L411.68,64H397.61V60.7h18.31v3.59l-8.74,22.12Z"/><path d="M421.16,86.41V83.1h7.91a9.22,9.22,0,0,0,2.95-.44,6.08,6.08,0,0,0,2.32-1.38,6.28,6.28,0,0,0,1.54-2.48,11.3,11.3,0,0,0,.55-3.8V72.06a12.43,12.43,0,0,0-.67-4.37,5.49,5.49,0,0,0-2-2.74,6,6,0,0,0-3.45-.94h-4.46l-1.15,4.83a5.86,5.86,0,0,0,.13,3.73c.43.85,1.48,1.45,3.13,1.79l-.78,2.81a8.49,8.49,0,0,1-4.37-1.36,4.91,4.91,0,0,1-1.93-3,10.85,10.85,0,0,1,0-4.32l1.8-7.82h8.42A9.45,9.45,0,0,1,436.22,62a8.55,8.55,0,0,1,3.29,3.89,15.19,15.19,0,0,1,1.15,6.28v2.62a15.62,15.62,0,0,1-.8,5.29,9,9,0,0,1-5.75,5.66,13.4,13.4,0,0,1-4.21.64Z"/><path d="M453.68,86.41l-.37-3.26a13.92,13.92,0,0,0,2.88-.67A6.37,6.37,0,0,0,458.58,81a7.61,7.61,0,0,0,1.7-2.92,17.6,17.6,0,0,0,.85-4.74l.74-9.29H445.45V60.7h21l-.18,2.94-.69,8.74a22.78,22.78,0,0,1-1,5.94,13,13,0,0,1-2.34,4.34,10.16,10.16,0,0,1-3.64,2.74A12.2,12.2,0,0,1,453.68,86.41Zm-8.23,9.2V73.39l.59-3.12h3.64V95.61Z"/><path d="M471.12,86.41l3.35-17.85-3.59-7.86h4.37l3.22,8-3.12,17.66Zm8.83.09.41-3.26a10,10,0,0,0,6-.19,6.05,6.05,0,0,0,3.27-3.56,17.55,17.55,0,0,0,.92-6.65,14.42,14.42,0,0,0-.88-5.36,5.76,5.76,0,0,0-2.2-2.8,5.91,5.91,0,0,0-3.18-.85,5.69,5.69,0,0,0-3,.73,5.57,5.57,0,0,0-1.93,2,8.58,8.58,0,0,0-1,2.69l-1.15-2.12a8.47,8.47,0,0,1,3-5.08A7.82,7.82,0,0,1,485,60.42a10.36,10.36,0,0,1,3.8.67,7.59,7.59,0,0,1,3,2.14,10.42,10.42,0,0,1,2,3.84,20.93,20.93,0,0,1,.79,5.77A18.16,18.16,0,0,1,493,81.49a9.34,9.34,0,0,1-5,4.72A13.87,13.87,0,0,1,480,86.5Z"/><path d="M500.19,86.41V66.08l-.6-5.38h4.23l.6,5.38V86.41Z"/><path d="M531.28,86.41V69.12c0-1.91-.41-3.23-1.24-4A4.7,4.7,0,0,0,526.73,64H518.4V60.7h9.34a9.14,9.14,0,0,1,4,.85,6.1,6.1,0,0,1,2.74,2.74,10.91,10.91,0,0,1,1,5V86.41Z"/><path d="M553.18,86.41V69.12c0-1.91-.42-3.23-1.24-4A4.73,4.73,0,0,0,548.62,64H540.3V60.7h9.34a9.06,9.06,0,0,1,4,.85,6.05,6.05,0,0,1,2.74,2.74,10.77,10.77,0,0,1,1,5V86.41Z"/><path d="M571.21,86.41l-.37-3.26a14.07,14.07,0,0,0,2.88-.67A6.37,6.37,0,0,0,576.11,81a7.61,7.61,0,0,0,1.7-2.92,17.6,17.6,0,0,0,.85-4.74L579.4,64H563V60.7h21l-.18,2.94-.69,8.74a22.78,22.78,0,0,1-1,5.94,13,13,0,0,1-2.34,4.34,10.16,10.16,0,0,1-3.64,2.74A12.2,12.2,0,0,1,571.21,86.41ZM563,95.61V73.39l.59-3.12h3.64V95.61Z"/><path d="M588.64,86.41,592,68.56l-3.59-7.86h4.37l3.22,8-3.12,17.66Zm8.84.09.41-3.26a10,10,0,0,0,6-.19,6.05,6.05,0,0,0,3.27-3.56,17.55,17.55,0,0,0,.92-6.65,14.63,14.63,0,0,0-.88-5.36,5.77,5.77,0,0,0-2.21-2.8,5.88,5.88,0,0,0-3.17-.85,5.66,5.66,0,0,0-3,.73,5.57,5.57,0,0,0-1.93,2,8.58,8.58,0,0,0-1,2.69l-1.15-2.12a8.42,8.42,0,0,1,3-5.08,7.82,7.82,0,0,1,4.74-1.59,10.36,10.36,0,0,1,3.8.67,7.59,7.59,0,0,1,3,2.14,10.42,10.42,0,0,1,2,3.84,20.58,20.58,0,0,1,.78,5.77,18.17,18.17,0,0,1-1.56,8.65,9.37,9.37,0,0,1-5,4.72A13.87,13.87,0,0,1,597.48,86.5Z"/><path d="M616.93,86.41V74l.6-3.09h3.64V86.41Zm15.69,0V69.12c0-1.91-.41-3.23-1.24-4A4.7,4.7,0,0,0,628.07,64H617V60.7h12.05a9.14,9.14,0,0,1,4,.85,6.08,6.08,0,0,1,2.73,2.74,10.77,10.77,0,0,1,1,5V86.41Z"/><path d="M642.23,86.41l3.36-17.85L642,60.7h4.37l3.22,8-3.13,17.66Zm8.84.09.41-3.26a10,10,0,0,0,6-.19,6.05,6.05,0,0,0,3.27-3.56,17.55,17.55,0,0,0,.92-6.65,14.84,14.84,0,0,0-.88-5.36,5.77,5.77,0,0,0-2.21-2.8,5.9,5.9,0,0,0-3.17-.85,5.64,5.64,0,0,0-3,.73,5.49,5.49,0,0,0-1.93,2,8.34,8.34,0,0,0-1,2.69l-1.15-2.12a8.42,8.42,0,0,1,3-5.08,7.82,7.82,0,0,1,4.74-1.59,10.3,10.3,0,0,1,3.79.67,7.62,7.62,0,0,1,3,2.14,10.42,10.42,0,0,1,2,3.84,20.58,20.58,0,0,1,.78,5.77,18.17,18.17,0,0,1-1.56,8.65,9.41,9.41,0,0,1-5,4.72A13.87,13.87,0,0,1,651.07,86.5Z"/><path d="M687.86,86.41l-.36-3.26a13.82,13.82,0,0,0,2.87-.67A6.3,6.3,0,0,0,692.76,81,7.75,7.75,0,0,0,694.47,78a18.42,18.42,0,0,0,.85-4.74l.73-9.29H679.63V60.7h21l-.19,2.94-.69,8.74a23.22,23.22,0,0,1-1,5.94,13,13,0,0,1-2.35,4.34,10.21,10.21,0,0,1-3.63,2.74A12.29,12.29,0,0,1,687.86,86.41Zm-8.23,9.2V73.39l.6-3.12h3.63V95.61Z"/><path d="M704.47,86.41V83.1h17.66l1.25,3.31Zm16,0L705.3,60.7h4.32l15.14,25.71ZM717.9,75.83l-2.34-3.72,4.83-11.41h4.23Z"/><path d="M742.19,86.41V69.12c0-1.91-.41-3.23-1.24-4A4.7,4.7,0,0,0,737.64,64h-8.47V60.7h9.48a9.14,9.14,0,0,1,4.05.85,6.08,6.08,0,0,1,2.73,2.74,10.77,10.77,0,0,1,1,5V86.41Zm-13,0V83.1h20.47v3.31Z"/><path d="M754,86.41V74l.59-3.09h3.64V86.41Zm15.68,0V69.12c0-1.91-.41-3.23-1.24-4A4.7,4.7,0,0,0,765.1,64h-11V60.7h12.05a9.14,9.14,0,0,1,4,.85,6,6,0,0,1,2.73,2.74,10.77,10.77,0,0,1,1,5V86.41Z"/><path d="M787.32,87.1l-.42-3a6.77,6.77,0,0,0,2.85-.8,3.25,3.25,0,0,0,1.41-1.75,8.58,8.58,0,0,0,.39-2.78V60.7h11.82a9.14,9.14,0,0,1,4,.85,6,6,0,0,1,2.73,2.74,10.77,10.77,0,0,1,1,5V86.41h-4.23V69.12c0-1.91-.41-3.23-1.22-4A4.67,4.67,0,0,0,802.36,64h-6.58V78.32a10.75,10.75,0,0,1-.9,4.73,6.15,6.15,0,0,1-2.76,2.81A13.12,13.12,0,0,1,787.32,87.1Z"/><path d="M838.83,86.41h-4.55L824.21,71.23l-4.74,15.18h-4.05l5.06-15.82,1.24-3.13-4.18-6.76h4.28l4,6.34,4.09,6.12,1.1-3.91,2.53-8.55h4.1l-5.25,16.14Z"/><path d="M852.82,86.41V60.7h4.23V86.41Zm1,0V83.1H872l-.28,3.31Zm15.36,0V69.12c0-1.91-.4-3.23-1.21-4A4.71,4.71,0,0,0,864.64,64h-9.25V60.7h10.26a9.08,9.08,0,0,1,4.05.85,6.05,6.05,0,0,1,2.74,2.74,10.77,10.77,0,0,1,1,5V86.41Z"/><path d="M879.77,76.75V66.08l-.59-5.38h4.23l.6,5.38v7l0,2.89Z"/><path d="M911.84,86.41h-4.56L897.21,71.23l-4.74,15.18h-4.05l5.06-15.82,1.24-3.13-4.18-6.76h4.28l4,6.34,4.09,6.12L904,69.25l2.53-8.55h4.09L905.4,76.84Z"/><path d="M916.8,76.75V66.08l-.59-5.38h4.23l.6,5.38v7l0,2.89Z"/><path d="M925.77,86.41V83.1h17.67l1.24,3.31Zm16,0L926.6,60.7h4.32l15.14,25.71Zm-2.53-10.58-2.35-3.72,4.83-11.41h4.23Z"/><path d="M951.67,86.41V66.08l-.6-5.38h4.23l.6,5.38V86.41Z"/><path d="M961.47,86.41l3.36-17.85-3.59-7.86h4.37l3.22,8L965.7,86.41Zm8.83.09.41-3.26a10,10,0,0,0,6-.19A6,6,0,0,0,980,79.49a17.55,17.55,0,0,0,.92-6.65,14.65,14.65,0,0,0-.87-5.36,5.83,5.83,0,0,0-2.21-2.8,5.91,5.91,0,0,0-3.18-.85,5.63,5.63,0,0,0-3,.73,5.41,5.41,0,0,0-1.93,2,8.11,8.11,0,0,0-1,2.69l-1.15-2.12a8.37,8.37,0,0,1,3-5.08,7.81,7.81,0,0,1,4.73-1.59,10.36,10.36,0,0,1,3.8.67,7.59,7.59,0,0,1,3,2.14,10.43,10.43,0,0,1,2,3.84,20.58,20.58,0,0,1,.78,5.77,18.16,18.16,0,0,1-1.57,8.65,9.34,9.34,0,0,1-5,4.72A13.87,13.87,0,0,1,970.3,86.5Z"/><path d="M1011,86.41V69.12c0-1.91-.41-3.23-1.24-4a4.7,4.7,0,0,0-3.31-1.13h-8.33V60.7h9.34a9.11,9.11,0,0,1,4.05.85,6.1,6.1,0,0,1,2.74,2.74,10.77,10.77,0,0,1,1,5V86.41Z"/><path d="M1029,86.41l-.37-3.26a13.82,13.82,0,0,0,2.87-.67,6.3,6.3,0,0,0,2.39-1.52A7.75,7.75,0,0,0,1035.6,78a18.42,18.42,0,0,0,.85-4.74l.73-9.29h-16.42V60.7h21l-.19,2.94-.69,8.74a22.8,22.8,0,0,1-1,5.94,13,13,0,0,1-2.35,4.34,10.12,10.12,0,0,1-3.63,2.74A12.27,12.27,0,0,1,1029,86.41Zm-8.24,9.2V73.39l.6-3.12H1025V95.61Z"/><path d="M1047.3,86.41V66.08l-.59-5.38h4.23l.6,5.38V86.41Z"/><path d="M1069.8,86.41V69.12c0-1.91-.42-3.23-1.24-4a4.73,4.73,0,0,0-3.32-1.13h-8.46V60.7h9.47a9.08,9.08,0,0,1,4,.85,6.05,6.05,0,0,1,2.74,2.74,10.77,10.77,0,0,1,1,5V86.41Zm-13,0V83.1h20.47v3.31Z"/><path d="M1094.18,86.41V69.12c0-1.91-.42-3.23-1.24-4a4.73,4.73,0,0,0-3.32-1.13h-8.46V60.7h9.47a9.08,9.08,0,0,1,4,.85,6.05,6.05,0,0,1,2.74,2.74,10.77,10.77,0,0,1,1,5V86.41Zm-13,0V83.1h20.47v3.31Z"/><path d="M209.29,161.41V135.7h4.23v25.71Zm1,0V158.1h18.17l-.27,3.31Zm15.37,0V144.12c0-1.91-.41-3.23-1.22-4a4.69,4.69,0,0,0-3.34-1.13h-9.24V135.7h10.25a9.08,9.08,0,0,1,4,.85,6.05,6.05,0,0,1,2.74,2.74,10.77,10.77,0,0,1,1,5v17.11Z"/><path d="M236.25,151.75V141.08l-.6-5.38h4.23l.6,5.38V148l0,2.89Z"/><path d="M246,161.41l3.36-17.85-3.59-7.86h4.37l3.22,8.05-3.12,17.66Zm8.84.09.41-3.26a10,10,0,0,0,6-.19,6.05,6.05,0,0,0,3.27-3.56,17.55,17.55,0,0,0,.92-6.65,14.63,14.63,0,0,0-.88-5.36,5.82,5.82,0,0,0-2.2-2.8,5.91,5.91,0,0,0-3.18-.85,5.69,5.69,0,0,0-3,.73,5.57,5.57,0,0,0-1.93,2,8.58,8.58,0,0,0-1,2.69l-1.15-2.12a8.42,8.42,0,0,1,3-5.08,7.82,7.82,0,0,1,4.74-1.59,10.36,10.36,0,0,1,3.8.67,7.59,7.59,0,0,1,3,2.14,10.42,10.42,0,0,1,2,3.84,20.58,20.58,0,0,1,.78,5.77,18,18,0,0,1-1.56,8.65,9.37,9.37,0,0,1-5,4.72A13.87,13.87,0,0,1,254.88,161.5Z"/><path d="M290.76,161.41V144.67q0-5.65-4.56-5.66H274.52V135.7h12.69a8.24,8.24,0,0,1,4.14,1,6.4,6.4,0,0,1,2.69,3,12.21,12.21,0,0,1,.95,5.15v16.56Zm-16.24,0v-24.1h4.23v24.1Z"/><path d="M310.35,161.41V135.7h4.23v25.71Zm1,0V158.1h18.17l-.27,3.31Zm15.37,0V144.12c0-1.91-.41-3.23-1.22-4a4.69,4.69,0,0,0-3.34-1.13h-9.24V135.7h10.26a9.06,9.06,0,0,1,4,.85,6.05,6.05,0,0,1,2.74,2.74,10.77,10.77,0,0,1,1,5v17.11Z"/><path d="M337.31,161.41V141.08l-.6-5.38h4.23l.6,5.38v20.33Z"/><path d="M355.34,161.41l-.37-3.26a14.07,14.07,0,0,0,2.88-.67,6.37,6.37,0,0,0,2.39-1.52,7.61,7.61,0,0,0,1.7-2.92,18,18,0,0,0,.85-4.74l.74-9.29H347.11V135.7h21l-.18,2.94-.69,8.74a23.2,23.2,0,0,1-1,5.94,13.14,13.14,0,0,1-2.34,4.34,10.16,10.16,0,0,1-3.64,2.74A12.2,12.2,0,0,1,355.34,161.41Zm-8.23,9.2V148.39l.59-3.12h3.64v25.34Z"/><path d="M372.77,161.41l3.36-17.85-3.59-7.86h4.37l3.22,8.05L377,161.41Zm8.84.09.41-3.26a10,10,0,0,0,6-.19,6.05,6.05,0,0,0,3.27-3.56,17.55,17.55,0,0,0,.92-6.65,14.84,14.84,0,0,0-.88-5.36,5.77,5.77,0,0,0-2.21-2.8,5.9,5.9,0,0,0-3.17-.85,5.64,5.64,0,0,0-3,.73,5.49,5.49,0,0,0-1.93,2,8.34,8.34,0,0,0-1,2.69l-1.15-2.12a8.42,8.42,0,0,1,3-5.08,7.82,7.82,0,0,1,4.74-1.59,10.3,10.3,0,0,1,3.79.67,7.62,7.62,0,0,1,3,2.14,10.42,10.42,0,0,1,2,3.84,20.58,20.58,0,0,1,.78,5.77,18.17,18.17,0,0,1-1.56,8.65,9.41,9.41,0,0,1-5,4.72A13.87,13.87,0,0,1,381.61,161.5Z"/><path d="M413.67,161.41V144.12c0-1.91-.42-3.23-1.25-4a4.68,4.68,0,0,0-3.31-1.13h-8.46V135.7h9.47a9.08,9.08,0,0,1,4.05.85,6.05,6.05,0,0,1,2.74,2.74,10.77,10.77,0,0,1,1,5v17.11Zm-13,0V158.1h20.47v3.31Z"/><path d="M435.42,161.41V141.08l-.59-5.38h4.23l.6,5.38v20.33Z"/><path d="M467.49,161.41h-4.56l-10.07-15.18-4.74,15.18h-4.05l5.06-15.82,1.24-3.13-4.18-6.76h4.28l4,6.34,4.09,6.12,1.11-3.91,2.53-8.55h4.09l-5.24,16.14Z"/><path d="M492.88,161.41V144.12c0-1.91-.42-3.23-1.24-4a4.73,4.73,0,0,0-3.32-1.13H480V135.7h9.34a9.06,9.06,0,0,1,4,.85,6.05,6.05,0,0,1,2.74,2.74,10.77,10.77,0,0,1,1,5v17.11Z"/><path d="M513.76,161.41v-17a12.6,12.6,0,0,1,.35-3.1,7.49,7.49,0,0,1,.94-2.28H502.4V135.7h20.1V139h-3.45a7.52,7.52,0,0,0-.85,2.64,19.86,19.86,0,0,0-.21,2.74v17Z"/><path d="M543.89,161.41V144.67q0-5.65-4.55-5.66H527.65V135.7h12.7a8.29,8.29,0,0,1,4.14,1,6.51,6.51,0,0,1,2.69,3,12.22,12.22,0,0,1,.94,5.15v16.56Zm-16.24,0v-24.1h4.23v24.1Z"/><path d="M566.29,161.41V144.12c0-1.91-.41-3.23-1.24-4a4.7,4.7,0,0,0-3.31-1.13h-8.47V135.7h9.48a9.14,9.14,0,0,1,4,.85,6.1,6.1,0,0,1,2.74,2.74,10.91,10.91,0,0,1,1,5v17.11Zm-13,0V158.1h20.47v3.31Z"/><path d="M603.69,161.41V144.67q0-5.65-4.55-5.66H587.45V135.7h12.7a8.29,8.29,0,0,1,4.14,1,6.51,6.51,0,0,1,2.69,3,12.22,12.22,0,0,1,.94,5.15v16.56Zm-16.24,0v-24.1h4.23v24.1Z"/><path d="M614.27,161.41V141.08l-.6-5.38h4.23l.6,5.38v20.33Z"/><path d="M624.8,161.41V158.1h7.92a9.16,9.16,0,0,0,2.94-.44,6,6,0,0,0,2.32-1.38,6.17,6.17,0,0,0,1.54-2.48,11.29,11.29,0,0,0,.56-3.8v-2.94a12.67,12.67,0,0,0-.67-4.37,5.56,5.56,0,0,0-2-2.74,6,6,0,0,0-3.45-.94h-4.46l-1.15,4.83a5.85,5.85,0,0,0,.14,3.73c.43.85,1.47,1.45,3.13,1.79l-.79,2.81a8.52,8.52,0,0,1-4.37-1.36,5,5,0,0,1-1.93-3,10.87,10.87,0,0,1,0-4.32l1.79-7.82h8.42a9.51,9.51,0,0,1,5.13,1.33,8.67,8.67,0,0,1,3.29,3.89,15.35,15.35,0,0,1,1.15,6.28v2.62a15.36,15.36,0,0,1-.81,5.29,9,9,0,0,1-5.75,5.66,13.31,13.31,0,0,1-4.21.64Z"/><path d="M647.94,162.1l-.41-3a6.82,6.82,0,0,0,2.85-.8,3.28,3.28,0,0,0,1.4-1.75,8.58,8.58,0,0,0,.39-2.78V135.7H664a9.06,9.06,0,0,1,4,.85,6.05,6.05,0,0,1,2.74,2.74,10.77,10.77,0,0,1,1,5v17.11h-4.23V144.12c0-1.91-.41-3.23-1.22-4A4.69,4.69,0,0,0,663,139h-6.57v14.31a10.75,10.75,0,0,1-.9,4.73,6.15,6.15,0,0,1-2.76,2.81A13.17,13.17,0,0,1,647.94,162.1Z"/><path d="M676.51,139V128.43h3.86V139Zm5.33,22.4,8.74-22.4H676.51V135.7h18.31v3.59l-8.74,22.12Z"/><path d="M709.4,161.41V141.08l-.6-5.38H713l.6,5.38v20.33Z"/><path d="M718.5,139V128.43h3.87V139Zm5.34,22.4,8.74-22.4H718.5V135.7h18.31v3.59l-8.74,22.12Z"/><path d="M751.21,161.41V135.7h4.23v25.71Zm1,0V158.1h18.17l-.27,3.31Zm15.36,0V144.12c0-1.91-.4-3.23-1.21-4A4.71,4.71,0,0,0,763,139h-9.24V135.7H764a9.08,9.08,0,0,1,4.05.85,6.05,6.05,0,0,1,2.74,2.74,10.77,10.77,0,0,1,1,5v17.11Z"/><path d="M778.17,151.75V141.08l-.6-5.38h4.23l.6,5.38V148l0,2.89Z"/><path d="M787.55,161.41V158.1h7.73V143.24a4.6,4.6,0,0,0-.88-3.15,4,4,0,0,0-2.48-1.17l-3.13-.51.6-3.22,4.37.65a6.38,6.38,0,0,1,4.25,2.27,7.82,7.82,0,0,1,1.5,5v18.26Z"/><path d="M803.88,162.1l-.42-3a6.87,6.87,0,0,0,2.86-.8,3.28,3.28,0,0,0,1.4-1.75,8.58,8.58,0,0,0,.39-2.78V135.7h11.82a9.14,9.14,0,0,1,4.05.85,6.05,6.05,0,0,1,2.74,2.74,10.77,10.77,0,0,1,1,5v17.11h-4.24V144.12c0-1.91-.4-3.23-1.22-4a4.67,4.67,0,0,0-3.33-1.13h-6.58v14.31a10.9,10.9,0,0,1-.89,4.73,6.13,6.13,0,0,1-2.77,2.81A13.12,13.12,0,0,1,803.88,162.1Z"/><path d="M834,161.41V141.08l-.6-5.38h4.23l.6,5.38v20.33Z"/><path d="M843.39,161.41V158.1h7.73V143.24a4.6,4.6,0,0,0-.87-3.15,4.06,4.06,0,0,0-2.49-1.17l-3.13-.51.6-3.22,4.37.65a6.43,6.43,0,0,1,4.26,2.27,7.88,7.88,0,0,1,1.49,5v18.26Z"/><path d="M861.75,161.41V141.08l-.6-5.38h4.23l.6,5.38v20.33Z"/><path d="M881.43,161.41V135.7h4.24v25.71Zm1,0V158.1h18.17l-.28,3.31Zm15.36,0V144.12c0-1.91-.41-3.23-1.22-4a4.68,4.68,0,0,0-3.34-1.13H884V135.7h10.26a9.06,9.06,0,0,1,4,.85,6.05,6.05,0,0,1,2.74,2.74,10.77,10.77,0,0,1,1,5v17.11Z"/><path d="M908.39,151.75V141.08l-.6-5.38H912l.6,5.38V148l0,2.89Z"/><path d="M921,161.87,918.23,139l4-2.07L924.67,158a18.69,18.69,0,0,0,3.59-.6,12.34,12.34,0,0,0,3.08-1.29,8.17,8.17,0,0,0,2.35-2.11,9.16,9.16,0,0,0,1.45-3.15,14.68,14.68,0,0,0,.34-4.4v-1.19a8.42,8.42,0,0,0-.57-3.2,5,5,0,0,0-1.73-2.23,4.69,4.69,0,0,0-2.8-.83H918.23l-.41-3.31h12.92a8.27,8.27,0,0,1,6.49,2.57,10.47,10.47,0,0,1,2.44,6.86l0,1.42a15.09,15.09,0,0,1-1.24,7.11,11.34,11.34,0,0,1-4,4.6,19,19,0,0,1-6,2.58A39.56,39.56,0,0,1,921,161.87Z"/><path d="M943.94,161.41V158.1h6.35a7.63,7.63,0,0,0,3.94-.92,5.64,5.64,0,0,0,2.3-2.74,11.48,11.48,0,0,0,.75-4.39v-3a11.3,11.3,0,0,0-.75-4.37,5.77,5.77,0,0,0-2.3-2.74,7.44,7.44,0,0,0-3.94-.94h-6.35V135.7h7.32a11,11,0,0,1,5.61,1.33,8.4,8.4,0,0,1,3.47,3.93,15.11,15.11,0,0,1,1.18,6.28v2.63a15,15,0,0,1-1.18,6.3,8.45,8.45,0,0,1-3.47,3.91,11,11,0,0,1-5.61,1.33Z"/><path d="M966.39,161.41l3.36-17.85-3.59-7.86h4.37l3.22,8.05-3.13,17.66Zm8.84.09.41-3.26a10,10,0,0,0,6-.19,6.05,6.05,0,0,0,3.27-3.56,17.55,17.55,0,0,0,.92-6.65,14.84,14.84,0,0,0-.88-5.36,5.77,5.77,0,0,0-2.21-2.8,5.88,5.88,0,0,0-3.17-.85,5.64,5.64,0,0,0-3,.73,5.49,5.49,0,0,0-1.93,2,8.34,8.34,0,0,0-1,2.69l-1.15-2.12a8.42,8.42,0,0,1,3-5.08,7.82,7.82,0,0,1,4.74-1.59,10.3,10.3,0,0,1,3.79.67,7.62,7.62,0,0,1,3,2.14,10.42,10.42,0,0,1,2,3.84,20.58,20.58,0,0,1,.78,5.77,18.17,18.17,0,0,1-1.56,8.65,9.41,9.41,0,0,1-5,4.72A13.87,13.87,0,0,1,975.23,161.5Z"/><path d="M1004.48,161.41V135.7h4.23v25.71Zm1,0V158.1h18.17l-.27,3.31Zm15.37,0V144.12c0-1.91-.41-3.23-1.22-4a4.69,4.69,0,0,0-3.34-1.13h-9.24V135.7h10.25a9.08,9.08,0,0,1,4.05.85,6.05,6.05,0,0,1,2.74,2.74,10.77,10.77,0,0,1,1,5v17.11Z"/><path d="M1029.64,162.84l-.6-3.36,8.74-1.66a12.38,12.38,0,0,0,4.26-1.52,7,7,0,0,0,2.53-2.66,12.85,12.85,0,0,0,1.29-4.1,43.88,43.88,0,0,0,.46-5.86c0-2.29.07-5,.07-8h4.23q0,4.88-.19,8.67a38.8,38.8,0,0,1-.82,6.65,14.07,14.07,0,0,1-2,4.87,10.78,10.78,0,0,1-3.75,3.34,20.37,20.37,0,0,1-6,2Zm7.45-4.56-5.88-22.58h4.23l5.75,22.58Z"/><path d="M1056.18,161.41V158.1h7.91a9.18,9.18,0,0,0,3-.44,6,6,0,0,0,2.32-1.38,6.17,6.17,0,0,0,1.54-2.48,11.29,11.29,0,0,0,.56-3.8v-2.94a12.67,12.67,0,0,0-.67-4.37,5.56,5.56,0,0,0-2-2.74,6,6,0,0,0-3.45-.94h-4.46l-1.15,4.83a5.85,5.85,0,0,0,.14,3.73c.43.85,1.47,1.45,3.13,1.79l-.79,2.81a8.49,8.49,0,0,1-4.37-1.36,5,5,0,0,1-1.93-3,10.69,10.69,0,0,1,.05-4.32l1.79-7.82h8.42a9.51,9.51,0,0,1,5.13,1.33,8.67,8.67,0,0,1,3.29,3.89,15.35,15.35,0,0,1,1.15,6.28v2.62a15.36,15.36,0,0,1-.81,5.29,9,9,0,0,1-5.75,5.66,13.36,13.36,0,0,1-4.21.64Z"/><path d="M1080.56,161.41V149l.6-3.09h3.63v15.55Zm15.69,0V144.12c0-1.91-.42-3.23-1.24-4a4.73,4.73,0,0,0-3.32-1.13h-11V135.7h12.06a9.06,9.06,0,0,1,4,.85,6.05,6.05,0,0,1,2.74,2.74,10.77,10.77,0,0,1,1,5v17.11Z"/><path d="M203.12,236.41l-.36-3.26a13.82,13.82,0,0,0,2.87-.67A6.3,6.3,0,0,0,208,231a7.75,7.75,0,0,0,1.71-2.92,18.42,18.42,0,0,0,.85-4.74l.73-9.29H194.89V210.7h21l-.19,2.94-.69,8.74a22.8,22.8,0,0,1-1,5.94,13,13,0,0,1-2.35,4.34A10.12,10.12,0,0,1,208,235.4,12.29,12.29,0,0,1,203.12,236.41Zm-8.23,9.2V223.39l.6-3.12h3.63v25.34Z"/><path d="M219.73,236.41V233.1H237.4l1.24,3.31Zm16,0L220.56,210.7h4.32L240,236.41Zm-2.53-10.58-2.34-3.72,4.83-11.41h4.23Z"/><path d="M257.45,236.41V219.12c0-1.91-.41-3.23-1.24-4A4.7,4.7,0,0,0,252.9,214h-8.47V210.7h9.48a9.14,9.14,0,0,1,4,.85,6.08,6.08,0,0,1,2.73,2.74,10.77,10.77,0,0,1,1,5v17.11Zm-13,0V233.1H264.9v3.31Z"/><path d="M269.23,236.41V224l.59-3.09h3.64v15.55Zm15.68,0V219.12c0-1.91-.41-3.23-1.24-4a4.7,4.7,0,0,0-3.31-1.13h-11V210.7h12.05a9.14,9.14,0,0,1,4.05.85,6.1,6.1,0,0,1,2.74,2.74,10.91,10.91,0,0,1,1,5v17.11Z"/><path d="M297.42,236.87l-3.26-26.17h4l2.71,22.54a20.29,20.29,0,0,0,6.19-1.29,11.81,11.81,0,0,0,4.39-3,12,12,0,0,0,2.6-4.71,21.59,21.59,0,0,0,.8-6.53l0-7h4.23l.05,6.85a21.72,21.72,0,0,1-2.33,10.77,14.75,14.75,0,0,1-7.2,6.41A30.12,30.12,0,0,1,297.42,236.87Zm2-10-1-2.89a13.55,13.55,0,0,0,3.75-2.24,6.79,6.79,0,0,0,1.95-3.15,17,17,0,0,0,.6-5l.05-2.81h4.05l-.05,2.71a18.22,18.22,0,0,1-.94,5.94,10.19,10.19,0,0,1-2.92,4.25A19.06,19.06,0,0,1,299.4,226.84Z"/><path d="M345.31,236.41V219.12c0-1.91-.41-3.23-1.24-4a4.7,4.7,0,0,0-3.31-1.13h-8.33V210.7h9.34a9.14,9.14,0,0,1,4.05.85,6.08,6.08,0,0,1,2.73,2.74,10.77,10.77,0,0,1,1,5v17.11Z"/><path d="M371.62,236.41V219.67q0-5.65-4.55-5.66H355.38V210.7h12.7a8.29,8.29,0,0,1,4.14,1,6.51,6.51,0,0,1,2.69,3,12.22,12.22,0,0,1,.94,5.15v16.56Zm-16.24,0v-24.1h4.24v24.1Z"/><path d="M403.59,236.41H399L389,221.23l-4.74,15.18h-4l5.06-15.82,1.24-3.13-4.19-6.76h4.28l4,6.34,4.1,6.12,1.1-3.91,2.53-8.55h4.09l-5.24,16.14Z"/><path d="M407,214V203.43h3.86V214Zm5.33,22.4,8.74-22.4H407V210.7h18.3v3.59l-8.74,22.12Z"/><path d="M442.28,237a2.67,2.67,0,0,1-2-.83,2.86,2.86,0,0,1-.83-2.11,3,3,0,0,1,.83-2.21,2.71,2.71,0,0,1,2-.83,2.76,2.76,0,0,1,2,.83,3,3,0,0,1,.83,2.21,2.86,2.86,0,0,1-.83,2.11A2.72,2.72,0,0,1,442.28,237Z"/><path d="M451.52,226.75V216.08l-.6-5.38h4.24l.59,5.38V223l0,2.89Z"/><path d="M460.49,236.41V233.1h17.67l1.24,3.31Zm16,0L461.32,210.7h4.32l15.14,25.71Zm-2.53-10.58-2.34-3.72,4.83-11.41h4.23Z"/><path d="M502,236.41V219.67q0-5.65-4.55-5.66H485.79V210.7h12.7a8.29,8.29,0,0,1,4.14,1,6.51,6.51,0,0,1,2.69,3,12.22,12.22,0,0,1,.94,5.15v16.56Zm-16.24,0v-24.1H490v24.1Z"/><path d="M512.61,236.41V216.08l-.6-5.38h4.23l.6,5.38v20.33Z"/><path d="M531.7,236.41V224l.6-3.09h3.63v15.55Zm15.68,0V219.12c0-1.91-.41-3.23-1.24-4a4.7,4.7,0,0,0-3.31-1.13h-11V210.7h12.05a9.11,9.11,0,0,1,4,.85,6.05,6.05,0,0,1,2.74,2.74,10.77,10.77,0,0,1,1,5v17.11Z"/><path d="M556.08,237.84l-.6-3.36,8.74-1.66a12.25,12.25,0,0,0,4.25-1.52,6.94,6.94,0,0,0,2.53-2.66,12.85,12.85,0,0,0,1.29-4.1,42.27,42.27,0,0,0,.46-5.86q.07-3.44.07-8h4.23q0,4.88-.18,8.67A38.73,38.73,0,0,1,576,226a14.06,14.06,0,0,1-2,4.87,10.78,10.78,0,0,1-3.75,3.34,20.37,20.37,0,0,1-6,2Zm7.45-4.56-5.89-22.58h4.23l5.75,22.58Z"/><path d="M584.78,236.87l-3.27-26.17h4l2.72,22.54a20.16,20.16,0,0,0,6.18-1.29,11.77,11.77,0,0,0,4.4-3,12.1,12.1,0,0,0,2.6-4.71,21.91,21.91,0,0,0,.8-6.53l0-7h4.24l0,6.85a21.72,21.72,0,0,1-2.32,10.77,14.75,14.75,0,0,1-7.2,6.41A30.12,30.12,0,0,1,584.78,236.87Zm2-10-1-2.89a13.55,13.55,0,0,0,3.75-2.24,6.87,6.87,0,0,0,2-3.15,17,17,0,0,0,.6-5l0-2.81h4l0,2.71a18.21,18.21,0,0,1-1,5.94,10.1,10.1,0,0,1-2.92,4.25A19,19,0,0,1,586.76,226.84Z"/><path d="M634,245.61V219.12c0-1.91-.41-3.23-1.24-4a4.7,4.7,0,0,0-3.31-1.13h-9.07V210.7h10.08a9.14,9.14,0,0,1,4,.85,6.08,6.08,0,0,1,2.73,2.74,10.77,10.77,0,0,1,1,5v26.31Z"/><path d="M646.7,236.87l-3.27-26.17h4.05l2.71,22.54a20.23,20.23,0,0,0,6.19-1.29,11.73,11.73,0,0,0,4.39-3,12,12,0,0,0,2.6-4.71,21.57,21.57,0,0,0,.81-6.53l0-7h4.23l0,6.85a21.72,21.72,0,0,1-2.33,10.77,14.73,14.73,0,0,1-7.19,6.41A30.16,30.16,0,0,1,646.7,236.87Zm2-10-1-2.89a13.26,13.26,0,0,0,3.75-2.24,6.89,6.89,0,0,0,2-3.15,17.42,17.42,0,0,0,.59-5l0-2.81h4l0,2.71a18.22,18.22,0,0,1-.94,5.94,10.19,10.19,0,0,1-2.92,4.25A19.06,19.06,0,0,1,648.67,226.84Z"/><path d="M673.28,236.41l3.36-17.85-3.59-7.86h4.37l3.22,8.05-3.12,17.66Zm8.84.09.41-3.26a10,10,0,0,0,6-.19,6.05,6.05,0,0,0,3.27-3.56,17.55,17.55,0,0,0,.92-6.65,14.63,14.63,0,0,0-.88-5.36,5.77,5.77,0,0,0-2.21-2.8,5.88,5.88,0,0,0-3.17-.85,5.66,5.66,0,0,0-3,.73,5.57,5.57,0,0,0-1.93,2,8.58,8.58,0,0,0-1,2.69l-1.15-2.12a8.42,8.42,0,0,1,3-5.08,7.82,7.82,0,0,1,4.74-1.59,10.26,10.26,0,0,1,3.79.67,7.55,7.55,0,0,1,3,2.14,10.42,10.42,0,0,1,2,3.84,20.58,20.58,0,0,1,.78,5.77,18.17,18.17,0,0,1-1.56,8.65,9.41,9.41,0,0,1-5,4.72A13.87,13.87,0,0,1,682.12,236.5Z"/><path d="M714.18,236.41V219.12c0-1.91-.42-3.23-1.24-4a4.73,4.73,0,0,0-3.32-1.13h-8.46V210.7h9.47a9.08,9.08,0,0,1,4,.85,6.05,6.05,0,0,1,2.74,2.74,10.77,10.77,0,0,1,1,5v17.11Zm-13,0V233.1h20.47v3.31Z"/><path d="M742.33,244.51a43.79,43.79,0,0,1-4.46-9.73,39.52,39.52,0,0,1,0-22.33,42.64,42.64,0,0,1,4.46-9.71l2.48,1.1a36.58,36.58,0,0,0-3.93,9.48,41,41,0,0,0,0,20.56,37.13,37.13,0,0,0,3.93,9.52Z"/><path d="M748,237.1l-.42-3a6.87,6.87,0,0,0,2.86-.8,3.28,3.28,0,0,0,1.4-1.75,8.58,8.58,0,0,0,.39-2.78V210.7H764a9.14,9.14,0,0,1,4.05.85,6.1,6.1,0,0,1,2.74,2.74,10.77,10.77,0,0,1,1,5v17.11h-4.24V219.12c0-1.91-.4-3.23-1.22-4A4.67,4.67,0,0,0,763,214h-6.58v14.31a10.75,10.75,0,0,1-.9,4.73,6.06,6.06,0,0,1-2.76,2.81A13.12,13.12,0,0,1,748,237.1Z"/><path d="M778.12,236.41V216.08l-.6-5.38h4.23l.6,5.38v20.33Z"/><path d="M787.22,214V203.43h3.87V214Zm5.34,22.4L801.3,214H787.22V210.7h18.31v3.59l-8.74,22.12Z"/><path d="M809.12,237.84l-.6-3.36,8.74-1.66a12.38,12.38,0,0,0,4.26-1.52,7.09,7.09,0,0,0,2.53-2.66,13.11,13.11,0,0,0,1.28-4.1,42.27,42.27,0,0,0,.46-5.86q.08-3.44.07-8h4.24c0,3.25-.07,6.14-.19,8.67a38.73,38.73,0,0,1-.83,6.65,14.06,14.06,0,0,1-2,4.87,10.78,10.78,0,0,1-3.75,3.34,20.37,20.37,0,0,1-6,2Zm7.45-4.56-5.89-22.58h4.24l5.75,22.58Z"/><path d="M834.93,236.41l3.35-17.85-3.58-7.86h4.37l3.22,8.05-3.13,17.66Zm8.83.09.41-3.26a10,10,0,0,0,6-.19,6.05,6.05,0,0,0,3.27-3.56,17.55,17.55,0,0,0,.92-6.65,14.42,14.42,0,0,0-.88-5.36,5.76,5.76,0,0,0-2.2-2.8,5.91,5.91,0,0,0-3.18-.85,5.69,5.69,0,0,0-3,.73,5.57,5.57,0,0,0-1.93,2,8.58,8.58,0,0,0-1,2.69L841,217.09a8.47,8.47,0,0,1,3-5.08,7.82,7.82,0,0,1,4.74-1.59,10.36,10.36,0,0,1,3.8.67,7.59,7.59,0,0,1,3,2.14,10.42,10.42,0,0,1,2,3.84,20.93,20.93,0,0,1,.79,5.77,18.16,18.16,0,0,1-1.57,8.65,9.34,9.34,0,0,1-5,4.72A13.87,13.87,0,0,1,843.76,236.5Z"/><path d="M880.65,237a13.52,13.52,0,0,1-4.16-.59,12.37,12.37,0,0,1-3.16-1.52,14.05,14.05,0,0,1-2.34-2l2-2.57a15.21,15.21,0,0,0,3.1,2.37,8.4,8.4,0,0,0,4.3,1,6.49,6.49,0,0,0,4.35-1.42,4.76,4.76,0,0,0,1.68-3.82,5.21,5.21,0,0,0-.87-3,5.6,5.6,0,0,0-2.9-2,16.85,16.85,0,0,0-5.48-.72v-3A13.46,13.46,0,0,0,882,219a5.2,5.2,0,0,0,2.58-1.94,4.88,4.88,0,0,0,.78-2.69A4.27,4.27,0,0,0,884,211a5.15,5.15,0,0,0-3.64-1.22,7.18,7.18,0,0,0-3.33.8,11.06,11.06,0,0,0-2.83,2.14l-2.16-2.53a16.5,16.5,0,0,1,3.82-2.64,10.34,10.34,0,0,1,4.69-1,11,11,0,0,1,4.57.9,7.28,7.28,0,0,1,3.13,2.55,7.07,7.07,0,0,1,1.13,4,6.51,6.51,0,0,1-1.45,4.35,9,9,0,0,1-3.84,2.6v.18a9.33,9.33,0,0,1,3.22,1.4,7.52,7.52,0,0,1,2.28,2.51,7.19,7.19,0,0,1,.85,3.54,7.65,7.65,0,0,1-1.31,4.49,8.55,8.55,0,0,1-3.55,2.87A11.86,11.86,0,0,1,880.65,237Z"/><path d="M904.25,237a7.83,7.83,0,0,1-7-4q-2.53-4-2.53-11.33t2.53-11.27a8.16,8.16,0,0,1,13.89,0q2.53,3.89,2.53,11.25T911.19,233A7.83,7.83,0,0,1,904.25,237Zm0-3.22a4.05,4.05,0,0,0,2.92-1.24,8.56,8.56,0,0,0,2-3.91,27.92,27.92,0,0,0,.71-6.94,27.29,27.29,0,0,0-.71-6.9,8.14,8.14,0,0,0-2-3.82,4.21,4.21,0,0,0-5.89,0,8,8,0,0,0-2,3.82,27.9,27.9,0,0,0-.69,6.9,28.53,28.53,0,0,0,.69,6.94,8.37,8.37,0,0,0,2,3.91A4.08,4.08,0,0,0,904.25,233.74Z"/><path d="M917.63,226.38v-3h10.58v3Z"/><path d="M932.67,236.41V224l.6-3.09h3.64v15.55Zm15.69,0V219.12c0-1.91-.41-3.23-1.24-4a4.7,4.7,0,0,0-3.31-1.13h-11V210.7h12.05a9.14,9.14,0,0,1,4,.85,6.08,6.08,0,0,1,2.73,2.74,10.77,10.77,0,0,1,1,5v17.11Z"/><path d="M966,237.1l-.41-3a6.82,6.82,0,0,0,2.85-.8,3.28,3.28,0,0,0,1.4-1.75,8.58,8.58,0,0,0,.39-2.78V210.7h11.83a9.06,9.06,0,0,1,4,.85,6.05,6.05,0,0,1,2.74,2.74,10.77,10.77,0,0,1,1,5v17.11h-4.23V219.12c0-1.91-.41-3.23-1.22-4a4.69,4.69,0,0,0-3.34-1.13h-6.57v14.31a10.75,10.75,0,0,1-.9,4.73,6.15,6.15,0,0,1-2.76,2.81A13.17,13.17,0,0,1,966,237.1Z"/><path d="M996.15,236.41V216.08l-.6-5.38h4.24l.59,5.38v20.33Z"/><path d="M1018.65,236.41V219.12c0-1.91-.42-3.23-1.25-4a4.68,4.68,0,0,0-3.31-1.13h-8.46V210.7h9.47a9.08,9.08,0,0,1,4,.85,6.05,6.05,0,0,1,2.74,2.74,10.77,10.77,0,0,1,1,5v17.11Zm-13,0V233.1h20.47v3.31Z"/><path d="M1031.21,226.75V216.08l-.6-5.38h4.23l.6,5.38V223l0,2.89Z"/><path d="M1053.7,236.41V219.12c0-1.91-.42-3.23-1.24-4a4.73,4.73,0,0,0-3.32-1.13h-8.46V210.7h9.48a9.06,9.06,0,0,1,4,.85,6.05,6.05,0,0,1,2.74,2.74,10.77,10.77,0,0,1,1,5v17.11Zm-13,0V233.1h20.47v3.31Z"/><path d="M1068.14,236.87,1065.43,214l4-2.07,2.49,21.07a18.82,18.82,0,0,0,3.59-.6,12.34,12.34,0,0,0,3.08-1.29,8,8,0,0,0,2.34-2.11,8.81,8.81,0,0,0,1.45-3.15,14.65,14.65,0,0,0,.35-4.4v-1.19a8.23,8.23,0,0,0-.58-3.2,5,5,0,0,0-1.72-2.23,4.7,4.7,0,0,0-2.81-.83h-12.14l-.42-3.31h12.93a8.28,8.28,0,0,1,6.49,2.57,10.47,10.47,0,0,1,2.43,6.86l.05,1.42a15.21,15.21,0,0,1-1.24,7.11,11.28,11.28,0,0,1-4,4.6,18.87,18.87,0,0,1-6,2.58A39.33,39.33,0,0,1,1068.14,236.87Z"/><path d="M1093.53,244.51l-2.48-1.11a36.78,36.78,0,0,0,3.93-9.52,41,41,0,0,0,0-20.56,36.23,36.23,0,0,0-3.93-9.48l2.48-1.1a43.1,43.1,0,0,1,4.47,9.71,39.52,39.52,0,0,1,0,22.33A44.28,44.28,0,0,1,1093.53,244.51Z"/><path d="M154.73,320.61V291.08l-.6-5.38h4.24l.59,5.38v29.53Z"/><path d="M164.53,311.41l3.36-17.85-3.59-7.86h4.37l3.22,8.05-3.13,17.66Zm8.83.09.42-3.26a10,10,0,0,0,6-.19,6,6,0,0,0,3.26-3.56,17.35,17.35,0,0,0,.92-6.65,14.65,14.65,0,0,0-.87-5.36,5.77,5.77,0,0,0-2.21-2.8,5.9,5.9,0,0,0-3.17-.85,5.64,5.64,0,0,0-3,.73,5.49,5.49,0,0,0-1.93,2,8.11,8.11,0,0,0-1,2.69l-1.15-2.12a8.42,8.42,0,0,1,3-5.08,7.82,7.82,0,0,1,4.74-1.59,10.3,10.3,0,0,1,3.79.67,7.52,7.52,0,0,1,3,2.14,10.43,10.43,0,0,1,2,3.84,20.58,20.58,0,0,1,.78,5.77,18.29,18.29,0,0,1-1.56,8.65,9.39,9.39,0,0,1-5,4.72A13.86,13.86,0,0,1,173.36,311.5Z"/><path d="M195.63,311.87l-3.27-26.17h4l2.71,22.54a20.23,20.23,0,0,0,6.19-1.29,11.73,11.73,0,0,0,4.39-3,12,12,0,0,0,2.6-4.71,21.57,21.57,0,0,0,.81-6.53l-.05-7h4.23l.05,6.85A21.72,21.72,0,0,1,215,303.32a14.75,14.75,0,0,1-7.2,6.41A30.16,30.16,0,0,1,195.63,311.87Zm2-10-1-2.89a13.26,13.26,0,0,0,3.75-2.24,6.81,6.81,0,0,0,2-3.15,17,17,0,0,0,.6-5l0-2.81H207l-.05,2.71a18.22,18.22,0,0,1-.94,5.94,10.19,10.19,0,0,1-2.92,4.25A19,19,0,0,1,197.61,301.84Z"/><path d="M234.91,311.41V294.12c0-1.91-.41-3.23-1.24-4a4.7,4.7,0,0,0-3.31-1.13h-8.47V285.7h9.48a9.14,9.14,0,0,1,4,.85,6.08,6.08,0,0,1,2.73,2.74,10.77,10.77,0,0,1,1,5v17.11Zm-13,0V308.1h20.47v3.31Z"/><path d="M268.49,311.41V294.12c0-1.91-.41-3.23-1.24-4a4.7,4.7,0,0,0-3.31-1.13h-8.47V285.7H265a9.14,9.14,0,0,1,4.05.85,6.08,6.08,0,0,1,2.73,2.74,10.77,10.77,0,0,1,1,5v17.11Zm-13,0V308.1h20.47v3.31Z"/><path d="M282.89,311.87l-3.08-26.17H284L286.61,308a17.16,17.16,0,0,0,4.44-1,10.22,10.22,0,0,0,3.52-2.16,9.3,9.3,0,0,0,2.26-3.55,13.56,13.56,0,0,0,.69-5.08V295a7.42,7.42,0,0,0-.6-3.08,5,5,0,0,0-1.84-2.16,6.39,6.39,0,0,0-3.18-1l-2.3-.14.33-3.36,2.62.19a11.48,11.48,0,0,1,4.67,1.15,7.57,7.57,0,0,1,3.15,2.94,10.2,10.2,0,0,1,1.24,4.92l.05,1.29a16.22,16.22,0,0,1-1.2,7.18,12,12,0,0,1-3.89,4.87,18.55,18.55,0,0,1-6.05,2.88A33.24,33.24,0,0,1,282.89,311.87Z"/><path d="M306.9,301.75V291.08l-.6-5.38h4.23l.6,5.38V298l0,2.89Z"/><path d="M316.79,311.41V299l.6-3.09H321v15.55Zm15.69,0V294.12c0-1.91-.42-3.23-1.25-4a4.68,4.68,0,0,0-3.31-1.13h-11V285.7h12.05a9.08,9.08,0,0,1,4.05.85,6.05,6.05,0,0,1,2.74,2.74,10.77,10.77,0,0,1,1,5v17.11Z"/><path d="M350.14,312.1l-.42-3a6.87,6.87,0,0,0,2.86-.8,3.28,3.28,0,0,0,1.4-1.75,8.58,8.58,0,0,0,.39-2.78V285.7h11.82a9.08,9.08,0,0,1,4.05.85,6.05,6.05,0,0,1,2.74,2.74,10.77,10.77,0,0,1,1,5v17.11h-4.24V294.12c0-1.91-.4-3.23-1.21-4a4.71,4.71,0,0,0-3.34-1.13H358.6v14.31a10.9,10.9,0,0,1-.89,4.73,6.15,6.15,0,0,1-2.76,2.81A13.23,13.23,0,0,1,350.14,312.1Z"/><path d="M379,311.41V308.1h7.73V293.24a4.54,4.54,0,0,0-.88-3.15,4,4,0,0,0-2.48-1.17l-3.13-.51.6-3.22,4.37.65a6.43,6.43,0,0,1,4.26,2.27,7.88,7.88,0,0,1,1.49,5v18.26Z"/><path d="M396.46,311.41l3.36-17.85-3.59-7.86h4.37l3.22,8.05-3.13,17.66Zm8.83.09.42-3.26a10,10,0,0,0,6-.19,6,6,0,0,0,3.26-3.56,17.35,17.35,0,0,0,.92-6.65,14.65,14.65,0,0,0-.87-5.36,5.77,5.77,0,0,0-2.21-2.8,5.9,5.9,0,0,0-3.17-.85,5.64,5.64,0,0,0-3,.73,5.49,5.49,0,0,0-1.93,2,8.11,8.11,0,0,0-1,2.69l-1.15-2.12a8.42,8.42,0,0,1,3-5.08,7.82,7.82,0,0,1,4.74-1.59,10.3,10.3,0,0,1,3.79.67,7.59,7.59,0,0,1,3,2.14,10.43,10.43,0,0,1,2,3.84,20.58,20.58,0,0,1,.78,5.77,18.29,18.29,0,0,1-1.56,8.65,9.39,9.39,0,0,1-5,4.72A13.87,13.87,0,0,1,405.29,311.5Z"/><path d="M425.53,311.41V291.08l-.6-5.38h4.24l.59,5.38v20.33Z"/><path d="M438.23,311.87,435,285.7H439l2.71,22.54a20.23,20.23,0,0,0,6.19-1.29,11.73,11.73,0,0,0,4.39-3,12,12,0,0,0,2.6-4.71,21.57,21.57,0,0,0,.81-6.53l0-7h4.23l.05,6.85a21.72,21.72,0,0,1-2.32,10.77,14.75,14.75,0,0,1-7.2,6.41A30.16,30.16,0,0,1,438.23,311.87Zm2-10-1-2.89a13.26,13.26,0,0,0,3.75-2.24,6.81,6.81,0,0,0,2-3.15,17.38,17.38,0,0,0,.6-5l0-2.81h4l0,2.71a18.22,18.22,0,0,1-.94,5.94,10.19,10.19,0,0,1-2.92,4.25A19.13,19.13,0,0,1,440.21,301.84Z"/><path d="M464.82,311.41l3.35-17.85-3.59-7.86H469l3.21,8.05-3.12,17.66Zm8.83.09.41-3.26a10,10,0,0,0,6-.19,6.05,6.05,0,0,0,3.27-3.56,17.55,17.55,0,0,0,.92-6.65,14.42,14.42,0,0,0-.88-5.36,5.76,5.76,0,0,0-2.2-2.8,5.91,5.91,0,0,0-3.18-.85,5.69,5.69,0,0,0-3,.73,5.57,5.57,0,0,0-1.93,2,8.58,8.58,0,0,0-1,2.69l-1.15-2.12a8.47,8.47,0,0,1,3-5.08,7.82,7.82,0,0,1,4.74-1.59,10.36,10.36,0,0,1,3.8.67,7.59,7.59,0,0,1,3,2.14,10.42,10.42,0,0,1,2,3.84,20.93,20.93,0,0,1,.79,5.77,18.16,18.16,0,0,1-1.57,8.65,9.34,9.34,0,0,1-5,4.72A13.87,13.87,0,0,1,473.65,311.5Z"/><path d="M501.06,312.1l-.41-3a6.77,6.77,0,0,0,2.85-.8,3.28,3.28,0,0,0,1.4-1.75,8.58,8.58,0,0,0,.39-2.78V285.7h11.83a9.14,9.14,0,0,1,4,.85,6.08,6.08,0,0,1,2.73,2.74,10.77,10.77,0,0,1,1,5v17.11h-4.23V294.12c0-1.91-.41-3.23-1.22-4A4.69,4.69,0,0,0,516.1,289h-6.57v14.31a10.75,10.75,0,0,1-.9,4.73,6.15,6.15,0,0,1-2.76,2.81A13.17,13.17,0,0,1,501.06,312.1Z"/><path d="M531.19,301.75V291.08l-.6-5.38h4.24l.59,5.38V298l0,2.89Z"/><path d="M540.58,311.41V308.1h7.72V293.24a4.6,4.6,0,0,0-.87-3.15,4,4,0,0,0-2.48-1.17l-3.13-.51.6-3.22,4.37.65a6.41,6.41,0,0,1,4.25,2.27,7.82,7.82,0,0,1,1.5,5v18.26Z"/><path d="M570.75,311.41V294.12c0-1.91-.41-3.23-1.24-4A4.7,4.7,0,0,0,566.2,289h-8.47V285.7h9.48a9.14,9.14,0,0,1,4,.85,6.08,6.08,0,0,1,2.73,2.74,10.77,10.77,0,0,1,1,5v17.11Zm-13,0V308.1H578.2v3.31Z"/><path d="M581.29,312.1l-.42-3a6.77,6.77,0,0,0,2.85-.8,3.25,3.25,0,0,0,1.41-1.75,8.58,8.58,0,0,0,.39-2.78V285.7h11.82a9.14,9.14,0,0,1,4,.85,6.08,6.08,0,0,1,2.73,2.74,10.77,10.77,0,0,1,1,5v17.11h-4.23V294.12c0-1.91-.41-3.23-1.22-4a4.67,4.67,0,0,0-3.33-1.13h-6.58v14.31a10.75,10.75,0,0,1-.9,4.73,6.15,6.15,0,0,1-2.76,2.81A13.12,13.12,0,0,1,581.29,312.1Z"/><path d="M609.85,289V278.43h3.86V289Zm5.34,22.4,8.74-22.4H609.85V285.7h18.31v3.59l-8.74,22.12Z"/><path d="M642.74,311.41V291.08l-.6-5.38h4.23l.6,5.38v20.33Z"/><path d="M651.39,312.1l-.42-3a6.87,6.87,0,0,0,2.86-.8,3.28,3.28,0,0,0,1.4-1.75,8.58,8.58,0,0,0,.39-2.78V285.7h11.82a9.14,9.14,0,0,1,4,.85,6.05,6.05,0,0,1,2.74,2.74,10.77,10.77,0,0,1,1,5v17.11H671V294.12c0-1.91-.4-3.23-1.22-4a4.67,4.67,0,0,0-3.33-1.13h-6.58v14.31a10.9,10.9,0,0,1-.89,4.73,6.13,6.13,0,0,1-2.77,2.81A13.12,13.12,0,0,1,651.39,312.1Z"/><path d="M681.52,311.41V291.08l-.6-5.38h4.23l.6,5.38v20.33Z"/><path d="M713.58,311.41H709L699,296.23l-4.74,15.18h-4l5.06-15.82,1.24-3.13-4.19-6.76h4.28l4,6.34,4.1,6.12,1.1-3.91,2.53-8.55h4.09l-5.24,16.14Z"/><path d="M739,311.41V294.12c0-1.91-.41-3.23-1.24-4a4.7,4.7,0,0,0-3.31-1.13h-8.33V285.7h9.34a9.14,9.14,0,0,1,4.05.85,6.08,6.08,0,0,1,2.73,2.74,10.77,10.77,0,0,1,1,5v17.11Z"/><path d="M749.64,301.75V291.08l-.6-5.38h4.24l.6,5.38V298l0,2.89Z"/><path d="M772.14,311.41V294.12c0-1.91-.42-3.23-1.24-4a4.73,4.73,0,0,0-3.32-1.13h-8.46V285.7h9.47a9.08,9.08,0,0,1,4,.85,6.05,6.05,0,0,1,2.74,2.74,10.77,10.77,0,0,1,1,5v17.11Zm-13,0V308.1h20.47v3.31Z"/><path d="M782.9,312.84l-.6-3.36,8.74-1.66a12.38,12.38,0,0,0,4.26-1.52,7,7,0,0,0,2.53-2.66,12.85,12.85,0,0,0,1.29-4.1,43.88,43.88,0,0,0,.46-5.86q.06-3.44.06-8h4.24q0,4.88-.19,8.67a39.82,39.82,0,0,1-.82,6.65,14.07,14.07,0,0,1-2,4.87,10.78,10.78,0,0,1-3.75,3.34,20.37,20.37,0,0,1-6,2Zm7.45-4.56-5.89-22.58h4.24l5.75,22.58Z"/><path d="M808.8,311.41V299l.6-3.09H813v15.55Zm15.68,0V294.12c0-1.91-.41-3.23-1.24-4a4.7,4.7,0,0,0-3.31-1.13h-11V285.7h12.05a9.14,9.14,0,0,1,4,.85,6.05,6.05,0,0,1,2.74,2.74,10.77,10.77,0,0,1,1,5v17.11Z"/><path d="M833.41,289V278.43h3.86V289Zm5.33,22.4,8.74-22.4H833.41V285.7h18.31v3.59L843,311.41Z"/><path d="M866.3,320.61V291.08l-.6-5.38h4.23l.6,5.38v29.53Z"/><path d="M874.94,312.1l-.41-3a6.77,6.77,0,0,0,2.85-.8,3.3,3.3,0,0,0,1.41-1.75,8.58,8.58,0,0,0,.39-2.78V285.7H891a9.14,9.14,0,0,1,4,.85,6.08,6.08,0,0,1,2.73,2.74,10.77,10.77,0,0,1,1,5v17.11h-4.23V294.12c0-1.91-.41-3.23-1.22-4A4.67,4.67,0,0,0,890,289h-6.58v14.31a10.75,10.75,0,0,1-.9,4.73,6.15,6.15,0,0,1-2.76,2.81A13.12,13.12,0,0,1,874.94,312.1Z"/><path d="M905.07,301.75V291.08l-.59-5.38h4.23l.6,5.38V298l0,2.89Z"/><path d="M914.46,311.41V308.1h7.73V293.24a4.6,4.6,0,0,0-.88-3.15,4,4,0,0,0-2.48-1.17l-3.13-.51.6-3.22,4.37.65a6.38,6.38,0,0,1,4.25,2.27,7.82,7.82,0,0,1,1.5,5v18.26Z"/><path d="M941.74,319.32l-1-2.34a7.64,7.64,0,0,0,3.13-2.35,5.48,5.48,0,0,0,1.1-3.36l-.41-3.45,1.88,2.81a1.76,1.76,0,0,1-.87.62,3.4,3.4,0,0,1-1.06.16,3.08,3.08,0,0,1-2-.69,2.76,2.76,0,0,1,0-4,3.08,3.08,0,0,1,2-.74,2.83,2.83,0,0,1,2.46,1.22,5.83,5.83,0,0,1,.85,3.38,8.86,8.86,0,0,1-1.63,5.27A10.15,10.15,0,0,1,941.74,319.32Z"/><path d="M965.47,311.41V294.12c0-1.91-.41-3.23-1.24-4a4.7,4.7,0,0,0-3.31-1.13h-8.47V285.7h9.48a9.14,9.14,0,0,1,4.05.85,6.08,6.08,0,0,1,2.73,2.74,10.77,10.77,0,0,1,1,5v17.11Zm-13,0V308.1h20.47v3.31Z"/><path d="M978,311.41V291.08l-.6-5.38h4.23l.6,5.38v20.33Z"/><path d="M990.72,311.87l-3.26-26.17h4l2.71,22.54a20.29,20.29,0,0,0,6.19-1.29,11.81,11.81,0,0,0,4.39-3,12.1,12.1,0,0,0,2.6-4.71,21.59,21.59,0,0,0,.8-6.53l0-7h4.23l.05,6.85a21.72,21.72,0,0,1-2.33,10.77,14.75,14.75,0,0,1-7.2,6.41A30.12,30.12,0,0,1,990.72,311.87Zm2-10-1-2.89a13.55,13.55,0,0,0,3.75-2.24,6.79,6.79,0,0,0,1.95-3.15,17,17,0,0,0,.6-5l0-2.81h4.05l-.05,2.71a18.22,18.22,0,0,1-.94,5.94,10.19,10.19,0,0,1-2.92,4.25A19.06,19.06,0,0,1,992.7,301.84Z"/><path d="M1043,311.41V294.67q0-5.66-4.56-5.66h-11.68V285.7h12.69a8.24,8.24,0,0,1,4.14,1,6.4,6.4,0,0,1,2.69,3,12.21,12.21,0,0,1,1,5.15v16.56Zm-16.24,0v-24.1H1031v24.1Z"/><path d="M1053.47,311.41V308.1h7.91a9.16,9.16,0,0,0,2.94-.44,6,6,0,0,0,2.33-1.38,6.28,6.28,0,0,0,1.54-2.48,11.56,11.56,0,0,0,.55-3.8v-2.94a12.43,12.43,0,0,0-.67-4.37,5.49,5.49,0,0,0-2-2.74,6,6,0,0,0-3.45-.94h-4.47l-1.15,4.83a5.85,5.85,0,0,0,.14,3.73c.43.85,1.47,1.45,3.13,1.79l-.78,2.81a8.46,8.46,0,0,1-4.37-1.36,4.91,4.91,0,0,1-1.93-3,10.67,10.67,0,0,1,0-4.32l1.8-7.82h8.41a9.46,9.46,0,0,1,5.13,1.33,8.61,8.61,0,0,1,3.29,3.89,15.19,15.19,0,0,1,1.15,6.28v2.62a15.62,15.62,0,0,1-.8,5.29,9,9,0,0,1-5.75,5.66,13.4,13.4,0,0,1-4.21.64Z"/><path d="M1076.6,312.1l-.41-3a6.77,6.77,0,0,0,2.85-.8,3.3,3.3,0,0,0,1.41-1.75,8.58,8.58,0,0,0,.39-2.78V285.7h11.82a9.14,9.14,0,0,1,4,.85,6.08,6.08,0,0,1,2.73,2.74,10.77,10.77,0,0,1,1,5v17.11h-4.23V294.12c0-1.91-.41-3.23-1.22-4a4.67,4.67,0,0,0-3.33-1.13h-6.58v14.31a10.75,10.75,0,0,1-.9,4.73,6.15,6.15,0,0,1-2.76,2.81A13.12,13.12,0,0,1,1076.6,312.1Z"/><path d="M729.13,387a2.67,2.67,0,0,1-2-.83,2.86,2.86,0,0,1-.83-2.11,3,3,0,0,1,.83-2.21,2.71,2.71,0,0,1,2-.83,2.76,2.76,0,0,1,2,.83A3,3,0,0,1,732,384a2.86,2.86,0,0,1-.83,2.11A2.72,2.72,0,0,1,729.13,387Z"/><path d="M737.5,386.41l3.36-17.85-3.59-7.86h4.37l3.22,8.05-3.13,17.66Zm8.83.09.42-3.26a10,10,0,0,0,6-.19,6,6,0,0,0,3.26-3.56,17.35,17.35,0,0,0,.92-6.65,14.65,14.65,0,0,0-.87-5.36,5.77,5.77,0,0,0-2.21-2.8,5.9,5.9,0,0,0-3.17-.85,5.64,5.64,0,0,0-3,.73,5.49,5.49,0,0,0-1.93,2,8.11,8.11,0,0,0-1,2.69l-1.15-2.12a8.42,8.42,0,0,1,3-5.08,7.82,7.82,0,0,1,4.74-1.59,10.3,10.3,0,0,1,3.79.67,7.59,7.59,0,0,1,3,2.14,10.43,10.43,0,0,1,2,3.84,20.58,20.58,0,0,1,.78,5.77,18.29,18.29,0,0,1-1.56,8.65,9.39,9.39,0,0,1-5,4.72A13.87,13.87,0,0,1,746.33,386.5Z"/><path d="M768.78,367a2.61,2.61,0,0,1-2.23-1.1,5.33,5.33,0,0,1-.81-3.18,8.94,8.94,0,0,1,1.29-4.83,10.12,10.12,0,0,1,3.77-3.45l1.11,1.89a8.64,8.64,0,0,0-2.65,2.44,5.78,5.78,0,0,0-.89,3.31l.5,3.13-1.93-2.4a4.59,4.59,0,0,1,.87-.62,2.13,2.13,0,0,1,1-.2,2.6,2.6,0,0,1,1.72.62,2.14,2.14,0,0,1,.76,1.77,2.6,2.6,0,0,1-.69,1.93A2.43,2.43,0,0,1,768.78,367Zm8.33,0a2.63,2.63,0,0,1-2.24-1.1,5.41,5.41,0,0,1-.8-3.18,8.94,8.94,0,0,1,1.29-4.83,10,10,0,0,1,3.77-3.45l1.1,1.89a8.72,8.72,0,0,0-2.64,2.44,5.78,5.78,0,0,0-.9,3.31l.51,3.13-1.94-2.4a4.34,4.34,0,0,1,.88-.62,2.13,2.13,0,0,1,1-.2,2.62,2.62,0,0,1,1.72.62,2.14,2.14,0,0,1,.76,1.77,2.6,2.6,0,0,1-.69,1.93A2.43,2.43,0,0,1,777.11,367Z"/><path d="M788.42,386.87,785.71,364l3.95-2.07L792.15,383a18.59,18.59,0,0,0,3.58-.6,12.25,12.25,0,0,0,3.09-1.29,8,8,0,0,0,2.34-2.11,8.81,8.81,0,0,0,1.45-3.15,14.65,14.65,0,0,0,.35-4.4v-1.19a8.42,8.42,0,0,0-.58-3.2,5,5,0,0,0-1.72-2.23,4.7,4.7,0,0,0-2.81-.83H785.71l-.42-3.31h12.93a8.28,8.28,0,0,1,6.49,2.57,10.47,10.47,0,0,1,2.43,6.86l.05,1.42a15.21,15.21,0,0,1-1.24,7.11,11.28,11.28,0,0,1-4,4.6,18.87,18.87,0,0,1-6,2.58A39.33,39.33,0,0,1,788.42,386.87Z"/><path d="M829.59,387a13.56,13.56,0,0,1-4.16-.59,12.14,12.14,0,0,1-3.15-1.52,13.74,13.74,0,0,1-2.35-2l2-2.57a15.21,15.21,0,0,0,3.1,2.37,8.4,8.4,0,0,0,4.3,1,6.49,6.49,0,0,0,4.35-1.42,4.76,4.76,0,0,0,1.68-3.82,5.21,5.21,0,0,0-.87-3,5.6,5.6,0,0,0-2.9-2,16.85,16.85,0,0,0-5.48-.72v-3a13.46,13.46,0,0,0,4.83-.71A5.2,5.2,0,0,0,833.5,367a4.88,4.88,0,0,0,.78-2.69A4.27,4.27,0,0,0,833,361a5.15,5.15,0,0,0-3.64-1.22,7.18,7.18,0,0,0-3.33.8,11.06,11.06,0,0,0-2.83,2.14L821,360.19a16.5,16.5,0,0,1,3.82-2.64,10.34,10.34,0,0,1,4.69-1,11,11,0,0,1,4.57.9A7.28,7.28,0,0,1,837.2,360a7.07,7.07,0,0,1,1.13,4.05,6.51,6.51,0,0,1-1.45,4.35A9,9,0,0,1,833,371v.18a9.25,9.25,0,0,1,3.22,1.4,7.52,7.52,0,0,1,2.28,2.51,7.19,7.19,0,0,1,.85,3.54,7.65,7.65,0,0,1-1.31,4.49,8.55,8.55,0,0,1-3.55,2.87A11.86,11.86,0,0,1,829.59,387Z"/><path d="M852.5,387a14,14,0,0,1-4.17-.57,11.5,11.5,0,0,1-3.15-1.5,17.41,17.41,0,0,1-2.39-2l2-2.58a16.33,16.33,0,0,0,3.06,2.3,8.33,8.33,0,0,0,4.25,1,6.55,6.55,0,0,0,3.2-.8,5.83,5.83,0,0,0,2.28-2.26,6.88,6.88,0,0,0,.83-3.47,6.32,6.32,0,0,0-1.66-4.65,6,6,0,0,0-4.46-1.65,6.86,6.86,0,0,0-2.56.43,14.52,14.52,0,0,0-2.41,1.32l-2.07-1.34,1-14.17H861v3.45H849.69l-.78,8.47a11.06,11.06,0,0,1,2.09-.85,8.38,8.38,0,0,1,2.33-.3,10.82,10.82,0,0,1,4.6,1,7.45,7.45,0,0,1,3.28,3,11.41,11.41,0,0,1-.18,10.61,9.31,9.31,0,0,1-3.68,3.4A10.49,10.49,0,0,1,852.5,387Z"/><path d="M871,367.32l-1.89-1.38,2.58-4.37-4.51-1.88.73-2.17,4.79,1.15.41-5h2.35l.41,5,4.74-1.11.74,2.17-4.51,1.88,2.62,4.37-1.89,1.38-3.26-3.95Z"/><path d="M897.9,386.41V367q0-1.18.09-2.85c.06-1.1.11-2.05.14-2.85H898c-.37.71-.76,1.39-1.16,2.07l-1.24,2.12-6.62,9.79h16.7v3.18H884.79v-2.67l12.42-18.68h4.46v29.35Z"/><path d="M918.42,387a7.83,7.83,0,0,1-6.95-4q-2.54-4-2.53-11.33t2.53-11.27a8.16,8.16,0,0,1,13.89,0q2.53,3.89,2.53,11.25T925.36,383A7.83,7.83,0,0,1,918.42,387Zm0-3.22a4.05,4.05,0,0,0,2.92-1.24,8.46,8.46,0,0,0,2-3.91,27.39,27.39,0,0,0,.72-6.94,26.78,26.78,0,0,0-.72-6.9,8,8,0,0,0-2-3.82,4.21,4.21,0,0,0-5.89,0,7.87,7.87,0,0,0-2,3.82,27.9,27.9,0,0,0-.69,6.9,28.53,28.53,0,0,0,.69,6.94,8.27,8.27,0,0,0,2,3.91A4.08,4.08,0,0,0,918.42,383.74Z"/><path d="M940.91,364V353.43h3.86V364Zm5.33,22.4L955,364H940.91V360.7h18.31v3.59l-8.74,22.12Z"/><path d="M974.81,386.41v-17a12.62,12.62,0,0,1,.34-3.1,7.49,7.49,0,0,1,1-2.28H963.45V360.7h20.1V364H980.1a7.52,7.52,0,0,0-.85,2.64,19.86,19.86,0,0,0-.21,2.74v17Z"/><path d="M989.3,386.41V366.08l-.6-5.38h4.23l.6,5.38v20.33Z"/><path d="M999.23,387.1l-1.56-3.4a16.59,16.59,0,0,0,5.41-3,13.42,13.42,0,0,0,3.51-4.81l1.38,2.53a17.1,17.1,0,0,1-2.09,3.87,12.63,12.63,0,0,1-2.87,2.83A16.42,16.42,0,0,1,999.23,387.1Zm8.88-.69-1.79-9.8v-8.37a7.11,7.11,0,0,0-.53-3.13,2.61,2.61,0,0,0-2.09-1.24l-3-.46.6-3.22,4.19.65a5.12,5.12,0,0,1,3.88,2.09,9,9,0,0,1,1.13,4.9v8.88l1.61,9.7Z"/><path d="M1029.46,386.41V369.12c0-1.91-.42-3.23-1.25-4a4.68,4.68,0,0,0-3.31-1.13h-8.46V360.7h9.47a9.08,9.08,0,0,1,4,.85,6.05,6.05,0,0,1,2.74,2.74,10.77,10.77,0,0,1,1,5v17.11Zm-13,0V383.1h20.47v3.31Z"/><path d="M1049.19,387.1l-.41-3a6.87,6.87,0,0,0,2.85-.8,3.28,3.28,0,0,0,1.4-1.75,8.58,8.58,0,0,0,.39-2.78V360.7h11.82a9.08,9.08,0,0,1,4,.85,6.05,6.05,0,0,1,2.74,2.74,10.77,10.77,0,0,1,1,5v17.11h-4.23V369.12c0-1.91-.41-3.23-1.22-4a4.71,4.71,0,0,0-3.34-1.13h-6.58v14.31a10.76,10.76,0,0,1-.89,4.73,6.15,6.15,0,0,1-2.76,2.81A13.17,13.17,0,0,1,1049.19,387.1Z"/><path d="M1079.32,376.75V366.08l-.6-5.38H1083l.6,5.38V373l0,2.89Z"/><path d="M1092.15,386.41v-17a12.6,12.6,0,0,1,.35-3.1,7.49,7.49,0,0,1,.94-2.28h-4.51V360.7H1101V364h-3.59a6.32,6.32,0,0,0-.85,2.64,25.1,25.1,0,0,0-.16,2.74v17Z"/><circle class="cls-2" cx="1144.52" cy="72.39" r="31.52"/><path class="cls-3" d="M1132.62,74.46l8,10.15a139.39,139.39,0,0,1,15.85-24.43"/></g></svg>