<svg xmlns="http://www.w3.org/2000/svg" xmlns:xlink="http://www.w3.org/1999/xlink" viewBox="0 0 1242 2208"><defs><style>.cls-1{fill:#e8e8e8;}.cls-11,.cls-14,.cls-15,.cls-17,.cls-18,.cls-2,.cls-3,.cls-5,.cls-8{fill:none;}.cls-2{stroke:#999;}.cls-11,.cls-14,.cls-2,.cls-7{stroke-miterlimit:10;}.cls-11,.cls-14,.cls-18,.cls-19,.cls-2{stroke-width:3px;}.cls-3{stroke:#333;}.cls-15,.cls-17,.cls-18,.cls-19,.cls-3,.cls-4,.cls-5,.cls-7,.cls-8{stroke-linecap:round;}.cls-15,.cls-17,.cls-18,.cls-19,.cls-3,.cls-4,.cls-5,.cls-8{stroke-linejoin:round;}.cls-3,.cls-4,.cls-5,.cls-7,.cls-8{stroke-width:3.33px;}.cls-13,.cls-4,.cls-7{fill:#0d635f;}.cls-11,.cls-4,.cls-7,.cls-8{stroke:#0d635f;}.cls-5{stroke:#e8e8e8;}.cls-6{fill:#666;}.cls-9{font-size:42px;}.cls-12,.cls-9{font-family:Assistant-Medium, Assistant;font-weight:500;}.cls-10{fill:#333;}.cls-12{font-size:46px;}.cls-14,.cls-15,.cls-17,.cls-18,.cls-19{stroke:#fff;}.cls-15{stroke-width:10px;}.cls-16,.cls-19{fill:#fff;}.cls-17{stroke-width:5px;}</style></defs><g id="Layer_1" data-name="Layer 1"><rect class="cls-1" width="1242" height="2208"/></g><g id="Layer_2" data-name="Layer 2"><line class="cls-2" x1="614.93" y1="1398" x2="614.93" y2="1545.21"/><line class="cls-2" x1="895.92" y1="1398" x2="895.92" y2="1545.21"/><image width="1536" height="1050" transform="translate(0 177.36) scale(0.81 0.81)" xlink:href="../../%D7%A4%D7%95%D7%A7%D7%90%D7%A6%D7%94%20%D7%AA%D7%9E%D7%95%D7%A0%D7%94.png"/><line class="cls-2" y1="1380.3" x2="1242" y2="1380.3"/><line class="cls-2" y1="1561.88" x2="1242" y2="1561.88"/><line class="cls-2" x1="0.97" y1="2098.83" x2="1242.97" y2="2098.83"/><path d="M644,1152.82l-.9-7.35a12.61,12.61,0,0,0,4.35-1.16,3.92,3.92,0,0,0,1.91-2.36,12.55,12.55,0,0,0,.41-4v-29.18h22.73a14.84,14.84,0,0,1,6.64,1.43,10.44,10.44,0,0,1,4.57,4.5,16.91,16.91,0,0,1,1.69,8.17v28.73h-10.8V1122.3q0-2.92-1.35-4.2a5.25,5.25,0,0,0-3.75-1.28h-8.85v19.65a20,20,0,0,1-1.76,9.15,11,11,0,0,1-5.44,5A30,30,0,0,1,644,1152.82Z"/><path d="M694,1135.8v-18.3l-.9-8.78h10.8l.9,8.78v11.7l-.08,4.72Z"/><path d="M712,1166.55v-35.93l1.5-5.17h9.38v41.1Zm16-14.93-.83-8.1a14.38,14.38,0,0,0,4.28-1,8.72,8.72,0,0,0,3.22-2.32,10.72,10.72,0,0,0,2.1-4.09,28.57,28.57,0,0,0,1-6.23l1-13h-26.1v-8.1h37.73l-.38,7-.82,11.32a42.53,42.53,0,0,1-1.46,9.53,25,25,0,0,1-3.64,7.8,16.51,16.51,0,0,1-6.34,5.29A22.9,22.9,0,0,1,728,1151.62Z"/><path d="M755.38,1116.82v-19h9.75v19Zm8.33,34.73,13.42-34.73H755.38v-8.1H788v8.93l-13.5,33.9Z"/><path d="M798.43,1152.3l-5-43.58h10.87l3.68,34a21.84,21.84,0,0,0,6.82-1.61,12,12,0,0,0,4.43-3.23,12.22,12.22,0,0,0,2.36-4.69,22.45,22.45,0,0,0,.64-6.07v-2.33a10.07,10.07,0,0,0-.75-3.9,7.26,7.26,0,0,0-2.4-3,7.57,7.57,0,0,0-4.2-1.39l-3.68-.23.83-8.32,4.57.22a20.57,20.57,0,0,1,8,2,14.26,14.26,0,0,1,5.77,5.07,15.91,15.91,0,0,1,2.37,8.51l.07,2.1a25.66,25.66,0,0,1-2.06,11.74,19.93,19.93,0,0,1-6.83,8.06,33,33,0,0,1-11,4.76A73.79,73.79,0,0,1,798.43,1152.3Z"/><path d="M839.3,1135.8v-18.3l-.9-8.78h10.81l.9,8.78v11.7l-.08,4.72Z"/><path d="M898.33,1151.55H886.78l-14.1-21.83L866,1151.55H855.73l8.32-25.73,2.33-5.77-7-11.33h10.88l6,9.75,5.4,8.18,2-6.83,3-11.1H897l-9,27.3Z"/><path d="M919,1151.55v-20.48l1.5-5h9.37v25.5Zm25.05,0V1122.3a5.69,5.69,0,0,0-1.31-4.2,5.14,5.14,0,0,0-3.72-1.28H919.48v-8.1H942a15,15,0,0,1,6.67,1.43,10.44,10.44,0,0,1,4.62,4.5,17,17,0,0,1,1.68,8.17v28.73Z"/><path d="M969.2,1125.07a5.7,5.7,0,0,1-5-2.43,11.79,11.79,0,0,1-1.72-6.87,16.39,16.39,0,0,1,2.55-9.11,18.81,18.81,0,0,1,7.72-6.49l2.33,4.5a13.29,13.29,0,0,0-5,3.94,9.32,9.32,0,0,0-1.65,5.59l.37,6.22-3.52-4.8a8.35,8.35,0,0,1,1.8-1.12,4.76,4.76,0,0,1,2-.45,5.73,5.73,0,0,1,3.87,1.39,4.73,4.73,0,0,1,1.61,3.78,5.89,5.89,0,0,1-1.54,4.28A5.26,5.26,0,0,1,969.2,1125.07Z"/><path d="M982.55,1151.55v-8.1h30l3.08,8.1Zm25,0-24.15-42.83h10.87l24.15,42.83Zm.67-16.8-6.15-9.23,6.83-16.8h10.65Z"/><path d="M1066.4,1151.55h-11.55l-14.1-21.83-6.67,21.83H1023.8l8.33-25.73,2.32-5.77-7-11.33h10.87l6,9.75,5.4,8.18,2-6.83,3-11.1h10.27l-9,27.3Z"/><path d="M1071.73,1166.55v-35.93l1.5-5.17h9.37v41.1Zm16-14.93-.82-8.1a14.38,14.38,0,0,0,4.27-1,8.75,8.75,0,0,0,3.23-2.32,10.86,10.86,0,0,0,2.1-4.09,29.25,29.25,0,0,0,1-6.23l1-13h-26.1v-8.1h37.72l-.37,7-.83,11.32a42.53,42.53,0,0,1-1.46,9.53,25,25,0,0,1-3.64,7.8,16.44,16.44,0,0,1-6.34,5.29A22.87,22.87,0,0,1,1087.7,1151.62Z"/><path d="M1117.33,1151.55v-34l-.9-8.78h10.8l.89,8.78v34Z"/><path d="M1136.15,1151.55v-8.1h15.15a10.23,10.23,0,0,0,3.9-.71,7.53,7.53,0,0,0,2.89-2.1,10.18,10.18,0,0,0,1.8-3.34,14.4,14.4,0,0,0,.63-4.43v-5.55a15,15,0,0,0-.9-5.36,8.19,8.19,0,0,0-2.77-3.75,7.78,7.78,0,0,0-4.73-1.39h-5.4l-1.34,6.38a5.52,5.52,0,0,0,.44,4.2q1,1.42,4.13,2.1l-1.73,6.75c-3.65-.1-6.43-.78-8.36-2a8.57,8.57,0,0,1-3.75-5,16.78,16.78,0,0,1-.26-7l3-13.5h15.82a16.19,16.19,0,0,1,9,2.4,15.62,15.62,0,0,1,5.7,6.68,23.71,23.71,0,0,1,2,10v4.5a25,25,0,0,1-1.23,8.1,16.69,16.69,0,0,1-3.57,6.07,15.18,15.18,0,0,1-5.51,3.75,19.11,19.11,0,0,1-7.16,1.28Z"/><path d="M146.47,1245.14v-23.48h3.86v23.48Zm.92,0v-3H164l-.25,3Zm14,0v-15.79c0-1.74-.37-2.95-1.11-3.64a4.35,4.35,0,0,0-3.05-1h-8.44v-3h9.37a8.28,8.28,0,0,1,3.69.78,5.5,5.5,0,0,1,2.5,2.5,9.74,9.74,0,0,1,.91,4.57v15.63Z"/><path d="M169.44,1246.44l-.54-3.07,8-1.51a11.69,11.69,0,0,0,3.88-1.38,6.36,6.36,0,0,0,2.31-2.44,11.68,11.68,0,0,0,1.18-3.74,38.76,38.76,0,0,0,.42-5.35q.06-3.14.06-7.29h3.87q0,4.46-.17,7.92a35.69,35.69,0,0,1-.76,6.07,12.83,12.83,0,0,1-1.85,4.45,9.82,9.82,0,0,1-3.42,3,18.41,18.41,0,0,1-5.48,1.83Zm6.81-4.16-5.38-20.62h3.87l5.25,20.62Z"/><path d="M202,1245.14v-23.48h3.86v23.48Zm.92,0v-3h16.59l-.25,3Zm14,0v-15.79c0-1.74-.37-2.95-1.12-3.64a4.32,4.32,0,0,0-3-1h-8.44v-3h9.36a8.36,8.36,0,0,1,3.7.78,5.55,5.55,0,0,1,2.5,2.5,9.87,9.87,0,0,1,.9,4.57v15.63Z"/><path d="M226.65,1236.32v-9.75l-.55-4.91H230l.55,4.91v6.35l0,2.64Z"/><path d="M236.39,1236.32v-9.75l-.55-4.91h3.87l.54,4.91v6.35l0,2.64Z"/><path d="M243.7,1245.77l-.38-2.73a6.1,6.1,0,0,0,2.6-.74,2.92,2.92,0,0,0,1.28-1.59,7.81,7.81,0,0,0,.36-2.54v-16.51h10.8a8.31,8.31,0,0,1,3.69.78,5.5,5.5,0,0,1,2.5,2.5,9.87,9.87,0,0,1,.9,4.57v15.63h-3.86v-15.79c0-1.74-.37-2.95-1.11-3.64a4.36,4.36,0,0,0-3.05-1h-6v13.07a10,10,0,0,1-.82,4.32,5.58,5.58,0,0,1-2.52,2.56A12.05,12.05,0,0,1,243.7,1245.77Z"/><path d="M281.46,1245.14v-15.79c0-1.74-.38-2.95-1.14-3.64a4.34,4.34,0,0,0-3-1h-7.6v-3h8.52a8.36,8.36,0,0,1,3.7.78,5.6,5.6,0,0,1,2.5,2.5,9.87,9.87,0,0,1,.9,4.57v15.63Z"/><path d="M291.2,1236.32v-9.75l-.55-4.91h3.87l.54,4.91v6.35l0,2.64Z"/><path d="M299.39,1245.14v-3h16.13l1.13,3Zm14.57,0-13.81-23.48h3.94l13.82,23.48Zm-2.31-9.66-2.14-3.4,4.41-10.42h3.87Z"/><path d="M323,1236.32v-9.75l-.55-4.91h3.86l.55,4.91v6.35l0,2.64Z"/><path d="M339.33,1245.77,339,1243a6.19,6.19,0,0,0,2.61-.74,3,3,0,0,0,1.28-1.59,7.83,7.83,0,0,0,.35-2.54v-16.51H354a8.28,8.28,0,0,1,3.69.78,5.5,5.5,0,0,1,2.5,2.5,9.74,9.74,0,0,1,.91,4.57v15.63h-3.87v-15.79c0-1.74-.37-2.95-1.11-3.64a4.35,4.35,0,0,0-3.05-1h-6v13.07a9.82,9.82,0,0,1-.82,4.32,5.58,5.58,0,0,1-2.52,2.56A12.05,12.05,0,0,1,339.33,1245.77Z"/><path d="M366.84,1245.14v-18.57l-.55-4.91h3.87l.54,4.91v18.57Z"/><path d="M376.58,1236.32v-9.75l-.54-4.91h3.86l.55,4.91v6.35l0,2.64Z"/><path d="M385.61,1245.14v-11.38l.55-2.82h3.32v14.2Zm14.33,0v-15.79c0-1.74-.38-2.95-1.14-3.64a4.34,4.34,0,0,0-3-1H385.7v-3h11a8.36,8.36,0,0,1,3.7.78,5.6,5.6,0,0,1,2.5,2.5,9.87,9.87,0,0,1,.9,4.57v15.63Z"/><path d="M408.08,1224.68V1215h3.53v9.66Zm4.88,20.46,8-20.46H408.08v-3H424.8v3.28l-8,20.2Z"/><path d="M438,1245.14v-23.48h3.86v23.48Zm.92,0v-3h16.59l-.25,3Zm14,0v-15.79c0-1.74-.37-2.95-1.12-3.64a4.32,4.32,0,0,0-3-1H440.3v-3h9.36a8.36,8.36,0,0,1,3.7.78,5.55,5.55,0,0,1,2.5,2.5,9.87,9.87,0,0,1,.9,4.57v15.63Z"/><path d="M462.56,1236.32v-9.75l-.55-4.91h3.86l.55,4.91v6.35l0,2.64Z"/><path d="M472.3,1236.32v-9.75l-.55-4.91h3.87l.54,4.91v6.35l0,2.64Z"/><path d="M483.89,1245.56l-3-23.9h3.7l2.47,20.58a18.21,18.21,0,0,0,5.65-1.18,10.59,10.59,0,0,0,4-2.71,10.9,10.9,0,0,0,2.38-4.3,20,20,0,0,0,.73-6l0-6.43h3.86l.05,6.26a19.82,19.82,0,0,1-2.13,9.83,13.47,13.47,0,0,1-6.57,5.85A27.43,27.43,0,0,1,483.89,1245.56Zm1.81-9.16-.93-2.64a12.47,12.47,0,0,0,3.43-2,6.25,6.25,0,0,0,1.78-2.88,15.76,15.76,0,0,0,.55-4.53l0-2.57h3.7l0,2.48a16.34,16.34,0,0,1-.86,5.42,9.17,9.17,0,0,1-2.66,3.88A17.42,17.42,0,0,1,485.7,1236.4Z"/><path d="M508.84,1245.14v-3h7.22a8.49,8.49,0,0,0,2.69-.4,5.47,5.47,0,0,0,2.12-1.25,5.93,5.93,0,0,0,1.41-2.27,10.31,10.31,0,0,0,.5-3.47V1232a11.47,11.47,0,0,0-.61-4,5,5,0,0,0-1.86-2.5,5.49,5.49,0,0,0-3.15-.86h-4.08l-1.05,4.41a5.3,5.3,0,0,0,.13,3.41c.39.78,1.34,1.33,2.85,1.63l-.71,2.57a7.72,7.72,0,0,1-4-1.24,4.52,4.52,0,0,1-1.76-2.71,9.75,9.75,0,0,1,0-4l1.64-7.14h7.68a8.68,8.68,0,0,1,4.68,1.22,7.77,7.77,0,0,1,3,3.55,13.9,13.9,0,0,1,1,5.73v2.39a14.1,14.1,0,0,1-.74,4.83,8.16,8.16,0,0,1-5.25,5.17,12.26,12.26,0,0,1-3.84.59Z"/><path d="M531.81,1245.14v-18.57l-.54-4.91h3.86l.55,4.91v18.57Z"/><path d="M555.84,1245.14v-15.29c0-3.44-1.39-5.17-4.16-5.17H541v-3H552.6a7.55,7.55,0,0,1,3.78.9,6,6,0,0,1,2.46,2.75,11.26,11.26,0,0,1,.86,4.71v15.12Zm-14.83,0v-22h3.86v22Z"/><path d="M573.9,1245.14v-18.57l-.55-4.91h3.86l.55,4.91v18.57Z"/><path d="M585.49,1245.56l-3-23.9h3.69l2.48,20.58a18.21,18.21,0,0,0,5.65-1.18,10.59,10.59,0,0,0,4-2.71,11,11,0,0,0,2.37-4.3,19.64,19.64,0,0,0,.74-6l0-6.43h3.86l0,6.26a19.82,19.82,0,0,1-2.12,9.83,13.47,13.47,0,0,1-6.57,5.85A27.43,27.43,0,0,1,585.49,1245.56Zm1.8-9.16-.92-2.64a12.25,12.25,0,0,0,3.42-2,6.26,6.26,0,0,0,1.79-2.88,15.8,15.8,0,0,0,.54-4.53l0-2.57h3.69l0,2.48a16.87,16.87,0,0,1-.86,5.42,9.28,9.28,0,0,1-2.67,3.88A17.29,17.29,0,0,1,587.29,1236.4Z"/><path d="M610.56,1236.32v-9.75l-.55-4.91h3.87l.54,4.91v6.35l0,2.64Z"/><path d="M619.63,1245.77l-1.42-3.11a15,15,0,0,0,4.93-2.71,12.32,12.32,0,0,0,3.21-4.39l1.26,2.31a15.54,15.54,0,0,1-1.91,3.53,11.45,11.45,0,0,1-2.62,2.58A14.78,14.78,0,0,1,619.63,1245.77Zm8.11-.63-1.64-9v-7.64a6.49,6.49,0,0,0-.48-2.86,2.38,2.38,0,0,0-1.91-1.13l-2.69-.42.55-2.94,3.82.59a4.71,4.71,0,0,1,3.55,1.91,8.22,8.22,0,0,1,1,4.47v8.11l1.48,8.86Z"/><path d="M646.68,1245.14v-15.79a4.8,4.8,0,0,0-1.13-3.64,4.38,4.38,0,0,0-3-1h-7.6v-3h8.53a8.28,8.28,0,0,1,3.69.78,5.5,5.5,0,0,1,2.5,2.5,9.87,9.87,0,0,1,.9,4.57v15.63Z"/><path d="M654.58,1245.77l-.38-2.73a6.1,6.1,0,0,0,2.6-.74,3,3,0,0,0,1.28-1.59,7.81,7.81,0,0,0,.36-2.54v-16.51h10.79a8.32,8.32,0,0,1,3.7.78,5.55,5.55,0,0,1,2.5,2.5,9.87,9.87,0,0,1,.9,4.57v15.63h-3.86v-15.79c0-1.74-.37-2.95-1.11-3.64a4.36,4.36,0,0,0-3.05-1h-6v13.07a10,10,0,0,1-.81,4.32,5.58,5.58,0,0,1-2.52,2.56A12.05,12.05,0,0,1,654.58,1245.77Z"/><path d="M692.67,1245.64a2.49,2.49,0,0,1-1.81-.75,2.65,2.65,0,0,1-.75-1.94,2.72,2.72,0,0,1,.75-2,2.46,2.46,0,0,1,1.81-.76,2.51,2.51,0,0,1,1.85.76,2.72,2.72,0,0,1,.75,2,2.65,2.65,0,0,1-.75,1.94A2.54,2.54,0,0,1,692.67,1245.64Z"/><path d="M700.4,1245.14v-11.38l.54-2.82h3.32v14.2Zm14.32,0v-15.79a4.8,4.8,0,0,0-1.13-3.64,4.38,4.38,0,0,0-3-1H700.48v-3h11a8.28,8.28,0,0,1,3.69.78,5.5,5.5,0,0,1,2.5,2.5,9.87,9.87,0,0,1,.9,4.57v15.63Z"/><path d="M724.3,1236.32v-9.75l-.55-4.91h3.86l.55,4.91v6.35l0,2.64Z"/><path d="M732.61,1224.68V1215h3.53v9.66Zm4.87,20.46,8-20.46H732.61v-3h16.72v3.28l-8,20.2Z"/><path d="M755.92,1245.56l-2.81-23.9H757l2.35,20.37a16.17,16.17,0,0,0,4.06-.9,9.23,9.23,0,0,0,3.21-2,8.43,8.43,0,0,0,2.06-3.23,12.63,12.63,0,0,0,.63-4.64v-1.14a6.87,6.87,0,0,0-.55-2.81,4.51,4.51,0,0,0-1.68-2,5.92,5.92,0,0,0-2.9-.89l-2.1-.12.3-3.07,2.39.17a10.4,10.4,0,0,1,4.26,1,6.92,6.92,0,0,1,2.88,2.69,9.15,9.15,0,0,1,1.13,4.49l0,1.18a14.71,14.71,0,0,1-1.1,6.55,11,11,0,0,1-3.54,4.45,17.18,17.18,0,0,1-5.53,2.63A30.57,30.57,0,0,1,755.92,1245.56Z"/><path d="M777.84,1236.32v-9.75l-.54-4.91h3.86l.55,4.91v6.35l0,2.64Z"/><path d="M807.12,1245.14H803l-9.2-13.86-4.32,13.86h-3.7l4.62-14.45,1.13-2.86-3.82-6.17h3.91l3.65,5.8L799,1233l1-3.57,2.31-7.81H806l-4.79,14.74Z"/><path d="M810.86,1245.14l3.06-16.3-3.27-7.18h4l2.94,7.35-2.86,16.13Zm8.06.08.38-3a9.15,9.15,0,0,0,5.46-.17,5.53,5.53,0,0,0,3-3.25,15.77,15.77,0,0,0,.84-6.07,13.28,13.28,0,0,0-.8-4.9,5.33,5.33,0,0,0-2-2.56,5.49,5.49,0,0,0-2.9-.77,4.92,4.92,0,0,0-4.48,2.45,7.7,7.7,0,0,0-.9,2.46l-1-1.93a7.72,7.72,0,0,1,2.73-4.64,7.14,7.14,0,0,1,4.33-1.45,9.42,9.42,0,0,1,3.46.61,6.82,6.82,0,0,1,2.75,2,9.57,9.57,0,0,1,1.85,3.51,18.78,18.78,0,0,1,.72,5.27,16.72,16.72,0,0,1-1.43,7.89,8.52,8.52,0,0,1-4.58,4.31A12.62,12.62,0,0,1,818.92,1245.22Z"/><path d="M847.48,1245.56l-2.81-23.9h3.86l2.35,20.37a16,16,0,0,0,4-.9,9.18,9.18,0,0,0,3.22-2,8.43,8.43,0,0,0,2.06-3.23,12.43,12.43,0,0,0,.62-4.64v-1.14a6.87,6.87,0,0,0-.54-2.81,4.58,4.58,0,0,0-1.68-2,5.92,5.92,0,0,0-2.9-.89l-2.1-.12.3-3.07,2.39.17a10.45,10.45,0,0,1,4.26,1,6.92,6.92,0,0,1,2.88,2.69,9.15,9.15,0,0,1,1.13,4.49l0,1.18a14.85,14.85,0,0,1-1.1,6.55,11,11,0,0,1-3.55,4.45,17,17,0,0,1-5.52,2.63A30.57,30.57,0,0,1,847.48,1245.56Z"/><path d="M869.4,1245.14v-18.57l-.54-4.91h3.86l.55,4.91v18.57Z"/><path d="M881,1245.56l-3-23.9h3.7l2.48,20.58a18.28,18.28,0,0,0,5.65-1.18,10.66,10.66,0,0,0,4-2.71,11,11,0,0,0,2.37-4.3,20,20,0,0,0,.74-6l-.05-6.43h3.87l0,6.26a19.82,19.82,0,0,1-2.12,9.83,13.45,13.45,0,0,1-6.58,5.85A27.38,27.38,0,0,1,881,1245.56Zm1.8-9.16-.92-2.64a12.55,12.55,0,0,0,3.42-2,6.17,6.17,0,0,0,1.78-2.88,15.42,15.42,0,0,0,.55-4.53l0-2.57h3.7l0,2.48a16.87,16.87,0,0,1-.86,5.42,9.28,9.28,0,0,1-2.67,3.88A17.29,17.29,0,0,1,882.8,1236.4Z"/><path d="M905.94,1245.14v-3h7.23a8.42,8.42,0,0,0,2.68-.4,5.51,5.51,0,0,0,2.13-1.25,5.8,5.8,0,0,0,1.4-2.27,10.29,10.29,0,0,0,.51-3.47V1232a11.71,11.71,0,0,0-.61-4,5.12,5.12,0,0,0-1.87-2.5,5.49,5.49,0,0,0-3.15-.86h-4.08l-1,4.41a5.44,5.44,0,0,0,.13,3.41c.39.78,1.34,1.33,2.86,1.63l-.72,2.57a7.78,7.78,0,0,1-4-1.24,4.52,4.52,0,0,1-1.76-2.71,9.93,9.93,0,0,1,0-4l1.64-7.14H915a8.71,8.71,0,0,1,4.69,1.22,7.81,7.81,0,0,1,3,3.55,13.9,13.9,0,0,1,1,5.73v2.39a14.11,14.11,0,0,1-.73,4.83,8.16,8.16,0,0,1-5.25,5.17,12.32,12.32,0,0,1-3.85.59Z"/><path d="M928.2,1245.14v-11.38l.55-2.82h3.32v14.2Zm14.32,0v-15.79c0-1.74-.37-2.95-1.13-3.64a4.35,4.35,0,0,0-3-1H928.29v-3h11a8.36,8.36,0,0,1,3.7.78,5.6,5.6,0,0,1,2.5,2.5,9.87,9.87,0,0,1,.9,4.57v15.63Z"/><path d="M952.1,1245.14v-18.57l-.55-4.91h3.87l.54,4.91v18.57Z"/><path d="M981,1245.14v-15.79c0-1.74-.38-2.95-1.14-3.64a4.34,4.34,0,0,0-3-1h-7.73v-3h8.65a8.32,8.32,0,0,1,3.7.78,5.55,5.55,0,0,1,2.5,2.5,9.87,9.87,0,0,1,.9,4.57v15.63Zm-11.89,0v-3h18.69v3Z"/><path d="M992.5,1245.14v-18.57l-.54-4.91h3.86l.55,4.91v18.57Z"/><path d="M1001.53,1245.14v-11.38l.55-2.82h3.32v14.2Zm14.33,0v-15.79c0-1.74-.38-2.95-1.14-3.64a4.34,4.34,0,0,0-3-1h-10.08v-3h11a8.36,8.36,0,0,1,3.7.78,5.6,5.6,0,0,1,2.5,2.5,9.87,9.87,0,0,1,.9,4.57v15.63Z"/><path d="M1045,1245.14h-4.16l-9.19-13.86-4.33,13.86h-3.7l4.62-14.45,1.14-2.86-3.82-6.17h3.9l3.66,5.8,3.73,5.58,1-3.57,2.31-7.81h3.74l-4.79,14.74Z"/><path d="M1048.78,1245.14v-11.38l.55-2.82h3.32v14.2Zm14.32,0v-15.79c0-1.74-.37-2.95-1.13-3.64a4.35,4.35,0,0,0-3-1h-10.08v-3h11a8.36,8.36,0,0,1,3.7.78,5.6,5.6,0,0,1,2.5,2.5,9.87,9.87,0,0,1,.9,4.57v15.63Z"/><path d="M1080.91,1245.14v-23.48h3.87v23.48Zm.93,0v-3h16.59l-.26,3Zm14,0v-15.79c0-1.74-.37-2.95-1.11-3.64a4.34,4.34,0,0,0-3-1h-8.45v-3h9.37a8.36,8.36,0,0,1,3.7.78,5.6,5.6,0,0,1,2.5,2.5,9.87,9.87,0,0,1,.9,4.57v15.63Z"/><path d="M1119.8,1245.14v-15.29c0-3.44-1.38-5.17-4.15-5.17H1105v-3h11.59a7.55,7.55,0,0,1,3.78.9,6,6,0,0,1,2.46,2.75,11.26,11.26,0,0,1,.86,4.71v15.12Zm-14.82,0v-22h3.86v22Z"/><path d="M1128,1224.68V1215h3.52v9.66Zm4.87,20.46,8-20.46H1128v-3h16.71v3.28l-8,20.2Z"/><path d="M1149,1245.14v-11.38l.55-2.82h3.31v14.2Zm14.32,0v-15.79a4.8,4.8,0,0,0-1.13-3.64,4.36,4.36,0,0,0-3-1H1149v-3h11a8.28,8.28,0,0,1,3.69.78,5.5,5.5,0,0,1,2.5,2.5,9.86,9.86,0,0,1,.91,4.57v15.63Z"/><path d="M99.89,1296a2.45,2.45,0,0,1-1.8-.75,2.61,2.61,0,0,1-.76-1.94,2.68,2.68,0,0,1,.76-2,2.43,2.43,0,0,1,1.8-.76,2.49,2.49,0,0,1,1.85.76,2.68,2.68,0,0,1,.76,2,2.61,2.61,0,0,1-.76,1.94A2.52,2.52,0,0,1,99.89,1296Z"/><path d="M108.17,1295.54v-23.48H112v23.48Zm.92,0v-3h16.59l-.25,3Zm14,0v-15.79c0-1.74-.37-3-1.11-3.64a4.36,4.36,0,0,0-3.05-1h-8.44v-3h9.36a8.32,8.32,0,0,1,3.7.78,5.55,5.55,0,0,1,2.5,2.5,9.87,9.87,0,0,1,.9,4.57v15.63Z"/><path d="M131.35,1275.08v-9.66h3.53v9.66Zm4.87,20.46,8-20.46H131.35v-3h16.72v3.28l-8,20.2Z"/><path d="M154.83,1296l-3-23.9h3.7l2.48,20.58a18.28,18.28,0,0,0,5.65-1.18,10.66,10.66,0,0,0,4-2.71,11,11,0,0,0,2.37-4.3,20,20,0,0,0,.74-6l0-6.43h3.86l0,6.26a19.82,19.82,0,0,1-2.12,9.83A13.47,13.47,0,0,1,166,1294,27.43,27.43,0,0,1,154.83,1296Zm1.8-9.16-.92-2.64a12.25,12.25,0,0,0,3.42-2,6.26,6.26,0,0,0,1.79-2.88,15.8,15.8,0,0,0,.54-4.53l0-2.57h3.7l0,2.48a16.87,16.87,0,0,1-.86,5.42,9.28,9.28,0,0,1-2.67,3.88A17.29,17.29,0,0,1,156.63,1286.8Z"/><path d="M179.9,1295.54V1277l-.55-4.91h3.87l.54,4.91v18.57Z"/><path d="M188.85,1295.54l3.06-16.3-3.27-7.18h4l2.94,7.35-2.86,16.13Zm8.06.08.38-3a9.15,9.15,0,0,0,5.46-.17,5.5,5.5,0,0,0,3-3.25,15.77,15.77,0,0,0,.84-6.07,13.32,13.32,0,0,0-.8-4.9,5.33,5.33,0,0,0-2-2.56,5.49,5.49,0,0,0-2.9-.77,5.11,5.11,0,0,0-2.71.67,5,5,0,0,0-1.76,1.78,7.57,7.57,0,0,0-.91,2.46l-1-1.93a7.72,7.72,0,0,1,2.73-4.64,7.14,7.14,0,0,1,4.33-1.45,9.42,9.42,0,0,1,3.46.61,6.92,6.92,0,0,1,2.76,1.95,9.71,9.71,0,0,1,1.84,3.51,18.78,18.78,0,0,1,.72,5.27,16.59,16.59,0,0,1-1.43,7.89,8.52,8.52,0,0,1-4.58,4.31A12.62,12.62,0,0,1,196.91,1295.62Z"/><path d="M230.51,1295.54l-.34-3a12.94,12.94,0,0,0,2.63-.61,5.93,5.93,0,0,0,2.18-1.39,7.09,7.09,0,0,0,1.56-2.67,16.44,16.44,0,0,0,.77-4.32l.68-8.49H223v-3h19.15l-.16,2.69-.63,8a21.27,21.27,0,0,1-.95,5.42,12,12,0,0,1-2.14,4,9.29,9.29,0,0,1-3.32,2.49A11.12,11.12,0,0,1,230.51,1295.54Zm-7.52,8.4v-20.29l.55-2.85h3.32v23.14Z"/><path d="M245.67,1295.54v-3H261.8l1.13,3Zm14.58,0-13.82-23.48h3.95l13.81,23.48Zm-2.31-9.66-2.15-3.4,4.41-10.42h3.87Z"/><path d="M280.11,1295.54v-15.79a4.8,4.8,0,0,0-1.13-3.64,4.38,4.38,0,0,0-3-1h-7.72v-3h8.65a8.28,8.28,0,0,1,3.69.78,5.5,5.5,0,0,1,2.5,2.5,9.86,9.86,0,0,1,.91,4.57v15.63Zm-11.88,0v-3h18.69v3Z"/><path d="M299.26,1295.54v-11.38l.55-2.82h3.32v14.2Zm14.32,0v-15.79c0-1.74-.37-3-1.13-3.64a4.34,4.34,0,0,0-3-1H299.35v-3h11a8.36,8.36,0,0,1,3.7.78,5.6,5.6,0,0,1,2.5,2.5,9.87,9.87,0,0,1,.9,4.57v15.63Z"/><path d="M325.13,1295.54V1280a11.57,11.57,0,0,1,.32-2.84,7.11,7.11,0,0,1,.86-2.08h-4.12v-3h11v3h-3.28a5.75,5.75,0,0,0-.77,2.42,23,23,0,0,0-.15,2.5v15.54Z"/><path d="M345.5,1286.38v-2.77h9.66v2.77Z"/><path d="M366.5,1296.17l-.37-2.73a6.14,6.14,0,0,0,2.6-.74,2.92,2.92,0,0,0,1.28-1.59,7.81,7.81,0,0,0,.36-2.54v-16.51h10.79a8.36,8.36,0,0,1,3.7.78,5.6,5.6,0,0,1,2.5,2.5,9.87,9.87,0,0,1,.9,4.57v15.63H384.4v-15.79a4.84,4.84,0,0,0-1.12-3.64,4.32,4.32,0,0,0-3-1h-6v13.07a9.82,9.82,0,0,1-.82,4.32,5.48,5.48,0,0,1-2.52,2.56A11.94,11.94,0,0,1,366.5,1296.17Z"/><path d="M393.22,1295.54l3.06-16.3-3.27-7.18h4l2.94,7.35-2.86,16.13Zm8.06.08.38-3a9.15,9.15,0,0,0,5.46-.17,5.53,5.53,0,0,0,3-3.25,15.77,15.77,0,0,0,.84-6.07,13.32,13.32,0,0,0-.8-4.9,5.33,5.33,0,0,0-2-2.56,5.49,5.49,0,0,0-2.9-.77,4.92,4.92,0,0,0-4.48,2.45,7.79,7.79,0,0,0-.9,2.46l-1.05-1.93a7.72,7.72,0,0,1,2.73-4.64,7.14,7.14,0,0,1,4.33-1.45,9.42,9.42,0,0,1,3.46.61,6.82,6.82,0,0,1,2.75,1.95,9.57,9.57,0,0,1,1.85,3.51,18.78,18.78,0,0,1,.72,5.27,16.72,16.72,0,0,1-1.43,7.89,8.52,8.52,0,0,1-4.58,4.31A12.62,12.62,0,0,1,401.28,1295.62Z"/><path d="M418.33,1275.08v-9.66h3.53v9.66Zm4.87,20.46,8-20.46H418.33v-3h16.72v3.28l-8,20.2Z"/><path d="M441.81,1296l-3-23.9h3.69l2.48,20.58a18.21,18.21,0,0,0,5.65-1.18,10.59,10.59,0,0,0,4-2.71,10.76,10.76,0,0,0,2.37-4.3,19.64,19.64,0,0,0,.74-6l0-6.43h3.86l0,6.26a19.82,19.82,0,0,1-2.12,9.83,13.47,13.47,0,0,1-6.57,5.85A27.43,27.43,0,0,1,441.81,1296Zm1.81-9.16-.93-2.64a12.25,12.25,0,0,0,3.42-2,6.18,6.18,0,0,0,1.79-2.88,15.76,15.76,0,0,0,.55-4.53l0-2.57h3.69l0,2.48a16.6,16.6,0,0,1-.86,5.42,9.19,9.19,0,0,1-2.67,3.88A17.22,17.22,0,0,1,443.62,1286.8Z"/><path d="M466.88,1295.54V1277l-.54-4.91h3.86l.55,4.91v18.57Z"/><path d="M475.83,1295.54l3.06-16.3-3.27-7.18h4l2.94,7.35-2.86,16.13Zm8.06.08.38-3a9.15,9.15,0,0,0,5.46-.17,5.5,5.5,0,0,0,3-3.25,15.77,15.77,0,0,0,.84-6.07,13.32,13.32,0,0,0-.8-4.9,5.33,5.33,0,0,0-2-2.56,5.49,5.49,0,0,0-2.9-.77,5.14,5.14,0,0,0-2.71.67,5,5,0,0,0-1.76,1.78,7.57,7.57,0,0,0-.91,2.46l-1-1.93a7.67,7.67,0,0,1,2.72-4.64,7.14,7.14,0,0,1,4.33-1.45,9.48,9.48,0,0,1,3.47.61,6.89,6.89,0,0,1,2.75,1.95,9.56,9.56,0,0,1,1.84,3.51,18.78,18.78,0,0,1,.72,5.27,16.59,16.59,0,0,1-1.43,7.89,8.52,8.52,0,0,1-4.58,4.31A12.61,12.61,0,0,1,483.89,1295.62Z"/><path d="M510.06,1295.54v-11.38l.54-2.82h3.32v14.2Zm14.32,0v-15.79a4.8,4.8,0,0,0-1.13-3.64,4.38,4.38,0,0,0-3-1H510.14v-3h11a8.28,8.28,0,0,1,3.69.78,5.5,5.5,0,0,1,2.5,2.5,9.87,9.87,0,0,1,.9,4.57v15.63Z"/><path d="M536,1277.81a2.38,2.38,0,0,1-2-1,4.89,4.89,0,0,1-.73-2.9,8.12,8.12,0,0,1,1.18-4.41,9.17,9.17,0,0,1,3.44-3.15l1,1.72a7.86,7.86,0,0,0-2.42,2.23,5.34,5.34,0,0,0-.82,3l.47,2.86-1.77-2.19a4,4,0,0,1,.8-.57,2,2,0,0,1,.88-.18,2.43,2.43,0,0,1,1.58.56,2,2,0,0,1,.69,1.62,2.37,2.37,0,0,1-.63,1.76A2.22,2.22,0,0,1,536,1277.81Z"/><path d="M543,1295.54v-3h16.13l1.13,3Zm14.57,0-13.82-23.48h4l13.82,23.48Zm-2.31-9.66-2.14-3.4,4.41-10.42h3.86Z"/><path d="M586.2,1295.54H582l-9.19-13.86-4.33,13.86h-3.7l4.62-14.45,1.14-2.86-3.82-6.17h3.9l3.66,5.8,3.73,5.58,1-3.57,2.31-7.81h3.74l-4.79,14.74Z"/><path d="M597.46,1295.54l-.34-3a12.94,12.94,0,0,0,2.63-.61,5.93,5.93,0,0,0,2.18-1.39,7.09,7.09,0,0,0,1.56-2.67,16.44,16.44,0,0,0,.77-4.32l.67-8.49h-15v-3h19.15l-.17,2.69-.63,8a20.86,20.86,0,0,1-.94,5.42,12,12,0,0,1-2.14,4,9.29,9.29,0,0,1-3.32,2.49A11.12,11.12,0,0,1,597.46,1295.54Zm-7.52,8.4v-20.29l.55-2.85h3.31v23.14Z"/><path d="M614.17,1295.54V1277l-.54-4.91h3.86L618,1277v18.57Z"/><path d="M623.79,1295.54v-3H631a8.72,8.72,0,0,0,2.68-.39,5.66,5.66,0,0,0,2.13-1.26,5.73,5.73,0,0,0,1.4-2.27,10.29,10.29,0,0,0,.51-3.47v-2.69a11.71,11.71,0,0,0-.61-4,5,5,0,0,0-1.87-2.49,5.42,5.42,0,0,0-3.15-.87H628l-1,4.41a5.44,5.44,0,0,0,.13,3.41c.39.78,1.34,1.33,2.86,1.63l-.72,2.57a7.78,7.78,0,0,1-4-1.24,4.52,4.52,0,0,1-1.76-2.71,9.93,9.93,0,0,1,0-4l1.64-7.14h7.68a8.71,8.71,0,0,1,4.69,1.22,7.81,7.81,0,0,1,3,3.55,13.9,13.9,0,0,1,1.05,5.73V1285a14.11,14.11,0,0,1-.73,4.83,8.4,8.4,0,0,1-2.1,3.3,8.28,8.28,0,0,1-3.15,1.87,12.37,12.37,0,0,1-3.85.59Z"/><path d="M645.34,1275.08v-9.66h3.53v9.66Zm4.87,20.46,8-20.46H645.34v-3h16.71v3.28l-8,20.2Z"/><path d="M684.69,1295.54V1280a11.57,11.57,0,0,1,.32-2.84,6.85,6.85,0,0,1,.86-2.08H674.32v-3h18.35v3h-3.15a6.75,6.75,0,0,0-.77,2.42,17.7,17.7,0,0,0-.19,2.5v15.54Z"/><path d="M697.92,1295.54V1277l-.55-4.91h3.87l.54,4.91v18.57Z"/><path d="M709.39,1296l-2.48-20.88,3.61-1.89,2.27,19.24a16.91,16.91,0,0,0,3.27-.55,11.15,11.15,0,0,0,2.82-1.17,7.59,7.59,0,0,0,2.14-1.93,8.14,8.14,0,0,0,1.32-2.88,13.15,13.15,0,0,0,.32-4v-1.09a7.6,7.6,0,0,0-.53-2.92,4.54,4.54,0,0,0-1.57-2,4.31,4.31,0,0,0-2.56-.76H706.91l-.38-3h11.8a7.51,7.51,0,0,1,5.92,2.35,9.53,9.53,0,0,1,2.23,6.26l0,1.3a13.79,13.79,0,0,1-1.13,6.49,10.39,10.39,0,0,1-3.61,4.2,17,17,0,0,1-5.53,2.35A35.25,35.25,0,0,1,709.39,1296Z"/><path d="M731.06,1295.54v-11.38l.54-2.82h3.32v14.2Zm14.32,0v-15.79a4.8,4.8,0,0,0-1.13-3.64,4.38,4.38,0,0,0-3-1H731.14v-3h11a8.28,8.28,0,0,1,3.69.78,5.5,5.5,0,0,1,2.5,2.5,9.87,9.87,0,0,1,.9,4.57v15.63Z"/><path d="M756.8,1296l-3-23.9h3.7l2.48,20.58a18.21,18.21,0,0,0,5.64-1.18,10.7,10.7,0,0,0,4-2.71,11,11,0,0,0,2.37-4.3,19.66,19.66,0,0,0,.73-6l0-6.43h3.87l0,6.26a19.82,19.82,0,0,1-2.12,9.83,13.54,13.54,0,0,1-6.58,5.85A27.43,27.43,0,0,1,756.8,1296Zm1.81-9.16-.92-2.64a12.55,12.55,0,0,0,3.42-2,6.25,6.25,0,0,0,1.78-2.88,15.42,15.42,0,0,0,.55-4.53l0-2.57h3.7l0,2.48a16.59,16.59,0,0,1-.87,5.42,9.17,9.17,0,0,1-2.66,3.88A17.29,17.29,0,0,1,758.61,1286.8Z"/><path d="M790.28,1295.54V1277l-.55-4.91h3.86l.55,4.91v18.57Z"/><path d="M810.27,1295.54v-15.79c0-1.74-.38-3-1.14-3.64a4.34,4.34,0,0,0-3-1h-7.6v-3H807a8.31,8.31,0,0,1,3.69.78,5.55,5.55,0,0,1,2.5,2.5,9.87,9.87,0,0,1,.9,4.57v15.63Z"/><path d="M818.63,1295.54v-3h5.79a6.89,6.89,0,0,0,3.59-.84,5.06,5.06,0,0,0,2.1-2.5,10.21,10.21,0,0,0,.7-4v-2.73a10.14,10.14,0,0,0-.7-4A5.17,5.17,0,0,0,828,1276a6.7,6.7,0,0,0-3.59-.87h-5.79v-3h6.67a10.09,10.09,0,0,1,5.13,1.22,7.64,7.64,0,0,1,3.17,3.59,13.92,13.92,0,0,1,1.07,5.73v2.4a13.92,13.92,0,0,1-1.07,5.75,7.63,7.63,0,0,1-3.17,3.57,10.09,10.09,0,0,1-5.13,1.22Z"/><path d="M841.89,1295.54V1280a11.57,11.57,0,0,1,.32-2.84,7.11,7.11,0,0,1,.86-2.08H839v-3h11v3h-3.28a5.75,5.75,0,0,0-.77,2.42,23,23,0,0,0-.15,2.5v15.54Z"/><path d="M875.08,1303.94v-24.19c0-1.74-.38-3-1.14-3.64a4.35,4.35,0,0,0-3-1h-8.28v-3h9.2a8.36,8.36,0,0,1,3.7.78,5.6,5.6,0,0,1,2.5,2.5,9.87,9.87,0,0,1,.9,4.57v24Z"/><path d="M904.35,1295.54h-4.16l-9.2-13.86-4.32,13.86H883l4.62-14.45,1.13-2.86-3.82-6.17h3.91l3.65,5.8,3.74,5.58,1-3.57,2.31-7.81h3.74l-4.79,14.74Z"/><path d="M917,1302.76l-.88-2.14a7,7,0,0,0,2.86-2.14,5,5,0,0,0,1-3.07l-.37-3.15,1.72,2.56a1.7,1.7,0,0,1-.8.57,3.12,3.12,0,0,1-1,.15,2.78,2.78,0,0,1-1.82-.63,2.51,2.51,0,0,1,0-3.66,2.82,2.82,0,0,1,1.85-.67,2.55,2.55,0,0,1,2.24,1.12,5.3,5.3,0,0,1,.78,3.08,8.06,8.06,0,0,1-1.49,4.81A9.31,9.31,0,0,1,917,1302.76Z"/><path d="M926.48,1275.08v-9.66H930v9.66Zm4.87,20.46,8-20.46H926.48v-3H943.2v3.28l-8,20.2Z"/><path d="M946.47,1296.84l-.54-3.07,8-1.51a11.69,11.69,0,0,0,3.88-1.38,6.36,6.36,0,0,0,2.31-2.44,11.68,11.68,0,0,0,1.18-3.74,38.76,38.76,0,0,0,.42-5.35q.06-3.13.06-7.29h3.86q0,4.45-.16,7.92a36.73,36.73,0,0,1-.76,6.07,12.83,12.83,0,0,1-1.85,4.45,9.72,9.72,0,0,1-3.42,3,18.41,18.41,0,0,1-5.48,1.83Zm6.81-4.16-5.38-20.62h3.86l5.25,20.62Z"/><path d="M970,1295.54l3.07-16.3-3.28-7.18h4l2.94,7.35-2.85,16.13Zm8.07.08.38-3a9.16,9.16,0,0,0,5.46-.17,5.53,5.53,0,0,0,3-3.25,16.16,16.16,0,0,0,.84-6.07,13.53,13.53,0,0,0-.8-4.9,5.35,5.35,0,0,0-2-2.56,5.45,5.45,0,0,0-2.89-.77,4.92,4.92,0,0,0-4.48,2.45,7.79,7.79,0,0,0-.9,2.46l-1-1.93a7.63,7.63,0,0,1,2.73-4.64,7.14,7.14,0,0,1,4.33-1.45,9.42,9.42,0,0,1,3.46.61,6.82,6.82,0,0,1,2.75,1.95,9.57,9.57,0,0,1,1.85,3.51,18.78,18.78,0,0,1,.72,5.27A16.72,16.72,0,0,1,990,1291a8.55,8.55,0,0,1-4.58,4.31A12.62,12.62,0,0,1,978.1,1295.62Z"/><path d="M998.43,1296l-3-23.9h3.7l2.48,20.58a18.28,18.28,0,0,0,5.65-1.18,10.66,10.66,0,0,0,4-2.71,11,11,0,0,0,2.37-4.3,20,20,0,0,0,.74-6l0-6.43h3.87l0,6.26a19.82,19.82,0,0,1-2.12,9.83,13.47,13.47,0,0,1-6.57,5.85A27.43,27.43,0,0,1,998.43,1296Zm1.8-9.16-.92-2.64a12.55,12.55,0,0,0,3.42-2,6.26,6.26,0,0,0,1.79-2.88,15.8,15.8,0,0,0,.54-4.53l0-2.57h3.7l0,2.48a16.87,16.87,0,0,1-.86,5.42,9.28,9.28,0,0,1-2.67,3.88A17.29,17.29,0,0,1,1000.23,1286.8Z"/><path d="M1030.05,1296.17l-.38-2.73a6.19,6.19,0,0,0,2.61-.74,3,3,0,0,0,1.28-1.59,7.81,7.81,0,0,0,.36-2.54v-16.51h10.79a8.36,8.36,0,0,1,3.7.78,5.6,5.6,0,0,1,2.5,2.5,9.87,9.87,0,0,1,.9,4.57v15.63h-3.87v-15.79c0-1.74-.37-3-1.11-3.64a4.34,4.34,0,0,0-3-1h-6v13.07a9.82,9.82,0,0,1-.82,4.32,5.48,5.48,0,0,1-2.52,2.56A12,12,0,0,1,1030.05,1296.17Z"/><path d="M1057.56,1295.54V1277l-.55-4.91h3.87l.54,4.91v18.57Z"/><path d="M1067.18,1295.54v-3h7.22a8.78,8.78,0,0,0,2.69-.39,5.62,5.62,0,0,0,2.12-1.26,5.86,5.86,0,0,0,1.41-2.27,10.31,10.31,0,0,0,.5-3.47v-2.69a11.47,11.47,0,0,0-.61-4,5,5,0,0,0-1.86-2.49,5.44,5.44,0,0,0-3.15-.87h-4.08l-1.05,4.41a5.3,5.3,0,0,0,.13,3.41c.39.78,1.34,1.33,2.85,1.63l-.71,2.57a7.72,7.72,0,0,1-4-1.24,4.52,4.52,0,0,1-1.76-2.71,9.75,9.75,0,0,1,0-4l1.64-7.14h7.68a8.68,8.68,0,0,1,4.68,1.22,7.77,7.77,0,0,1,3,3.55,13.9,13.9,0,0,1,1,5.73V1285a14.1,14.1,0,0,1-.74,4.83A8.16,8.16,0,0,1,1079,1295a12.26,12.26,0,0,1-3.84.59Z"/><path d="M1091.88,1296l-2.48-20.88,3.61-1.89,2.27,19.24a17,17,0,0,0,3.27-.55,11.15,11.15,0,0,0,2.82-1.17,7.59,7.59,0,0,0,2.14-1.93,8.14,8.14,0,0,0,1.32-2.88,13.15,13.15,0,0,0,.32-4v-1.09a7.6,7.6,0,0,0-.53-2.92,4.54,4.54,0,0,0-1.57-2,4.31,4.31,0,0,0-2.56-.76H1089.4l-.38-3h11.8a7.51,7.51,0,0,1,5.92,2.35,9.58,9.58,0,0,1,2.23,6.26l0,1.3a13.91,13.91,0,0,1-1.13,6.49,10.34,10.34,0,0,1-3.62,4.2,16.86,16.86,0,0,1-5.52,2.35A35.25,35.25,0,0,1,1091.88,1296Z"/><path d="M1114.26,1295.54V1277l-.55-4.91h3.87l.54,4.91v18.57Z"/><path d="M1122.16,1296.17l-.38-2.73a6.1,6.1,0,0,0,2.6-.74,2.92,2.92,0,0,0,1.28-1.59,7.81,7.81,0,0,0,.36-2.54v-16.51h10.79a8.32,8.32,0,0,1,3.7.78,5.55,5.55,0,0,1,2.5,2.5,9.87,9.87,0,0,1,.9,4.57v15.63h-3.86v-15.79c0-1.74-.37-3-1.11-3.64a4.36,4.36,0,0,0-3-1h-6v13.07a10,10,0,0,1-.81,4.32,5.58,5.58,0,0,1-2.52,2.56A12.05,12.05,0,0,1,1122.16,1296.17Z"/><path d="M1149,1295.54v-11.38l.55-2.82h3.32v14.2Zm14.32,0v-15.79c0-1.74-.37-3-1.13-3.64a4.35,4.35,0,0,0-3-1H1149v-3h11a8.36,8.36,0,0,1,3.7.78,5.53,5.53,0,0,1,2.49,2.5,9.74,9.74,0,0,1,.91,4.57v15.63Z"/><line class="cls-3" x1="1164.26" y1="1455.95" x2="1115.05" y2="1455.95"/><line class="cls-4" x1="1115.05" y1="1464.85" x2="1115.05" y2="1437.61"/><path class="cls-4" d="M1114.65,1437.23a11.22,11.22,0,0,1-5-3.66c-4-5.35-.84-12.19-.71-12.47.61-1.27,3.51-6.79,9-7a10.06,10.06,0,0,1,6.73,2.56"/><path class="cls-4" d="M1116.22,1438.24a26.35,26.35,0,0,1,2.12-10.77c2.12-4.85,7.12-7.11,6.94-11.89,0-1.28-.38-1.29-.28-2.27.41-4.36,7.19-8,13.13-8.41.56,0,10-.49,13.64,6a10.85,10.85,0,0,1,1.3,5.15c.81-.33,5.82-2.29,10.55.28,5.59,3,7.5,10.62,5.12,15.87a11.57,11.57,0,0,1-4.14,4.74l-.49,27.91h-49.06"/><line class="cls-5" x1="1128.53" y1="1426.87" x2="1128.53" y2="1437.23"/><line class="cls-5" x1="1139.7" y1="1426.87" x2="1139.7" y2="1437.23"/><line class="cls-5" x1="1150.86" y1="1426.87" x2="1150.86" y2="1437.23"/><path class="cls-6" d="M934.89,1440.63a2.49,2.49,0,0,1-1.81-.75,2.64,2.64,0,0,1-.75-1.93,2.74,2.74,0,0,1,.75-2,2.46,2.46,0,0,1,1.81-.76,2.51,2.51,0,0,1,1.85.76,2.74,2.74,0,0,1,.75,2,2.64,2.64,0,0,1-.75,1.93A2.54,2.54,0,0,1,934.89,1440.63Zm0,15a2.46,2.46,0,0,1-1.81-.76,2.61,2.61,0,0,1-.75-1.93,2.76,2.76,0,0,1,.75-2,2.49,2.49,0,0,1,1.81-.75,2.54,2.54,0,0,1,1.85.75,2.76,2.76,0,0,1,.75,2,2.61,2.61,0,0,1-.75,1.93A2.51,2.51,0,0,1,934.89,1455.67Z"/><path class="cls-6" d="M943.33,1446.34v-9.74l-.54-4.91h3.86l.55,4.91v6.34l-.05,2.65Z"/><path class="cls-6" d="M954.92,1455.58l-3-23.89h3.7l2.48,20.58a18.21,18.21,0,0,0,5.64-1.18,10.74,10.74,0,0,0,4-2.71,11,11,0,0,0,2.37-4.3,19.68,19.68,0,0,0,.73-6l0-6.42h3.87l0,6.26a19.78,19.78,0,0,1-2.12,9.82,13.51,13.51,0,0,1-6.58,5.86A27.62,27.62,0,0,1,954.92,1455.58Zm1.81-9.15-.92-2.65a12.3,12.3,0,0,0,3.42-2,6.35,6.35,0,0,0,1.78-2.88,15.49,15.49,0,0,0,.55-4.54l0-2.56h3.7l0,2.48a16.59,16.59,0,0,1-.87,5.42,9.23,9.23,0,0,1-2.66,3.88A17.29,17.29,0,0,1,956.73,1446.43Z"/><path class="cls-6" d="M980,1455.17V1436.6l-.55-4.91h3.86l.55,4.91v18.57Z"/><path class="cls-6" d="M996.46,1455.17l-.34-3a11.74,11.74,0,0,0,2.63-.61,5.7,5.7,0,0,0,2.18-1.38,7.09,7.09,0,0,0,1.56-2.67,16.52,16.52,0,0,0,.77-4.32l.68-8.49h-15v-3h19.15l-.16,2.69-.63,8a21.11,21.11,0,0,1-.95,5.41,11.86,11.86,0,0,1-2.14,4,9.31,9.31,0,0,1-3.32,2.5A11.12,11.12,0,0,1,996.46,1455.17Zm-7.52,8.4v-20.29l.55-2.86h3.32v23.15Z"/><path class="cls-6" d="M1019.73,1455.79l-.38-2.72a6.34,6.34,0,0,0,2.61-.74,3,3,0,0,0,1.28-1.6,8,8,0,0,0,.35-2.54v-16.5h10.8a8.42,8.42,0,0,1,3.69.77,5.55,5.55,0,0,1,2.5,2.5,9.94,9.94,0,0,1,.9,4.58v15.63h-3.86v-15.8a4.83,4.83,0,0,0-1.11-3.63,4.3,4.3,0,0,0-3-1h-6v13.06a10,10,0,0,1-.82,4.33,5.63,5.63,0,0,1-2.52,2.56A11.86,11.86,0,0,1,1019.73,1455.79Z"/><path class="cls-6" d="M1046.44,1455.17l3.07-16.3-3.28-7.18h4l2.94,7.35-2.86,16.13Zm8.06.08.38-3a9.23,9.23,0,0,0,5.46-.17,5.53,5.53,0,0,0,3-3.26,16.11,16.11,0,0,0,.84-6.06,13.45,13.45,0,0,0-.8-4.9,5,5,0,0,0-4.92-3.34,5.26,5.26,0,0,0-2.71.67A5,5,0,0,0,1054,1437a7.7,7.7,0,0,0-.9,2.46l-1-1.93a7.68,7.68,0,0,1,2.73-4.65,7.16,7.16,0,0,1,4.32-1.45,9.69,9.69,0,0,1,3.47.61,7,7,0,0,1,2.75,2,9.59,9.59,0,0,1,1.85,3.5,19.26,19.26,0,0,1,.71,5.28,16.47,16.47,0,0,1-1.43,7.89,8.52,8.52,0,0,1-4.58,4.31A12.78,12.78,0,0,1,1054.5,1455.25Z"/><path class="cls-6" d="M1083.23,1455.17v-15.8a4.79,4.79,0,0,0-1.13-3.63,4.33,4.33,0,0,0-3-1h-7.6v-3H1080a8.42,8.42,0,0,1,3.69.77,5.55,5.55,0,0,1,2.5,2.5,9.94,9.94,0,0,1,.91,4.58v15.63Z"/><path class="cls-7" d="M853.16,1421.09c1.07-.21,1.53.63,5.09,3.54,3.31,2.7,4.14,3,4.18,4,.07,1.86-2.38,3.75-4.59,4.28a6.09,6.09,0,0,1-2.35.08,2.1,2.1,0,0,1-.22.33l-26.16,32a2.86,2.86,0,0,1-4,.47l-.37-.3a2.86,2.86,0,0,1-.33-4l26.16-32,.16-.16a6.31,6.31,0,0,1-.6-2.87C850.2,1424.32,851.36,1421.45,853.16,1421.09Z"/><line class="cls-7" x1="868.56" y1="1422.17" x2="862.1" y2="1430.08"/><line class="cls-7" x1="858.39" y1="1413.86" x2="851.93" y2="1421.76"/><line class="cls-7" x1="863.36" y1="1418.15" x2="858.6" y2="1423.97"/><path class="cls-7" d="M847.48,1442.89c2.65,2.94,4.72,5.37,6.12,7.06,4.45,5.34,4,5.13,5.65,6.91,1.21,1.29,2.19,2.78,3.36,4.12a3.52,3.52,0,0,1,1.1,2,3.23,3.23,0,0,1-1.45,3,3.44,3.44,0,0,1-2.43.48c-1.36-.27-2.13-1.37-3-2.54-1.25-1.67-2.67-3.22-4-4.86-.51-.65-.89-1.12-1.22-1.51-.83-1-1.46-1.75-1.58-1.89-.76-.89-2.46-3-6.34-8.08"/><path class="cls-7" d="M843,1437.93c-1.09-1.29-2-2.41-2.7-3.3-2.61-3.29-5.08-6.7-5.08-6.7a10.92,10.92,0,0,0,.4-1.55,11.31,11.31,0,0,0-.22-5c-1.41-4.79-6.38-6.64-6.82-6.8a8.75,8.75,0,0,0-5.14-.43,6.49,6.49,0,0,0-2.78,1.33,7.18,7.18,0,0,0-2.27,4.34,9.61,9.61,0,0,0,.18,4.21,10.26,10.26,0,0,0,7.81,7.88s.32.06,3.78.24h0c.18.24.44.59.77,1,.81,1.05,2,2.49,2.36,2.89,1.14,1.34,2.23,2.73,3.35,4.09l2.63,3.22"/><path class="cls-6" d="M718.46,1440.29a2.43,2.43,0,0,1-1.8-.76,2.58,2.58,0,0,1-.76-1.93,2.68,2.68,0,0,1,.76-2,2.43,2.43,0,0,1,1.8-.76,2.51,2.51,0,0,1,1.85.76,2.72,2.72,0,0,1,.76,2,2.61,2.61,0,0,1-.76,1.93A2.51,2.51,0,0,1,718.46,1440.29Zm0,15a2.46,2.46,0,0,1-1.8-.76,2.59,2.59,0,0,1-.76-1.93,2.72,2.72,0,0,1,.76-2,2.45,2.45,0,0,1,1.8-.75,2.54,2.54,0,0,1,1.85.75,2.76,2.76,0,0,1,.76,2,2.63,2.63,0,0,1-.76,1.93A2.54,2.54,0,0,1,718.46,1455.33Z"/><path class="cls-6" d="M725.05,1455.45l-.37-2.73a6.11,6.11,0,0,0,2.6-.73,3,3,0,0,0,1.28-1.6,7.72,7.72,0,0,0,.36-2.54v-16.51h10.79a8.36,8.36,0,0,1,3.7.78,5.55,5.55,0,0,1,2.5,2.5,9.92,9.92,0,0,1,.9,4.58v15.62H743V1439c0-1.74-.37-3-1.12-3.63a4.27,4.27,0,0,0-3-1h-6v13.06a9.86,9.86,0,0,1-.82,4.33,5.53,5.53,0,0,1-2.52,2.56A12,12,0,0,1,725.05,1455.45Z"/><path class="cls-6" d="M752.57,1454.82v-18.56l-.55-4.92h3.86l.55,4.92v18.56Z"/><path class="cls-6" d="M761.51,1454.82l3.07-16.29-3.28-7.19h4l2.94,7.35-2.86,16.13Zm8.06.09.38-3a9.24,9.24,0,0,0,5.46-.16,5.52,5.52,0,0,0,3-3.26,15.74,15.74,0,0,0,.84-6.07,13.24,13.24,0,0,0-.79-4.89,5,5,0,0,0-4.92-3.34,5.14,5.14,0,0,0-2.71.67,5,5,0,0,0-1.76,1.79,7.5,7.5,0,0,0-.9,2.45l-1-1.93a7.66,7.66,0,0,1,2.73-4.64,7.16,7.16,0,0,1,4.32-1.45,9.69,9.69,0,0,1,3.47.61,7.09,7.09,0,0,1,2.75,2,9.72,9.72,0,0,1,1.85,3.51,19.19,19.19,0,0,1,.71,5.27,16.64,16.64,0,0,1-1.43,7.9,8.5,8.5,0,0,1-4.58,4.3A12.69,12.69,0,0,1,769.57,1454.91Z"/><path class="cls-6" d="M786.67,1454.82v-3h5.79a7,7,0,0,0,3.6-.84,5.16,5.16,0,0,0,2.1-2.5,10.44,10.44,0,0,0,.69-4v-2.73a10.26,10.26,0,0,0-.69-4,5.3,5.3,0,0,0-2.1-2.5,6.85,6.85,0,0,0-3.6-.86h-5.79v-3h6.68a10.08,10.08,0,0,1,5.12,1.22,7.68,7.68,0,0,1,3.17,3.59,13.84,13.84,0,0,1,1.07,5.74v2.39a13.7,13.7,0,0,1-1.07,5.75,7.63,7.63,0,0,1-3.17,3.57,10,10,0,0,1-5.12,1.22Z"/><circle class="cls-4" cx="563.92" cy="1438.34" r="25.17"/><line class="cls-8" x1="556.75" y1="1408.21" x2="571.08" y2="1408.21"/><line class="cls-8" x1="583.31" y1="1416.25" x2="586.61" y2="1419.55"/><line class="cls-8" x1="544.58" y1="1416.11" x2="541.16" y2="1419.53"/><line class="cls-5" x1="573.43" y1="1422.13" x2="563.45" y2="1439.41"/><line class="cls-5" x1="552.95" y1="1442.56" x2="563.38" y2="1439.45"/><path class="cls-6" d="M371.21,1438.48a2.49,2.49,0,0,1-1.81-.75,2.64,2.64,0,0,1-.75-1.93,2.74,2.74,0,0,1,.75-2,2.57,2.57,0,0,1,3.65,0,2.71,2.71,0,0,1,.76,2,2.61,2.61,0,0,1-.76,1.93A2.51,2.51,0,0,1,371.21,1438.48Zm0,15a2.46,2.46,0,0,1-1.81-.76,2.61,2.61,0,0,1-.75-1.93,2.72,2.72,0,0,1,.75-2,2.57,2.57,0,0,1,3.65,0,2.68,2.68,0,0,1,.76,2,2.58,2.58,0,0,1-.76,1.93A2.48,2.48,0,0,1,371.21,1453.52Z"/><path class="cls-6" d="M378.93,1453v-11.39l.55-2.81h3.32V1453Zm14.33,0v-15.8a4.75,4.75,0,0,0-1.14-3.63,4.34,4.34,0,0,0-3-1H379v-3h11a8.49,8.49,0,0,1,3.7.77,5.6,5.6,0,0,1,2.5,2.5,9.94,9.94,0,0,1,.9,4.58V1453Z"/><path class="cls-6" d="M401.66,1453v-3h7v-13.56a4.19,4.19,0,0,0-.79-2.88,3.68,3.68,0,0,0-2.27-1.07l-2.86-.46.55-2.94,4,.58a5.92,5.92,0,0,1,3.88,2.08,7.16,7.16,0,0,1,1.37,4.6V1453Z"/><path class="cls-6" d="M417,1453v-3h5.79a7,7,0,0,0,3.6-.84,5.09,5.09,0,0,0,2.09-2.5,10.21,10.21,0,0,0,.7-4v-2.73a10.07,10.07,0,0,0-.7-4,5.27,5.27,0,0,0-2.09-2.5,6.85,6.85,0,0,0-3.6-.86H417v-3h6.68a10,10,0,0,1,5.12,1.22,7.59,7.59,0,0,1,3.17,3.59,13.92,13.92,0,0,1,1.07,5.73v2.39a13.94,13.94,0,0,1-1.07,5.76,7.63,7.63,0,0,1-3.17,3.57,10.08,10.08,0,0,1-5.12,1.22Z"/><path class="cls-6" d="M437.61,1453v-11.39l.54-2.81h3.32V1453Zm14.32,0v-15.8a4.79,4.79,0,0,0-1.13-3.63,4.38,4.38,0,0,0-3-1H437.69v-3h11a8.42,8.42,0,0,1,3.69.77,5.55,5.55,0,0,1,2.5,2.5,9.94,9.94,0,0,1,.9,4.58V1453Z"/><path class="cls-6" d="M469.91,1461.42v-27l-.55-4.91h3.86l.55,4.91v27Z"/><path class="cls-6" d="M478.85,1453l3.07-16.3-3.28-7.18h4l2.94,7.35L482.71,1453Zm8.07.08.37-3a9.23,9.23,0,0,0,5.46-.17,5.53,5.53,0,0,0,3-3.26,16.11,16.11,0,0,0,.84-6.06,13.45,13.45,0,0,0-.8-4.9,5,5,0,0,0-4.92-3.34,5.17,5.17,0,0,0-2.71.68,4.92,4.92,0,0,0-1.76,1.78,7.7,7.7,0,0,0-.9,2.46l-1.05-1.93a7.68,7.68,0,0,1,2.73-4.65,7.15,7.15,0,0,1,4.32-1.44,9.69,9.69,0,0,1,3.47.6,7,7,0,0,1,2.75,2,9.59,9.59,0,0,1,1.85,3.5,19.26,19.26,0,0,1,.71,5.28,16.47,16.47,0,0,1-1.43,7.89,8.52,8.52,0,0,1-4.58,4.31A12.75,12.75,0,0,1,486.92,1453.1Z"/><path class="cls-6" d="M507.37,1453v-15.54a11.59,11.59,0,0,1,.31-2.84,7.11,7.11,0,0,1,.86-2.08h-4.11v-3h11v3h-3.27a5.9,5.9,0,0,0-.78,2.42,23,23,0,0,0-.15,2.5V1453Z"/><text class="cls-9" transform="translate(823.42 1524.79)">20</text><path d="M1122.31,1504.34v-9.66h3.52v9.66Zm4.87,20.45,8-20.45h-12.85v-3H1139v3.27l-8,20.2Z"/><path d="M1150.66,1524.79l-.34-3a11.86,11.86,0,0,0,2.63-.61,5.78,5.78,0,0,0,2.18-1.38,7,7,0,0,0,1.55-2.67,16.08,16.08,0,0,0,.78-4.32l.67-8.49h-15v-3h19.15l-.17,2.68-.63,8a21.21,21.21,0,0,1-.94,5.41,12,12,0,0,1-2.14,4,9.31,9.31,0,0,1-3.32,2.5A11,11,0,0,1,1150.66,1524.79Zm-7.52,8.41v-20.29l.54-2.86H1147v23.15Z"/><text class="cls-9" transform="translate(263.68 1453.02)"><tspan xml:space="preserve"> :ליעפ</tspan></text><text class="cls-9" transform="translate(259.53 1524.79)"><tspan xml:space="preserve"> ןיב :הנכהו לושיב</tspan></text><path class="cls-10" d="M992.37,1651.71v-34.26H1001v34.26Zm1.8,0v-6.48h24.42l-.18,6.48Zm18.84,0v-23.4a4.54,4.54,0,0,0-1-3.36,4.09,4.09,0,0,0-3-1H997.83v-6.48h13.5a12,12,0,0,1,5.34,1.14,8.32,8.32,0,0,1,3.69,3.6,13.6,13.6,0,0,1,1.35,6.54v23Z"/><path class="cls-10" d="M1028.37,1639.11v-14.64l-.72-7h8.64l.72,7v9.36l-.06,3.78Z"/><path class="cls-10" d="M1042,1651.71v-6.48h9.6a6.66,6.66,0,0,0,3.93-1.08,5.91,5.91,0,0,0,2.19-3,13.24,13.24,0,0,0,.66-4.32v-4.5a13,13,0,0,0-.66-4.29,6.08,6.08,0,0,0-2.19-3,6.53,6.53,0,0,0-3.93-1.11H1042v-6.48h11.94a13,13,0,0,1,7.29,1.92,11.78,11.78,0,0,1,4.38,5.37,20.47,20.47,0,0,1,1.47,8.07v3.54a20.63,20.63,0,0,1-1.47,8.13,11.6,11.6,0,0,1-4.38,5.34,13.13,13.13,0,0,1-7.29,1.89Z"/><path class="cls-10" d="M1086.75,1651.71v-23.4a4.54,4.54,0,0,0-1-3.36,4.09,4.09,0,0,0-3-1H1071v-6.48h14a12,12,0,0,1,5.34,1.14,8.32,8.32,0,0,1,3.69,3.6,13.6,13.6,0,0,1,1.35,6.54v23Z"/><path class="cls-10" d="M1100.43,1651.71v-6.48h24l2.46,6.48Zm20,0-19.32-34.26h8.7l19.32,34.26Zm.54-13.44-4.92-7.38,5.46-13.44H1130Z"/><path class="cls-10" d="M1134.93,1651.71l4.14-23.1-4.8-11.16h9l4,11.58-3.72,22.68Zm13.14.06.78-6.48q4.44,1,6.9-.09a6.19,6.19,0,0,0,3.45-3.87,20.52,20.52,0,0,0,.93-7,19.8,19.8,0,0,0-.78-6.12,6.72,6.72,0,0,0-2.25-3.42,6.07,6.07,0,0,0-3.69-1.08,6.25,6.25,0,0,0-2.94.69,5.87,5.87,0,0,0-2.16,1.92,6.91,6.91,0,0,0-1.08,3l-2-3.72a11.72,11.72,0,0,1,3.93-6.63,9.75,9.75,0,0,1,6-2.07,14,14,0,0,1,5.61,1,10.34,10.34,0,0,1,4.11,3.21,15,15,0,0,1,2.55,5.46,30.3,30.3,0,0,1,.87,7.68,22.79,22.79,0,0,1-2.31,11,12.85,12.85,0,0,1-6.93,6.18Q1154.55,1653.27,1148.07,1651.77Z"/><rect class="cls-11" x="1122.52" y="1731.23" width="47.48" height="47.48" rx="6"/><rect class="cls-11" x="1122.52" y="1871.85" width="47.48" height="47.48" rx="6"/><rect class="cls-11" x="1122.52" y="2012.47" width="47.48" height="47.48" rx="6"/><text class="cls-12" transform="translate(1077.47 1767.45)">1</text><text class="cls-12" transform="translate(1077.47 1908.08)">1</text><path d="M819.74,2050.31l-.41-3a6.71,6.71,0,0,0,2.85-.81,3.21,3.21,0,0,0,1.4-1.75A8.58,8.58,0,0,0,824,2042V2023.9h11.82a9.22,9.22,0,0,1,4.05.85,6.05,6.05,0,0,1,2.74,2.74,10.83,10.83,0,0,1,1,5v17.12h-4.23v-17.3c0-1.9-.41-3.23-1.22-4a4.74,4.74,0,0,0-3.34-1.13h-6.57v14.31a10.83,10.83,0,0,1-.9,4.74,6.15,6.15,0,0,1-2.76,2.81A13.38,13.38,0,0,1,819.74,2050.31Z"/><path d="M849.87,2040v-10.67l-.6-5.39h4.23l.6,5.39v6.94l0,2.9Z"/><path d="M862.71,2049.62v-17a12.71,12.71,0,0,1,.34-3.11,7.71,7.71,0,0,1,.94-2.28h-4.51v-3.31h12.06v3.31H868a6.47,6.47,0,0,0-.85,2.65,25.1,25.1,0,0,0-.16,2.74v17Z"/><path d="M886.49,2058.82v-29.53l-.6-5.39h4.23l.6,5.39v29.53Z"/><path d="M896.28,2049.62l3.36-17.85-3.59-7.87h4.37l3.22,8-3.12,17.67Zm8.84.09.41-3.27a10.12,10.12,0,0,0,6-.18,6,6,0,0,0,3.27-3.57,17.5,17.5,0,0,0,.92-6.64,14.59,14.59,0,0,0-.88-5.36,5.8,5.8,0,0,0-2.21-2.81,6,6,0,0,0-3.17-.85,5.66,5.66,0,0,0-3,.74,5.54,5.54,0,0,0-1.93,2,8.67,8.67,0,0,0-1,2.69l-1.15-2.11a8.45,8.45,0,0,1,3-5.09,7.87,7.87,0,0,1,4.74-1.58,10.47,10.47,0,0,1,3.79.66,7.65,7.65,0,0,1,3,2.14,10.58,10.58,0,0,1,2,3.84,20.66,20.66,0,0,1,.78,5.78,18.19,18.19,0,0,1-1.56,8.65,9.39,9.39,0,0,1-5,4.71A14,14,0,0,1,905.12,2049.71Z"/><path d="M927.38,2050.08l-3.27-26.18h4l2.72,22.54a20.17,20.17,0,0,0,6.18-1.28,11.36,11.36,0,0,0,7-7.69,21.57,21.57,0,0,0,.81-6.53l-.05-7H949l.05,6.86a21.68,21.68,0,0,1-2.32,10.76,14.82,14.82,0,0,1-7.2,6.42A30.3,30.3,0,0,1,927.38,2050.08Zm2-10-1-2.9a13.25,13.25,0,0,0,3.75-2.23,6.81,6.81,0,0,0,2-3.15,17.11,17.11,0,0,0,.6-5l0-2.8h4l0,2.71a18.37,18.37,0,0,1-1,5.93,10.16,10.16,0,0,1-2.92,4.26A19,19,0,0,1,929.36,2040.05Z"/><path d="M965.93,2050.08l-2.72-22.87,4-2.06,2.48,21.06a19.36,19.36,0,0,0,3.59-.59,12.18,12.18,0,0,0,3.08-1.29,8.2,8.2,0,0,0,2.35-2.12,9,9,0,0,0,1.45-3.15,14.61,14.61,0,0,0,.34-4.39v-1.2a8.49,8.49,0,0,0-.57-3.2,5.08,5.08,0,0,0-1.73-2.23,4.67,4.67,0,0,0-2.8-.83H963.21l-.41-3.31h12.92a8.24,8.24,0,0,1,6.49,2.58,10.45,10.45,0,0,1,2.44,6.85l0,1.43a15.11,15.11,0,0,1-1.24,7.11,11.4,11.4,0,0,1-4,4.6,19,19,0,0,1-6,2.57A39.54,39.54,0,0,1,965.93,2050.08Z"/><path d="M990.45,2049.62v-20.33l-.6-5.39h4.23l.6,5.39v20.33Z"/><path d="M999.6,2049.62v-3.31H1006a7.52,7.52,0,0,0,3.93-.93,5.56,5.56,0,0,0,2.3-2.73,11.52,11.52,0,0,0,.76-4.4v-3a11.29,11.29,0,0,0-.76-4.37,5.72,5.72,0,0,0-2.3-2.74,7.43,7.43,0,0,0-3.93-1H999.6v-3.31h7.31a11,11,0,0,1,5.61,1.34,8.42,8.42,0,0,1,3.48,3.93,15.24,15.24,0,0,1,1.17,6.28v2.62a15.14,15.14,0,0,1-1.17,6.3,8.42,8.42,0,0,1-3.48,3.91,11,11,0,0,1-5.61,1.34Z"/><path d="M1030.33,2051l-.6-3.35,8.74-1.66a12.53,12.53,0,0,0,4.25-1.52,6.9,6.9,0,0,0,2.53-2.67,12.7,12.7,0,0,0,1.29-4.09,42.43,42.43,0,0,0,.46-5.87q.07-3.42.07-8h4.23q0,4.88-.18,8.67a38.73,38.73,0,0,1-.83,6.65,14.12,14.12,0,0,1-2,4.88,10.66,10.66,0,0,1-3.75,3.33,20.05,20.05,0,0,1-6,2Zm7.45-4.55-5.89-22.59h4.23l5.75,22.59Z"/><path d="M1068.83,2049.62v-17.3c0-1.9-.42-3.23-1.24-4a4.77,4.77,0,0,0-3.32-1.13h-8.46v-3.31h9.48a9.2,9.2,0,0,1,4,.85,6.05,6.05,0,0,1,2.74,2.74,10.83,10.83,0,0,1,1,5v17.12Zm-13,0v-3.31h20.47v3.31Z"/><path d="M1091.23,2049.62v-17.3c0-1.9-.41-3.23-1.24-4a4.75,4.75,0,0,0-3.31-1.13h-8.33v-3.31h9.34a9.28,9.28,0,0,1,4,.85,6.08,6.08,0,0,1,2.73,2.74,10.83,10.83,0,0,1,1,5v17.12Z"/><rect class="cls-13" x="0.52" width="1241.7" height="176.92"/><line class="cls-14" x1="871.61" y1="15.22" x2="871.61" y2="162.42"/><line class="cls-15" x1="1064.13" y1="51.27" x2="1177.46" y2="51.27"/><line class="cls-15" x1="1064.13" y1="130.05" x2="1177.46" y2="130.05"/><line class="cls-15" x1="1064.13" y1="90.66" x2="1177.46" y2="90.66"/><path class="cls-16" d="M518.21,119.16l-.9-7.35a12.58,12.58,0,0,0,4.35-1.17,3.94,3.94,0,0,0,1.92-2.36,12.83,12.83,0,0,0,.41-4V75.06h22.72a14.84,14.84,0,0,1,6.64,1.42,10.51,10.51,0,0,1,4.58,4.5,17.08,17.08,0,0,1,1.68,8.18v28.72h-10.8V88.63q0-2.92-1.35-4.2a5.24,5.24,0,0,0-3.75-1.27h-8.85v19.65A20,20,0,0,1,533.1,112a11,11,0,0,1-5.44,5A29.93,29.93,0,0,1,518.21,119.16Z"/><path class="cls-16" d="M568.16,117.88v-34l-.9-8.77h10.8l.9,8.77v34.05Z"/><path class="cls-16" d="M585.94,117.88v-8.1h10.95V88.11c0-2-.37-3.28-1.09-4a5.09,5.09,0,0,0-3-1.27l-5.25-.75,1.35-8,9.38,1.2a9.78,9.78,0,0,1,7,3.93,14.26,14.26,0,0,1,2.4,8.52v30.07Z"/><path class="cls-16" d="M616.16,117.88v-34l-.9-8.77h10.8l.9,8.77v34.05Z"/><path class="cls-16" d="M634.46,117.88,639.63,89l-6-14h11.25l5,14.47-4.65,28.35Zm16.42.08,1-8.1c3.7.8,6.57.76,8.63-.12a7.72,7.72,0,0,0,4.31-4.83A25.8,25.8,0,0,0,666,96.13a25.08,25.08,0,0,0-1-7.65,8.42,8.42,0,0,0-2.82-4.27,7.56,7.56,0,0,0-4.61-1.35,7.77,7.77,0,0,0-3.68.86,7.22,7.22,0,0,0-2.69,2.4,8.51,8.51,0,0,0-1.35,3.79l-2.48-4.65q1.5-5.7,4.91-8.29a12.18,12.18,0,0,1,7.54-2.59,17.6,17.6,0,0,1,7,1.31,13,13,0,0,1,5.14,4,18.85,18.85,0,0,1,3.19,6.82,38.09,38.09,0,0,1,1.09,9.6q.07,8.25-2.89,13.8a16.11,16.11,0,0,1-8.66,7.73C660.88,119.11,656.29,119.21,650.88,118Z"/><path class="cls-16" d="M681.41,119.16l-.9-7.35a12.58,12.58,0,0,0,4.35-1.17,3.89,3.89,0,0,0,1.91-2.36,12.8,12.8,0,0,0,.42-4V75.06h22.72a14.84,14.84,0,0,1,6.64,1.42,10.44,10.44,0,0,1,4.57,4.5,17,17,0,0,1,1.69,8.18v28.72H712V88.63q0-2.92-1.35-4.2a5.24,5.24,0,0,0-3.75-1.27h-8.85v19.65A20,20,0,0,1,696.3,112a11,11,0,0,1-5.44,5A29.93,29.93,0,0,1,681.41,119.16Z"/><circle class="cls-17" cx="953.49" cy="79.06" r="22.18"/><line class="cls-15" x1="966.36" y1="101.61" x2="979.38" y2="124.43"/><image width="1057" height="598" transform="translate(31.08 52.28) scale(0.13)" xlink:href="../../logo%20exports/white/300ppi/Artboard%2064%20copy.png"/><image width="5227" height="7345" transform="translate(187.02 35.5) scale(0.01)" xlink:href="../../../Users/StandAlone/Documents/%D7%9C%D7%95%D7%98%D7%9D/%D7%A1%D7%9E%D7%9C%D7%99%D7%9D/%D7%91%D7%94%D7%93%206.png"/><rect class="cls-14" x="298.56" y="59.69" width="106.95" height="68.7" rx="6.09"/><polyline class="cls-18" points="359.25 58.95 361.31 52.94 373.9 52.94 386.96 52.94 388.33 58.95"/><polyline class="cls-18" points="311.16 58.95 312.19 54.94 318.49 54.94 325.01 54.94 325.7 58.95"/><circle class="cls-18" cx="362.28" cy="94.04" r="26.05"/><circle class="cls-19" cx="362.28" cy="94.04" r="19.47"/><line class="cls-18" x1="299.48" y1="77.78" x2="341.6" y2="77.78"/><line class="cls-18" x1="383.75" y1="77.78" x2="405.51" y2="77.78"/></g></svg>