<svg xmlns="http://www.w3.org/2000/svg" viewBox="0 0 138.93 86.47"><defs><style>.cls-1{fill:none;stroke-linecap:round;stroke-linejoin:round;stroke-width:3px;}.cls-1,.cls-2{stroke:#333;}.cls-2,.cls-3{fill:#333;}.cls-2{stroke-miterlimit:10;stroke-width:0.5px;}</style></defs><g id="Layer_2" data-name="Layer 2"><path class="cls-1" d="M70.16,8.6a19.72,19.72,0,0,0-6-.49c-6.29.48-10.69,4-12.86,5.7,0,0-2.8,2.2-28,20.68C11.24,43.3,6,45.59,5.67,51.1c-.28,5,3.73,8.95,4.56,9.77,6.93,6.82,16.66,4.75,43.64,2.93C71.51,62.61,80.33,62,90,61.68c15.48-.53,26.25-.37,35.18-7.49,5.75-4.59,5.73-8.2,5.7-9-.18-4.08-4.31-6.89-8.47-9.6-12.2-8-20.76-12.55-27.68-16.45C90.29,16.67,80.12,10.83,70.16,8.6Z"/><path class="cls-1" d="M7.23,46.89a18.66,18.66,0,0,0,3.16,5.84C19.5,64,36.81,56.56,74.23,55.49c25-.71,39.86,2,48.85-8.79A23.63,23.63,0,0,0,127,40"/><path class="cls-1" d="M7.94,58.16c-.21,0-4.35.6-5.85,4.17-.75,1.8-1,4.65.49,5.87s3.33-.46,8,.16A22.08,22.08,0,0,1,15,69.5c4.27,1.4,4.32,2.29,6.52,2.77,1.46.32,4.36-.44,10.09-2,4.52-1.2,5.36-1.53,6.84-1.14,2.32.61,2.3,2,5.38,3.58,1.56.83,5,2.66,7.81,1.47,2.31-1,1.8-3,4.56-4.88A11.24,11.24,0,0,1,63,67.71c3,.09,5.19,1.13,9,2.93,4.63,2.21,5.42,3.41,7.16,2.93s3.65-2.39,4.73-4.07c.59-.92.93-1.77,2-2.28a4,4,0,0,1,2.93-.16c1.35.48,1.48,1.47,2.93,2.93.95.94,2.33,2.33,3.91,2.44,2.25.15,3-2.42,6.19-4.07,2.11-1.11,4-1.12,6.84-1.14,8.14-.06,11,3.67,14.82,1.63,1.3-.71,3.06-2.28,3.09-4.07s-1.61-2.92-1.14-3.59,2.24-.18,3.42.33c2.22,1,2.29,2.24,3.58,2.44,2.21.34,5.34-2.87,5-5.37-.17-1.51-1.45-1.62-1.79-3.42-.42-2.23,1.28-3.37.81-4.72-.31-.91-1.59-1.94-6.23-2.14"/><path class="cls-1" d="M10.56,68.36C7.18,74.73,6.93,79.17,7.14,81.71c.05.62.26,3.16,1,3.26s1-1.91,2.12-3.42c1.44-1.91,3.9-2.71,12.54-3.26,7.82-.49,8.44,0,11.56-.65a27,27,0,0,0,10.16-4.51"/><path class="cls-1" d="M82.62,71.06a44,44,0,0,0,6.1,3,42.17,42.17,0,0,0,8.63,2.44c1.81.29,2.57.25,15-.65,0,0,7-.51,12,.65a10,10,0,0,1,3.42,1.3c1.66,1.06,2.06,2.1,2.61,2,.94-.25,1.18-3.66.49-6.52a14.25,14.25,0,0,0-4.65-7.33"/><path class="cls-1" d="M53.5,72.46a57.89,57.89,0,0,1,8-1.33,58.8,58.8,0,0,1,11.46,0"/><path class="cls-1" d="M12.67,81.06a23.28,23.28,0,0,0,3.75,1.63,25.9,25.9,0,0,0,13,.65c2.22-.41,17.76-1.09,48.85-2.44,13.56-.6,21.65-.47,38.43-2a12.92,12.92,0,0,0,3.41-.31,11.45,11.45,0,0,0,4.24-2.13"/><circle class="cls-2" cx="34.65" cy="50.26" r="0.81"/><circle class="cls-2" cx="112.98" cy="39.2" r="0.81"/><circle class="cls-2" cx="20.16" cy="47.5" r="0.81"/><circle class="cls-2" cx="29.61" cy="38.4" r="0.81"/><circle class="cls-3" cx="71.79" cy="17.61" r="3.68"/><circle class="cls-2" cx="97.68" cy="47.5" r="0.81"/><line class="cls-1" x1="79.41" y1="1.5" x2="71.46" y2="19.69"/><line class="cls-1" x1="66.26" y1="31.59" x2="65.05" y2="34.37"/><ellipse class="cls-1" cx="70.18" cy="22.63" rx="8.96" ry="6.27" transform="translate(24.45 80.48) rotate(-69.55)"/></g></svg>