<svg xmlns="http://www.w3.org/2000/svg" viewBox="0 0 81.09 94.25"><defs><style>.cls-1{fill:#333;}</style></defs><g id="Layer_2" data-name="Layer 2"><path class="cls-1" d="M2,50C.16,49.41-.36,46.18.23,43.78c1-4.09,5.56-7.11,6.6-6.59.46.22-.16,1,.24,2.06,1,2.87,7,3.57,7,3.57h0s17.84-.19,37.28-.51C55,42.25,61.81,42.14,69,45.55c2.89,1.38,6.61,3.72,6.28,4.64-.16.45-1.37.36-3.77.49-5.13.26-5.88.67-6.25.88-1,.6-1.18,1.17-2.13,1.28a3.67,3.67,0,0,1-2.35-.68A20.85,20.85,0,0,0,50.47,49.4a15.27,15.27,0,0,0-5.78,1.48c-1.41.69-2.34,1.48-3.74,1.37a4.65,4.65,0,0,1-2.51-1.18c-3.86-2.72-11.29-1.8-14,0a7.53,7.53,0,0,0-2.28,2.11c-.45.76-.4,1.18-.78,1.34-.89.37-2.28-1.32-4.37-2.66C14,50,9,48.34,4.83,49.4,3.4,49.76,2.85,50.26,2,50Z"/><path class="cls-1" d="M8.23,29.15A4.94,4.94,0,0,0,7.89,32a6.54,6.54,0,0,0,2.4,3.45c3.57,2.82,12.17,2.37,15.7,2.16,16.2-.95,18-1.24,23-1.18a60,60,0,0,1,15.59,2c4.1,1.14,9.42,2.66,10.77,6.11.2.53.36,1.22.87,1.32,1.38.27,4.68-4,4.51-7.62-.27-5.73-9.14-9.42-10.88-10.15-8.14-3.38-16.4-2.8-28.19-2,0,0-18.45,1.31-21.77-1.87a7.22,7.22,0,0,1-1.38-1.77c-.62-1.22-.3-1.73-.69-2C16.51,19.66,10.11,24.3,8.23,29.15Z"/><path class="cls-1" d="M22.25,15.09A4.47,4.47,0,0,0,22,18.25a3.85,3.85,0,0,0,1.44,1.82c3.21,2.4,9.68,2.11,11.59,2,1,0,1.76-.11,2.41-.16,2.7-.24,4.66-.45,5.15-.51a71.91,71.91,0,0,1,16.8-.29c4.62.67,6.94,1,9.17,2.24,1,.52,1.82,1.12,2.22.83.65-.48-.38-4.11-2.88-6.72s-6-3.53-8.73-4.44a55.2,55.2,0,0,1-7-2.53,6,6,0,0,1-2.29-1.73,5.5,5.5,0,0,1-.1-6.6C50.54,1.11,51.4.94,51.34.63c-.11-.6-3.51-.91-7.07-.28A34.18,34.18,0,0,0,27.23,8,20.67,20.67,0,0,0,22.25,15.09Z"/><path class="cls-1" d="M13.78,93.94a5.87,5.87,0,0,0,2.83.23c2.9-.11,5.81.06,8.71,0l4.26-.05c2.94,0,5,0,12.43,0l12.82,0c8.72,0,8.77-.09,9.46,0a10.92,10.92,0,0,0,2.56,0,3.92,3.92,0,0,0,1.59-.41,2.74,2.74,0,0,0,1.17-1.38,83.44,83.44,0,0,0,3.11-9l1.31-4,2.34-7.13c1.79-5.48,1.11-3.48,2.59-8,.5-1.55.92-3.11,1.41-4.66.19-.58.3-1.17.48-1.74a3.39,3.39,0,0,0,.23-1.27,1.75,1.75,0,0,0-.38-1.15,2.7,2.7,0,0,0-1.9-.57,29.09,29.09,0,0,0-5.77.33,19.38,19.38,0,0,0-5.2,1.57A15.55,15.55,0,0,0,64.5,59a8.68,8.68,0,0,0-1.81,1.94,7.47,7.47,0,0,0-1,2.82,23.79,23.79,0,0,0-.33,3.57c-.09,1.16-.17,1.6-.41,3.44-.49,3.9-.88,7.86-.94,8.51-.56,5.7-.84,8.55-.81,9a18.8,18.8,0,0,1-.27,2.59,1.72,1.72,0,0,1-.48,1.26,1.82,1.82,0,0,1-1.48.41,1.7,1.7,0,0,1-1.15-.87A2.33,2.33,0,0,1,55.71,90c.19-.93.11-1.88.27-2.81,0-.22.25-2.1.68-5.86.28-2.52.21-2.32.61-6.15.23-2.3.2-1.8.6-5.57.28-2.62.11-5.29.68-7.87a4.35,4.35,0,0,0,.06-1.83,5.47,5.47,0,0,0-1.84-3,8.5,8.5,0,0,0-3.17-1.72,9.86,9.86,0,0,0-5.47-.28,8.1,8.1,0,0,0-4.66,3.16c-.61,1-.72,1.92-.93,3.85a48.68,48.68,0,0,0-.06,5c0,2.46,0,2.55,0,5.4,0,3.09,0,3-.07,6.32,0,4.43,0,6.64,0,7,.17,1.55-.27,3.12,0,4.66a1.74,1.74,0,0,1-.2,1.2,1.66,1.66,0,0,1-1.11.76,1.84,1.84,0,0,1-1.33-.3,1.74,1.74,0,0,1-.6-1.21,11,11,0,0,1,0-2.93V86.33c0-3-.07-8-.07-8-.15-11-.22-16.43,0-17.81a3.73,3.73,0,0,0,0-1.21,4.51,4.51,0,0,0-1.47-2.47A8.58,8.58,0,0,0,31,55a9,9,0,0,0-3.51,1.21,8,8,0,0,0-3.14,3.39,7.34,7.34,0,0,0-.62,3,18.91,18.91,0,0,0,.14,3.39c0,.2.29,2.64.81,7.52.26,2.43.44,4.56.54,5.75.22,2.61.18,2.59.33,4.08.3,2.88.45,4.32.61,5.28.11.63.1,1.27.2,1.9s.21,1,0,1.32a1.59,1.59,0,0,1-1.28.75,1.87,1.87,0,0,1-1.42-.69,1.85,1.85,0,0,1-.4-.69,22.65,22.65,0,0,1-.61-5c0-1.08-.23-2.15-.34-3.22-.47-4.69-.53-5.06-.81-7.81-.52-5.23-.75-7.85-.74-8.1a12.07,12.07,0,0,0-.41-3.62,8.88,8.88,0,0,0-1.15-2.66,9.13,9.13,0,0,0-2.39-2.35,15.68,15.68,0,0,0-4.89-2.21,53.69,53.69,0,0,0-5.32-1.07A26.3,26.3,0,0,0,3,54.93a3,3,0,0,0-1.31.26,1.73,1.73,0,0,0-.44.29A1.53,1.53,0,0,0,.9,56.69a5.16,5.16,0,0,0,.36,1.68c.17.57.3,1.15.48,1.72C2.35,62,2.9,64,3.53,65.9c1.57,4.8.81,2.54,2.38,7.33C7.1,76.86,7.69,78.67,8.47,81c1.39,4.2,1.43,4.28,1.63,5a37.52,37.52,0,0,0,1.28,4.25C12.35,92.9,13,93.58,13.78,93.94Z"/></g></svg>