<svg xmlns="http://www.w3.org/2000/svg" viewBox="0 0 123.7 106.68"><defs><style>.cls-1{fill:none;stroke:#333;stroke-linecap:round;stroke-linejoin:round;stroke-width:3px;}</style></defs><g id="Layer_2" data-name="Layer 2"><path class="cls-1" d="M118.12,81.06l-1.19-9.88,2.41-4.67-6.61-8.07-5.28,2L103,57.25l-1-5.14L95,52v0l-6,.1-1.19,4.74-5.25,3.56-5.28-2-6.61,8.07,2.4,4.67-1.18,9.88-4.09,3.68L72,95.08l5-.87,9.31,5.14,1.19,5.83,14.52-.39,1.29-5.44L113,94.21l5,.87,4.21-10.34Z"/><circle class="cls-1" cx="94.99" cy="78.59" r="8.98"/><line class="cls-1" x1="63.36" y1="95.12" x2="11.01" y2="95.12"/><line class="cls-1" x1="59.53" y1="81.23" x2="11.01" y2="81.23"/><line class="cls-1" x1="11.01" y1="95.12" x2="11.01" y2="52.6"/><path class="cls-1" d="M10.39,52a18.32,18.32,0,0,1-6.15-6.47A22.12,22.12,0,0,1,3,27,18.17,18.17,0,0,1,23,15.72"/><path class="cls-1" d="M25.06,25.52c1.45-13.15,12.08-23.26,24.61-24A26.67,26.67,0,0,1,75.8,19c1-.79,7.57-5.63,15.79-3.23,8.7,2.53,12,10.48,12.62,12.21a21.17,21.17,0,0,1-1,16.23"/><line class="cls-1" x1="31.53" y1="34.14" x2="31.53" y2="50.31"/><line class="cls-1" x1="52.06" y1="33.84" x2="52.06" y2="50.01"/><line class="cls-1" x1="72.58" y1="34.44" x2="72.58" y2="50.6"/></g></svg>