<svg xmlns="http://www.w3.org/2000/svg" viewBox="0 0 512.05 156.52"><defs><style>.cls-1{fill:#0d635f;}.cls-2{fill:#fff;}</style></defs><g id="Layer_2" data-name="Layer 2"><rect class="cls-1" width="512.05" height="156.52" rx="29.52"/><path class="cls-2" d="M79.45,100.84,74.76,60.17H84.91l3.43,31.71a20.42,20.42,0,0,0,6.37-1.51,11,11,0,0,0,4.13-3A11.22,11.22,0,0,0,101.05,83a20.46,20.46,0,0,0,.59-5.67V75.15a9.3,9.3,0,0,0-.7-3.64,6.69,6.69,0,0,0-2.24-2.84,7,7,0,0,0-3.92-1.29l-3.43-.21.77-7.77,4.27.21a19.06,19.06,0,0,1,7.46,1.82,13.34,13.34,0,0,1,5.39,4.72,15,15,0,0,1,2.2,7.95l.07,2a23.89,23.89,0,0,1-1.92,11,18.63,18.63,0,0,1-6.37,7.53A31,31,0,0,1,93,99,69.06,69.06,0,0,1,79.45,100.84Z"/><path class="cls-2" d="M117.6,85.44V68.36l-.84-8.19h10.08l.84,8.19V79.28l-.07,4.41Z"/><path class="cls-2" d="M151.76,100.14V72.84a5.32,5.32,0,0,0-1.22-3.92,4.76,4.76,0,0,0-3.47-1.19H133.42V60.17H149.8A14,14,0,0,1,156,61.5a9.65,9.65,0,0,1,4.31,4.2,15.84,15.84,0,0,1,1.57,7.63v26.81Z"/><path class="cls-2" d="M169.33,100.14V92.58h14.14a9.52,9.52,0,0,0,3.64-.67,6.88,6.88,0,0,0,2.7-2,9.37,9.37,0,0,0,1.68-3.11,13.5,13.5,0,0,0,.59-4.13V77.53a14,14,0,0,0-.84-5,7.61,7.61,0,0,0-2.59-3.5,7.25,7.25,0,0,0-4.41-1.29h-5l-1.26,6a5.17,5.17,0,0,0,.42,3.92c.61.88,1.89,1.54,3.85,2l-1.61,6.3q-5.11-.15-7.8-1.89a7.94,7.94,0,0,1-3.5-4.66,15.52,15.52,0,0,1-.25-6.54l2.8-12.6h14.77A15.11,15.11,0,0,1,195,62.4a14.59,14.59,0,0,1,5.32,6.24A22.14,22.14,0,0,1,202.16,78v4.2A23.17,23.17,0,0,1,201,89.78a15.56,15.56,0,0,1-3.33,5.67,14.34,14.34,0,0,1-5.14,3.5,18,18,0,0,1-6.69,1.19Z"/><path class="cls-2" d="M206.71,101.33l-.84-6.86a12,12,0,0,0,4.06-1.09,3.7,3.7,0,0,0,1.79-2.2,11.85,11.85,0,0,0,.38-3.78V60.17h21.21a13.75,13.75,0,0,1,6.19,1.33,9.62,9.62,0,0,1,4.27,4.2,15.83,15.83,0,0,1,1.58,7.63v26.81H235.27V72.84A5.2,5.2,0,0,0,234,68.92a4.87,4.87,0,0,0-3.5-1.19h-8.26V86.07a18.55,18.55,0,0,1-1.65,8.54,10.23,10.23,0,0,1-5.07,4.69A28.27,28.27,0,0,1,206.71,101.33Z"/><path class="cls-2" d="M251.23,67.73V50h9.1V67.73ZM259,100.14l12.53-32.41h-20.3V60.17h30.45V68.5l-12.6,31.64Z"/><path class="cls-2" d="M301.28,100.14V81l1.4-4.69h8.75v23.8Zm23.38,0V72.84a5.28,5.28,0,0,0-1.23-3.92A4.72,4.72,0,0,0,320,67.73H301.7V60.17h21a14,14,0,0,1,6.23,1.33,9.63,9.63,0,0,1,4.3,4.2,15.83,15.83,0,0,1,1.58,7.63v26.81Z"/><path class="cls-2" d="M358.33,100.14V72.84a5.28,5.28,0,0,0-1.23-3.92,4.72,4.72,0,0,0-3.46-1.19H340V60.17h16.38a14,14,0,0,1,6.23,1.33,9.63,9.63,0,0,1,4.3,4.2,15.83,15.83,0,0,1,1.58,7.63v26.81Z"/><path class="cls-2" d="M379.26,100.14V75.92a20,20,0,0,1,.52-4.83,9.71,9.71,0,0,1,1.44-3.36h-6.3V60.17h20.79v7.56h-5.25a10.66,10.66,0,0,0-1,4c-.1,1.52-.14,2.9-.14,4.17v24.22Z"/><path class="cls-2" d="M426.37,100.14V73.19c0-3.64-1.57-5.46-4.69-5.46H402.22V60.17h22.19a13.54,13.54,0,0,1,6.3,1.4A9.82,9.82,0,0,1,435,65.94a16.91,16.91,0,0,1,1.54,7.74v26.46Zm-24.15,0V64.72H412.3v35.42Z"/></g></svg>