<svg xmlns="http://www.w3.org/2000/svg" viewBox="0 0 512.05 156.52"><defs><style>.cls-1{fill:#0d635f;}.cls-2{fill:#fff;}</style></defs><g id="Layer_2" data-name="Layer 2"><rect class="cls-1" width="512.05" height="156.52" rx="29.52"/><path class="cls-2" d="M163.07,114.14V68.36l-.84-8.19h10.08l.84,8.19v45.78Z"/><path class="cls-2" d="M181.2,100.14V68.36l-.84-8.19h10.08l.84,8.19v31.78Z"/><path class="cls-2" d="M197.09,100.14V92.58h11.2a7.77,7.77,0,0,0,4.58-1.26,7,7,0,0,0,2.56-3.5,15.59,15.59,0,0,0,.77-5V77.53a15.24,15.24,0,0,0-.77-5,7.12,7.12,0,0,0-2.56-3.5,7.64,7.64,0,0,0-4.58-1.29h-11.2V60.17H211a15.07,15.07,0,0,1,8.5,2.24,13.73,13.73,0,0,1,5.11,6.26,23.93,23.93,0,0,1,1.72,9.42v4.13a24.09,24.09,0,0,1-1.72,9.48,13.55,13.55,0,0,1-5.11,6.23,15.3,15.3,0,0,1-8.5,2.21Z"/><path class="cls-2" d="M231.1,101.33l-.83-6.86a12,12,0,0,0,4.06-1.09,3.66,3.66,0,0,0,1.78-2.2,12.11,12.11,0,0,0,.39-3.78V60.17h21.21a13.78,13.78,0,0,1,6.19,1.33,9.67,9.67,0,0,1,4.27,4.2,15.83,15.83,0,0,1,1.58,7.63v26.81H259.67V72.84a5.2,5.2,0,0,0-1.26-3.92,4.89,4.89,0,0,0-3.5-1.19h-8.27V86.07A18.56,18.56,0,0,1,245,94.61a10.32,10.32,0,0,1-5.07,4.69A28.27,28.27,0,0,1,231.1,101.33Z"/><path class="cls-2" d="M276.67,100.14l4.83-26.95-5.6-13h10.5l4.69,13.51-4.34,26.46Zm15.33.07.91-7.56c3.46.74,6.14.71,8-.11A7.21,7.21,0,0,0,305,88a23.91,23.91,0,0,0,1.08-8.19,23,23,0,0,0-.91-7.14,7.81,7.81,0,0,0-2.62-4,7.08,7.08,0,0,0-4.31-1.26,7.26,7.26,0,0,0-3.43.8,7,7,0,0,0-2.52,2.24A8.19,8.19,0,0,0,291,74l-2.31-4.34q1.41-5.32,4.59-7.74a11.36,11.36,0,0,1,7-2.41,16.32,16.32,0,0,1,6.55,1.22,12,12,0,0,1,4.79,3.75,17.52,17.52,0,0,1,3,6.37,35.16,35.16,0,0,1,1,9A26.62,26.62,0,0,1,313,92.72a15,15,0,0,1-8.09,7.21Q299.57,102,292,100.21Z"/><path class="cls-2" d="M320.56,67.73V50h9.1V67.73Zm7.78,32.41,12.52-32.41h-20.3V60.17H351V68.5l-12.61,31.64Z"/></g></svg>