<svg xmlns="http://www.w3.org/2000/svg" viewBox="0 0 109.29 93.98"><defs><style>.cls-1{fill:#0d635f;}</style></defs><g id="Layer_2" data-name="Layer 2"><path class="cls-1" d="M43.41,92.35c-1.49-1.56-2.27-5.43,9.55-28.14,6.76-13,10.29-19.56,15.76-25.95a84.57,84.57,0,0,1,15.83-14.7,69.46,69.46,0,0,0-20,14,71,71,0,0,0-14.79,21c-2.6,5.75-3.31,9.55-4.21,9.42-1.49-.23-1.94-11,.61-21.22,1.27-5.08,2.91-11.7,8.54-18.08C59.55,23.15,65,20.82,71.33,18.08c5.66-2.45,7.84-2.57,12.76-4a55.19,55.19,0,0,0,8.08-2.79C96,9.48,101.82,6.8,106.24,1.45,106.87.68,107.46-.12,108,0c2.15.49,1,13.3.78,14.27-2.07,12.43-4.2,25.31-14.43,35.35C83,60.84,60.3,69,58,69.4a5.82,5.82,0,0,0-3.16,1.52,4.4,4.4,0,0,0-.74,1,40.56,40.56,0,0,0-4.67,14.85c-.33,4.3.16,6.2-1.13,7S44.61,93.61,43.41,92.35Z"/><path class="cls-1" d="M37.58,71.18a58,58,0,0,1-15.16-13,140.93,140.93,0,0,1-8.56-11.79A47,47,0,0,0,21.59,61a48.1,48.1,0,0,0,12.86,11.6c3.64,2.2,6.12,3,6,3.58-.28,1-7.49.4-14.14-2.13-3.69-1.41-7.79-3.12-11.41-7.18-3.29-3.7-4.41-7.54-5.73-12C8,50.85,8,49.38,7.47,46a37.71,37.71,0,0,0-1.22-5.63C5.28,37.26,4,33.12.8,30c-.42-.41-.9-.83-.78-1.17.44-1.32,9,.45,9.6.63C16.88,31.58,25,34,32.1,42c3.79,4.25,5.83,11.57,9.92,26.22.28,1,.88,3.22-.08,4S38.92,71.93,37.58,71.18Z"/></g></svg>