<svg xmlns="http://www.w3.org/2000/svg" viewBox="0 0 107.25 108.65"><defs><style>.cls-1{fill:none;}.cls-1,.cls-2,.cls-3{stroke:#0d635f;}.cls-1,.cls-2{stroke-linecap:round;stroke-linejoin:round;}.cls-1,.cls-3{stroke-width:3px;}.cls-2,.cls-3{fill:#0d635f;}.cls-2{stroke-width:2.95px;}.cls-3{stroke-miterlimit:10;}</style></defs><g id="Layer_2" data-name="Layer 2"><path class="cls-1" d="M32.85,1.5C31.43,3.22,29.64,6,30,9.19c.55,4.57,5,6.22,5.85,10.84.35,1.92.14,4.91-3,9"/><path class="cls-1" d="M53.5,1.5C52.08,3.22,50.28,6,50.67,9.19c.54,4.57,5,6.22,5.85,10.84.34,1.92.14,4.91-3,9"/><path class="cls-1" d="M74.14,1.5C72.72,3.22,70.93,6,71.31,9.19c.55,4.57,5,6.22,5.85,10.84.34,1.92.14,4.91-3,9"/><path class="cls-1" d="M100.07,82.49c-1.81-7.66-15.8-35.66-42.83-38A4.11,4.11,0,0,0,59.85,41c0-2.36-2.79-4.28-6.22-4.28S47.4,38.6,47.4,41A4.09,4.09,0,0,0,50,44.43C24.68,46.56,8.37,70.85,7.13,82.08a4.48,4.48,0,0,0,0,1.46c3.22,15,90.89,12.89,93,.15A3,3,0,0,0,100.07,82.49Z"/><path class="cls-2" d="M105.78,98.58c.16,1.52-23.92,8.59-52.15,8.6s-52.32-7-52.16-8.6c.06-.53,9.73-.43,29.08-.21,11.21.13,13.61.22,22.56.28,11.71.09,21.35,0,24.21,0C101.25,98.49,105.71,97.94,105.78,98.58Z"/><path class="cls-3" d="M16.48,81.55c.77,1.16,3,1.61,7.56,2.5,2.37.46,5.55,1.06,6.26-.17a1.63,1.63,0,0,0,0-1.25C29.25,79.07,29.48,69,33.16,63c2.16-3.53,4.19-4.84,3.83-5.3-.62-.79-7.29,2.52-12.61,7.8C20,69.82,14.09,77.94,16.48,81.55Z"/></g></svg>