<svg xmlns="http://www.w3.org/2000/svg" viewBox="0 0 65.38 63.3"><defs><style>.cls-1,.cls-3{fill:none;}.cls-1{stroke:#333;}.cls-1,.cls-2,.cls-3{stroke-linecap:round;stroke-linejoin:round;stroke-width:3.33px;}.cls-2{fill:#0d635f;stroke:#0d635f;}.cls-3{stroke:#e8e8e8;}</style></defs><g id="Layer_2" data-name="Layer 2"><line class="cls-1" x1="58.24" y1="52.74" x2="9.02" y2="52.74"/><line class="cls-2" x1="9.02" y1="61.64" x2="9.02" y2="34.4"/><path class="cls-2" d="M8.63,34a11.07,11.07,0,0,1-5-3.66C-.31,25,2.83,18.17,3,17.89c.61-1.28,3.51-6.79,9-7a10,10,0,0,1,6.72,2.56"/><path class="cls-2" d="M10.19,35a26.49,26.49,0,0,1,2.13-10.77c2.12-4.85,7.12-7.11,6.94-11.9-.05-1.27-.38-1.28-.29-2.26.42-4.36,7.2-8,13.14-8.42.56,0,10-.48,13.64,6a10.94,10.94,0,0,1,1.3,5.15c.8-.33,5.82-2.29,10.54.28,5.6,3,7.5,10.61,5.12,15.87a11.56,11.56,0,0,1-4.13,4.74l-.5,27.91H9"/><line class="cls-3" x1="22.51" y1="23.66" x2="22.51" y2="34.01"/><line class="cls-3" x1="33.67" y1="23.66" x2="33.67" y2="34.01"/><line class="cls-3" x1="44.84" y1="23.66" x2="44.84" y2="34.01"/></g></svg>