<svg xmlns="http://www.w3.org/2000/svg" viewBox="0 0 53.66 55.92"><defs><style>.cls-1{fill:#0d635f;stroke:#0d635f;stroke-linecap:round;stroke-miterlimit:10;stroke-width:3.33px;}</style></defs><g id="Layer_2" data-name="Layer 2"><path class="cls-1" d="M36.59,8.9c1.07-.21,1.53.63,5.09,3.54,3.31,2.7,4.14,3,4.18,4,.07,1.85-2.38,3.75-4.59,4.28a5.89,5.89,0,0,1-2.35.07,1.79,1.79,0,0,1-.22.34l-26.16,32a2.86,2.86,0,0,1-4,.47l-.37-.3a2.87,2.87,0,0,1-.33-4L34,17.32l.16-.17a6.23,6.23,0,0,1-.6-2.86C33.63,12.13,34.8,9.26,36.59,8.9Z"/><line class="cls-1" x1="51.99" y1="9.98" x2="45.53" y2="17.88"/><line class="cls-1" x1="41.82" y1="1.66" x2="35.36" y2="9.57"/><line class="cls-1" x1="46.79" y1="5.96" x2="42.03" y2="11.78"/><path class="cls-1" d="M30.91,30.7c2.65,2.93,4.72,5.37,6.12,7.05,4.45,5.35,4,5.13,5.65,6.91C43.89,46,44.87,47.45,46,48.78a3.55,3.55,0,0,1,1.1,2,3.24,3.24,0,0,1-1.45,3,3.4,3.4,0,0,1-2.43.47c-1.36-.27-2.13-1.36-3-2.53-1.25-1.68-2.67-3.22-4-4.86-.51-.65-.89-1.12-1.22-1.52-.83-1-1.46-1.75-1.58-1.89-.76-.89-2.46-3-6.34-8.08"/><path class="cls-1" d="M26.43,25.74c-1.09-1.29-2-2.41-2.7-3.3-2.61-3.3-5.08-6.71-5.08-6.71a10.39,10.39,0,0,0,.4-1.54,11.35,11.35,0,0,0-.22-5C17.42,4.36,12.45,2.5,12,2.35a8.75,8.75,0,0,0-5.14-.43A6.49,6.49,0,0,0,4.09,3.25,7.18,7.18,0,0,0,1.82,7.59,9.63,9.63,0,0,0,2,11.8a10.59,10.59,0,0,0,2.16,4.43,10.62,10.62,0,0,0,5.65,3.45s.32.05,3.78.24h0c.18.24.44.59.77,1,.81,1.05,2,2.48,2.36,2.88,1.14,1.35,2.23,2.73,3.35,4.1l2.63,3.22"/></g></svg>